SplineFontDB: 2.0
FontName: Mashq-Bold
FullName: Mashq Bold
FamilyName: Mashq-Bold
Weight: Bold
Copyright: Typeface and data © 2003-2007, Arabeyes.org. Latin glyphs are based on "Free UCS Outline Fonts", www.nongnu.org/freefont. This font is distributed under the terms of GPL license with font embedding exception.
Version: 1.9
ItalicAngle: 0
UnderlinePosition: -190
UnderlineWidth: 210
Ascent: 1440
Descent: 360
Order2: 1
NeedsXUIDChange: 1
XUID: [1021 117 962472906 15661172]
FSType: 4
OS2Version: 1
OS2_WeightWidthSlopeOnly: 0
OS2_UseTypoMetrics: 1
CreationTime: 25200
ModificationTime: 1187549792
PfmFamily: 17
TTFWeight: 700
TTFWidth: 5
LineGap: 360
VLineGap: 0
Panose: 2 6 8 3 5 6 5 2 2 4
OS2TypoAscent: 318
OS2TypoAOffset: 1
OS2TypoDescent: -519
OS2TypoDOffset: 1
OS2TypoLinegap: 0
OS2WinAscent: 58
OS2WinAOffset: 1
OS2WinDescent: -22
OS2WinDOffset: 1
HheadAscent: 58
HheadAOffset: 1
HheadDescent: 22
HheadDOffset: 1
OS2SubXSize: 1187
OS2SubYSize: 1079
OS2SubXOff: 0
OS2SubYOff: -392
OS2SupXSize: 1187
OS2SupYSize: 1079
OS2SupXOff: 0
OS2SupYOff: 523
OS2StrikeYSize: 211
OS2StrikeYPos: 540
OS2FamilyClass: 2
OS2Vendor: 'PYRS'
Lookup: 3 0 0 "'aalt' Access All Alternates in Latin lookup 0"  {"'aalt' Access All Alternates in Latin lookup 0"  } ['aalt' ('latn' <'dflt' > ) ]
Lookup: 1 0 0 "'aalt' Access All Alternates in Latin lookup 1"  {"'aalt' Access All Alternates in Latin lookup 1"  } ['aalt' ('latn' <'dflt' > ) ]
Lookup: 1 1 0 "'init' Initial Forms in Arabic lookup 2"  {"'init' Initial Forms in Arabic lookup 2"  } ['init' ('arab' <'dflt' > ) ]
Lookup: 1 1 0 "'medi' Medial Forms in Arabic lookup 3"  {"'medi' Medial Forms in Arabic lookup 3"  } ['medi' ('arab' <'dflt' > ) ]
Lookup: 1 1 0 "'fina' Terminal Forms in Arabic lookup 4"  {"'fina' Terminal Forms in Arabic lookup 4"  } ['fina' ('arab' <'dflt' > ) ]
Lookup: 4 9 1 "'liga' Standard Ligatures in Arabic lookup 5"  {"'liga' Standard Ligatures in Arabic lookup 5"  } ['liga' ('arab' <'dflt' > ) ]

StartChar: exclam
Encoding: 33 33 3
Width: 598
GlyphClass: 2
Flags: W
HStem: 0 38G<202 472>
Fore
472 1307 m 1,0,-1
 472 929 l 1,1,-1
 396 372 l 1,2,-1
 276 372 l 1,3,-1
 202 929 l 1,4,-1
 202 1307 l 1,5,-1
 472 1307 l 1,0,-1
472 263 m 1,6,-1
 472 0 l 1,7,-1
 202 0 l 1,8,-1
 202 263 l 1,9,-1
 472 263 l 1,6,-1
EndSplineSet
EndChar
StartChar: quotedbl
Encoding: 34 34 4
Width: 853
GlyphClass: 2
Flags: W
HStem: 1277 36G<90 338 515 763>
VStem: 90 248<1078 1313> 515 248<1078 1313>
Fore
338 1313 m 1,0,-1
 338 1078 l 1,1,-1
 263 846 l 1,2,-1
 162 846 l 1,3,-1
 90 1078 l 1,4,-1
 90 1313 l 1,5,-1
 338 1313 l 1,0,-1
763 1313 m 1,6,-1
 763 1078 l 1,7,-1
 688 846 l 1,8,-1
 587 846 l 1,9,-1
 515 1078 l 1,10,-1
 515 1313 l 1,11,-1
 763 1313 l 1,6,-1
EndSplineSet
EndChar
StartChar: numbersign
Encoding: 35 35 5
Width: 1000
GlyphClass: 2
Flags: W
HStem: 310 178<5 180 335 554 709 924> 763 178<55 270 422 644 799 996>
Fore
263 -58 m 1,0,-1
 72 -58 l 1,1,-1
 144 310 l 1,2,-1
 5 310 l 1,3,-1
 5 487 l 1,4,-1
 180 487 l 1,5,-1
 234 763 l 1,6,-1
 55 763 l 1,7,-1
 55 941 l 1,8,-1
 270 941 l 1,9,-1
 331 1255 l 1,10,-1
 521 1255 l 1,11,-1
 458 941 l 1,12,-1
 644 941 l 1,13,-1
 706 1255 l 1,14,-1
 895 1255 l 1,15,-1
 833 941 l 1,16,-1
 996 941 l 1,17,-1
 996 763 l 1,18,-1
 799 763 l 1,19,-1
 744 487 l 1,20,-1
 924 487 l 1,21,-1
 924 310 l 1,22,-1
 709 310 l 1,23,-1
 637 -58 l 1,24,-1
 449 -58 l 1,25,-1
 521 310 l 1,26,-1
 335 310 l 1,27,-1
 263 -58 l 1,0,-1
370 487 m 1,28,-1
 554 487 l 1,29,-1
 608 763 l 1,30,-1
 422 763 l 1,31,-1
 370 487 l 1,28,-1
EndSplineSet
EndChar
StartChar: dollar
Encoding: 36 36 6
Width: 1000
GlyphClass: 2
Flags: W
VStem: 70 221<822 1022> 437 122<-227 -38 155 538 732 1094 1277 1373> 710 238<234 450>
Fore
437 -38 m 1,0,1
 247 -19 247 -19 143.5 87 c 0,2,3
 40 193 40 193 40 356 c 2,4,-1
 40 372 l 1,5,-1
 276 372 l 1,6,7
 284 182 284 182 437 155 c 1,8,-1
 437 538 l 1,9,10
 70 623 70 623 70 922 c 0,11,12
 70 1073 70 1073 166.5 1167 c 0,13,14
 263 1261 263 1261 437 1277 c 1,15,-1
 437 1373 l 1,16,-1
 559 1373 l 1,17,-1
 559 1277 l 1,18,19
 730 1267 730 1267 828.5 1166 c 0,20,21
 927 1065 927 1065 931 896 c 1,22,-1
 701 896 l 1,23,-1
 701 907 l 2,24,25
 701 986 701 986 663.5 1035.5 c 0,26,27
 626 1085 626 1085 559 1094 c 1,28,-1
 559 732 l 1,29,30
 770 674 770 674 859 587 c 0,31,32
 948 500 948 500 948 350 c 0,33,34
 948 179 948 179 846.5 81 c 0,35,36
 745 -17 745 -17 559 -38 c 1,37,-1
 559 -227 l 1,38,-1
 437 -227 l 1,39,-1
 437 -38 l 1,0,1
437 768 m 1,28,-1
 437 1094 l 1,29,30
 292 1066 292 1066 292 929 c 0,31,32
 292 870 292 870 326.5 832 c 0,33,34
 361 794 361 794 437 768 c 1,28,-1
559 508 m 1,33,-1
 559 155 l 1,34,35
 710 192 710 192 710 329 c 0,36,37
 710 463 710 463 559 508 c 1,33,-1
EndSplineSet
EndChar
StartChar: percent
Encoding: 37 37 7
Width: 1599
GlyphClass: 2
Flags: W
HStem: -24 176<1132 1313> 456 178<1132 1315> 607 176<280 461> 1084 178<280 463>
VStem: 40 178<845 1025> 523 178<842 1024> 890 178<215 396> 1375 178<212 394>
Fore
371 1262 m 0,0,1
 510 1262 510 1262 606 1166 c 0,2,3
 702 1070 702 1070 702 931 c 0,4,5
 702 798 702 798 604 702.5 c 0,6,7
 506 607 506 607 371 607 c 0,8,9
 235 607 235 607 137.5 703 c 0,10,11
 40 799 40 799 40 934 c 0,12,13
 40 1069 40 1069 137.5 1165.5 c 0,14,15
 235 1262 235 1262 371 1262 c 0,0,1
371 1084 m 0,8,9
 308 1084 308 1084 263 1039.5 c 0,10,11
 218 995 218 995 218 934 c 0,12,13
 218 872 218 872 263 827 c 0,14,15
 308 782 308 782 371 782 c 0,16,17
 433 782 433 782 478 827 c 0,18,19
 523 872 523 872 523 932 c 0,20,21
 523 996 523 996 479 1040 c 0,22,23
 435 1084 435 1084 371 1084 c 0,8,9
1091 1277 m 1,16,-1
 1228 1277 l 1,17,-1
 516 -36 l 1,18,-1
 378 -36 l 1,19,-1
 1091 1277 l 1,16,-1
1222 634 m 0,20,21
 1361 634 1361 634 1457 537 c 0,22,23
 1553 440 1553 440 1553 300 c 0,24,25
 1553 169 1553 169 1455 72.5 c 0,26,27
 1357 -24 1357 -24 1222 -24 c 0,28,29
 1085 -24 1085 -24 987.5 73 c 0,30,31
 890 170 890 170 890 306 c 0,32,33
 890 441 890 441 987.5 537.5 c 0,34,35
 1085 634 1085 634 1222 634 c 0,20,21
1222 456 m 0,28,29
 1159 456 1159 456 1114 411 c 0,30,31
 1069 366 1069 366 1069 305 c 0,32,33
 1069 242 1069 242 1114 198 c 0,34,35
 1159 154 1159 154 1222 154 c 0,36,37
 1285 154 1285 154 1330 197.5 c 0,38,39
 1375 241 1375 241 1375 302 c 0,40,41
 1375 365 1375 365 1330 410.5 c 0,42,43
 1285 456 1285 456 1222 456 c 0,28,29
EndSplineSet
EndChar
StartChar: ampersand
Encoding: 38 38 8
Width: 1299
GlyphClass: 2
Flags: W
HStem: -41 209<398 587> 1105 197<478 671>
VStem: 98 240<230 432> 679 216<958 1106>
Fore
947 672 m 1,0,-1
 1150 672 l 1,1,-1
 1150 643 l 2,2,3
 1148 540 1148 540 1114.5 439.5 c 0,4,5
 1081 339 1081 339 1027 277 c 1,6,-1
 1249 0 l 1,7,-1
 960 0 l 1,8,-1
 876 101 l 1,9,10
 769 19 769 19 694 -11 c 0,11,12
 619 -41 619 -41 526 -41 c 0,13,14
 334 -41 334 -41 216 65.5 c 0,15,16
 98 172 98 172 98 348 c 0,17,18
 98 474 98 474 160.5 557 c 0,19,20
 223 640 223 640 382 722 c 1,21,22
 368 741 368 741 360 749 c 2,23,-1
 310 810 l 2,24,25
 234 898 234 898 234 1001 c 0,26,27
 234 1128 234 1128 332 1214.5 c 0,28,29
 430 1301 430 1301 574 1301 c 0,30,31
 719 1301 719 1301 807 1224.5 c 0,32,33
 895 1148 895 1148 895 1022 c 0,34,35
 895 925 895 925 849.5 856.5 c 0,36,37
 804 788 804 788 684 706 c 1,38,-1
 893 446 l 1,39,40
 947 551 947 551 947 653 c 2,41,-1
 947 672 l 1,0,-1
500 574 m 1,28,-1
 415 522 l 2,29,30
 338 471 338 471 338 378 c 0,31,32
 338 297 338 297 397 232.5 c 0,33,34
 456 168 456 168 529 168 c 0,35,36
 615 168 615 168 745 266 c 1,37,-1
 500 574 l 1,28,-1
571 846 m 1,36,37
 679 906 679 906 679 1001 c 0,38,39
 679 1051 679 1051 652 1078 c 0,40,41
 625 1105 625 1105 576 1105 c 0,42,43
 530 1105 530 1105 501 1081 c 0,44,45
 472 1057 472 1057 472 1019 c 0,46,47
 472 985 472 985 487.5 958 c 0,48,49
 503 931 503 931 571 846 c 1,36,37
EndSplineSet
EndChar
StartChar: quotesingle
Encoding: 39 39 9
Width: 428
GlyphClass: 2
Flags: W
HStem: 1277 36G<90 338>
VStem: 90 248<1078 1313>
Fore
338 1313 m 1,0,-1
 338 1078 l 1,1,-1
 263 846 l 1,2,-1
 162 846 l 1,3,-1
 90 1078 l 1,4,-1
 90 1313 l 1,5,-1
 338 1313 l 1,0,-1
EndSplineSet
EndChar
StartChar: parenleft
Encoding: 40 40 10
Width: 598
GlyphClass: 2
Flags: W
HStem: 1277 36G<365 545>
VStem: 72 221<338 614>
Fore
365 1313 m 1,0,-1
 545 1313 l 1,1,2
 403 1038 403 1038 348 856 c 0,3,4
 293 674 293 674 293 478 c 0,5,6
 293 280 293 280 347.5 100 c 0,7,8
 402 -80 402 -80 545 -360 c 1,9,-1
 365 -360 l 1,10,11
 210 -126 210 -126 141 71.5 c 0,12,13
 72 269 72 269 72 478 c 0,14,15
 72 684 72 684 141 882 c 0,16,17
 210 1080 210 1080 365 1313 c 1,0,-1
EndSplineSet
EndChar
StartChar: parenright
Encoding: 41 41 11
Width: 598
GlyphClass: 2
Flags: W
HStem: 1277 36G<40 220>
VStem: 292 221<337 614>
Fore
220 -360 m 1,0,-1
 40 -360 l 1,1,2
 183 -85 183 -85 237.5 96.5 c 0,3,4
 292 278 292 278 292 475 c 0,5,6
 292 672 292 672 237.5 852.5 c 0,7,8
 183 1033 183 1033 40 1313 c 1,9,-1
 220 1313 l 1,10,11
 375 1079 375 1079 444.5 881 c 0,12,13
 514 683 514 683 514 475 c 0,14,15
 514 268 514 268 444.5 71 c 0,16,17
 375 -126 375 -126 220 -360 c 1,0,-1
EndSplineSet
EndChar
StartChar: asterisk
Encoding: 42 42 12
Width: 699
GlyphClass: 2
Flags: W
HStem: 1277 36G<277 407>
VStem: 277 130<1104 1313>
Fore
238 979 m 1,0,-1
 41 1044 l 1,1,-1
 82 1169 l 1,2,-1
 277 1104 l 1,3,-1
 277 1313 l 1,4,-1
 407 1313 l 1,5,-1
 407 1104 l 1,6,-1
 602 1169 l 1,7,-1
 643 1042 l 1,8,-1
 446 979 l 1,9,-1
 566 810 l 1,10,-1
 463 732 l 1,11,-1
 342 902 l 1,12,-1
 221 732 l 1,13,-1
 118 810 l 1,14,-1
 238 979 l 1,0,-1
EndSplineSet
EndChar
StartChar: plus
Encoding: 43 43 13
Width: 1051
GlyphClass: 2
Flags: W
HStem: -18 38G<418 631>
VStem: 418 214<-18 310 523 852>
Fore
960 523 m 1,0,-1
 960 310 l 1,1,-1
 631 310 l 1,2,-1
 631 -18 l 1,3,-1
 418 -18 l 1,4,-1
 418 310 l 1,5,-1
 90 310 l 1,6,-1
 90 523 l 1,7,-1
 418 523 l 1,8,-1
 418 852 l 1,9,-1
 631 852 l 1,10,-1
 631 523 l 1,11,-1
 960 523 l 1,0,-1
EndSplineSet
EndChar
StartChar: comma
Encoding: 44 44 14
Width: 500
GlyphClass: 2
Flags: W
HStem: -36 36G<115 270>
VStem: 270 115<-67 17>
Fore
115 263 m 1,0,-1
 385 263 l 1,1,-1
 385 17 l 2,2,3
 385 -32 385 -32 380.5 -69.5 c 128,-1,4
 376 -107 376 -107 360 -151 c 128,-1,5
 344 -195 344 -195 316 -225.5 c 128,-1,6
 288 -256 288 -256 237 -280 c 128,-1,7
 186 -304 186 -304 115 -313 c 1,8,-1
 115 -212 l 1,9,10
 195 -196 195 -196 232.5 -146 c 128,-1,11
 270 -96 270 -96 270 -5 c 2,12,-1
 270 0 l 1,13,-1
 115 0 l 1,14,-1
 115 263 l 1,0,-1
EndSplineSet
EndChar
StartChar: hyphen
Encoding: 45 45 15
Width: 598
GlyphClass: 2
Flags: W
Fore
536 616 m 1,0,-1
 536 372 l 1,1,-1
 47 372 l 1,2,-1
 47 616 l 1,3,-1
 536 616 l 1,0,-1
EndSplineSet
EndChar
StartChar: period
Encoding: 46 46 16
Width: 500
GlyphClass: 2
Flags: W
HStem: 0 38G<115 385>
Fore
385 263 m 1,0,-1
 385 0 l 1,1,-1
 115 0 l 1,2,-1
 115 263 l 1,3,-1
 385 263 l 1,0,-1
EndSplineSet
EndChar
StartChar: slash
Encoding: 47 47 17
Width: 500
GlyphClass: 2
Flags: W
HStem: -25 38G<4 125> 1249 36G<374 494>
Fore
374 1285 m 1,0,-1
 494 1285 l 1,1,-1
 125 -25 l 1,2,-1
 4 -25 l 1,3,-1
 374 1285 l 1,0,-1
EndSplineSet
EndChar
StartChar: zero
Encoding: 48 48 18
Width: 1000
GlyphClass: 2
Flags: W
HStem: -41 216<316 668> 1099 204<422 566>
VStem: 53 252<442 812> 679 252<444 827>
Fore
492 -41 m 128,-1,1
 389 -41 389 -41 311.5 -6 c 128,-1,2
 234 29 234 29 185.5 88 c 128,-1,3
 137 147 137 147 106.5 234.5 c 128,-1,4
 76 322 76 322 64.5 417 c 128,-1,5
 53 512 53 512 53 630 c 0,6,7
 53 996 53 996 161 1140 c 0,8,9
 219 1219 219 1219 304 1261 c 128,-1,10
 389 1303 389 1303 492 1303 c 0,11,12
 604 1303 604 1303 694.5 1254 c 128,-1,13
 785 1205 785 1205 840 1114 c 0,14,15
 931 969 931 969 931 623 c 0,16,17
 931 508 931 508 919.5 415 c 128,-1,18
 908 322 908 322 878 235 c 128,-1,19
 848 148 848 148 799.5 89 c 128,-1,20
 751 30 751 30 673 -5.5 c 128,-1,0
 595 -41 595 -41 492 -41 c 128,-1,1
679 629 m 0,21,22
 679 774 679 774 666.5 869 c 128,-1,23
 654 964 654 964 628 1013.5 c 128,-1,24
 602 1063 602 1063 570.5 1081 c 128,-1,25
 539 1099 539 1099 492 1099 c 0,26,27
 425 1099 425 1099 385.5 1058 c 128,-1,28
 346 1017 346 1017 325.5 914 c 128,-1,29
 305 811 305 811 305 631 c 0,30,31
 305 492 305 492 317 400.5 c 128,-1,32
 329 309 329 309 354.5 260.5 c 128,-1,33
 380 212 380 212 412.5 193.5 c 128,-1,34
 445 175 445 175 492 175 c 0,35,36
 601 175 601 175 646 292 c 0,37,38
 660 329 660 329 669.5 425.5 c 128,-1,39
 679 522 679 522 679 629 c 0,21,22
EndSplineSet
EndChar
StartChar: one
Encoding: 49 49 19
Width: 1000
GlyphClass: 2
Flags: W
HStem: 0 38G<428 680> 881 168<122 428> 1241 36G<514 680>
Fore
428 881 m 1,0,-1
 122 881 l 1,1,-1
 122 1048 l 1,2,3
 452 1048 452 1048 514 1277 c 1,4,-1
 680 1277 l 1,5,-1
 680 0 l 1,6,-1
 428 0 l 1,7,-1
 428 881 l 1,0,-1
EndSplineSet
EndChar
StartChar: two
Encoding: 50 50 20
Width: 1000
GlyphClass: 2
Flags: W
HStem: 0 38G<54 922> 1098 205<358 624>
VStem: 70 242<832 1012> 674 252<708 1021>
Fore
926 898 m 0,0,1
 926 820 926 820 902 753 c 128,-1,2
 878 686 878 686 837 637 c 128,-1,3
 796 588 796 588 746 545.5 c 128,-1,4
 696 503 696 503 641 465.5 c 128,-1,5
 586 428 586 428 537 393 c 128,-1,6
 488 358 488 358 445.5 314.5 c 128,-1,7
 403 271 403 271 382 226 c 1,8,-1
 922 226 l 1,9,-1
 922 0 l 1,10,-1
 54 0 l 1,11,12
 64 176 64 176 126 280.5 c 128,-1,13
 188 385 188 385 349 497 c 0,14,15
 495 599 495 599 561 659 c 128,-1,16
 627 719 627 719 650.5 769 c 128,-1,17
 674 819 674 819 674 893 c 0,18,19
 674 989 674 989 626 1043.5 c 128,-1,20
 578 1098 578 1098 494 1098 c 0,21,22
 408 1098 408 1098 360.5 1039 c 128,-1,23
 313 980 313 980 313 874 c 2,24,-1
 313 832 l 1,25,-1
 72 832 l 1,26,27
 70 852 70 852 70 876 c 0,28,29
 70 1079 70 1079 181 1191 c 128,-1,30
 292 1303 292 1303 490 1303 c 0,31,32
 691 1303 691 1303 808.5 1193.5 c 128,-1,33
 926 1084 926 1084 926 898 c 0,0,1
EndSplineSet
EndChar
StartChar: three
Encoding: 51 51 21
Width: 1000
GlyphClass: 2
Flags: W
HStem: -41 216<352 618> 571 169<391 487> 1099 204<401 606>
VStem: 68 234<875 1069> 636 252<869 1062> 677 252<242 442>
Fore
68 896 m 6,0,1
 68 995 68 995 96 1070.5 c 128,-1,2
 124 1146 124 1146 166 1189 c 128,-1,3
 208 1232 208 1232 266.5 1259 c 128,-1,4
 325 1286 325 1286 376 1294.5 c 128,-1,5
 427 1303 427 1303 482 1303 c 0,6,7
 668 1303 668 1303 778 1209 c 128,-1,8
 888 1115 888 1115 888 955 c 0,9,10
 888 868 888 868 848.5 803.5 c 128,-1,11
 809 739 809 739 720 684 c 1,12,13
 828 631 828 631 878.5 555 c 128,-1,14
 929 479 929 479 929 367 c 0,15,16
 929 181 929 181 807.5 70 c 128,-1,17
 686 -41 686 -41 482 -41 c 0,18,19
 286 -41 286 -41 170 71 c 128,-1,20
 54 183 54 183 53 374 c 1,21,-1
 298 374 l 1,22,23
 309 175 309 175 487 175 c 0,24,25
 570 175 570 175 623.5 229.5 c 128,-1,26
 677 284 677 284 677 367 c 0,27,28
 677 437 677 437 639.5 489 c 128,-1,29
 602 541 602 541 538 558 c 0,30,31
 486 571 486 571 391 571 c 1,32,-1
 391 739 l 1,33,-1
 413 739 l 2,34,35
 636 739 636 739 636 932 c 0,36,37
 636 1012 636 1012 594.5 1055.5 c 128,-1,38
 553 1099 553 1099 478 1099 c 0,39,40
 378 1099 378 1099 341.5 1044 c 128,-1,41
 305 989 305 989 302 875 c 1,42,-1
 68 875 l 1,43,-1
 68 896 l 6,0,1
EndSplineSet
EndChar
StartChar: four
Encoding: 52 52 22
Width: 1000
GlyphClass: 2
Flags: W
HStem: 0 38G<554 806> 1241 36G<509 806>
Fore
940 492 m 1,0,-1
 940 283 l 1,1,-1
 806 283 l 1,2,-1
 806 0 l 1,3,-1
 554 0 l 1,4,-1
 554 283 l 1,5,-1
 43 283 l 1,6,-1
 43 494 l 1,7,-1
 509 1277 l 1,8,-1
 806 1277 l 1,9,-1
 806 492 l 1,10,-1
 940 492 l 1,0,-1
554 492 m 5,11,-1
 554 1037 l 1,12,-1
 221 492 l 1,13,-1
 554 492 l 5,11,-1
EndSplineSet
EndChar
StartChar: five
Encoding: 53 53 23
Width: 1000
GlyphClass: 2
Flags: W
HStem: -41 216<346 607> 662 199<434 650> 1241 36G<198 881>
VStem: 679 252<283 552>
Fore
881 1277 m 1,0,-1
 881 1051 l 1,1,-1
 353 1051 l 1,2,-1
 312 785 l 1,3,4
 414 862 414 862 533 862 c 0,5,6
 709 862 709 862 820 739.5 c 128,-1,7
 931 617 931 617 931 421 c 0,8,9
 931 215 931 215 803.5 87 c 128,-1,10
 676 -41 676 -41 470 -41 c 0,11,12
 284 -41 284 -41 168 62.5 c 128,-1,13
 52 166 52 166 48 334 c 1,14,-1
 298 334 l 1,15,16
 301 256 301 256 346 215.5 c 128,-1,17
 391 175 391 175 473 175 c 0,18,19
 568 175 568 175 623.5 239 c 128,-1,20
 679 303 679 303 679 415 c 0,21,22
 679 532 679 532 624 597 c 128,-1,23
 569 662 569 662 473 662 c 0,24,25
 351 662 351 662 312 565 c 1,26,-1
 84 565 l 1,27,-1
 198 1277 l 1,28,-1
 881 1277 l 1,0,-1
EndSplineSet
EndChar
StartChar: six
Encoding: 54 54 24
Width: 1000
GlyphClass: 2
Flags: W
HStem: -41 216<432 635> 643 198<444 673> 986 38G<679 912> 1099 204<349 568>
VStem: 58 248<337 803> 695 240<288 550>
Fore
58 607 m 0,0,1
 58 1303 58 1303 529 1303 c 0,2,3
 551 1303 551 1303 572.5 1301.5 c 128,-1,4
 594 1300 594 1300 630.5 1293 c 128,-1,5
 667 1286 667 1286 698.5 1274 c 128,-1,6
 730 1262 730 1262 766.5 1238 c 128,-1,7
 803 1214 803 1214 830 1181.5 c 128,-1,8
 857 1149 857 1149 880 1098.5 c 128,-1,9
 903 1048 903 1048 912 986 c 1,10,-1
 679 986 l 1,11,12
 654 1047 654 1047 618 1073 c 128,-1,13
 582 1099 582 1099 522 1099 c 0,14,15
 446 1099 446 1099 394.5 1051 c 128,-1,16
 343 1003 343 1003 326 917 c 0,17,18
 317 876 317 876 315 852 c 128,-1,19
 313 828 313 828 310 727 c 1,20,21
 369 789 369 789 426.5 814.5 c 128,-1,22
 484 840 484 840 564 840 c 0,23,24
 728 840 728 840 831 725 c 128,-1,25
 934 610 934 610 934 427 c 0,26,27
 934 219 934 219 816 89 c 128,-1,28
 698 -41 698 -41 508 -41 c 0,29,30
 394 -41 394 -41 299 9 c 128,-1,31
 204 59 204 59 149 148 c 0,32,33
 101 224 101 224 79.5 332 c 128,-1,34
 58 440 58 440 58 607 c 0,0,1
502 643 m 0,35,36
 415 643 415 643 360.5 577 c 128,-1,37
 306 511 306 511 306 406 c 0,38,39
 306 304 306 304 360 239.5 c 128,-1,40
 414 175 414 175 500 175 c 0,41,42
 584 175 584 175 639.5 241.5 c 128,-1,43
 695 308 695 308 695 410 c 0,44,45
 695 516 695 516 642.5 579.5 c 128,-1,46
 590 643 590 643 502 643 c 0,35,36
EndSplineSet
EndChar
StartChar: seven
Encoding: 55 55 25
Width: 1000
GlyphClass: 2
Flags: W
HStem: 0 38G<240 493> 1241 36G<53 950>
Fore
950 1277 m 1,0,-1
 950 1078 l 1,1,2
 723 804 723 804 616.5 553 c 128,-1,3
 510 302 510 302 493 0 c 1,4,-1
 240 0 l 1,5,6
 265 203 265 203 303 344 c 128,-1,7
 341 485 341 485 407 624 c 0,8,9
 444 708 444 708 536.5 848 c 128,-1,10
 629 988 629 988 688 1051 c 1,11,-1
 53 1051 l 1,12,-1
 53 1277 l 1,13,-1
 950 1277 l 1,0,-1
EndSplineSet
EndChar
StartChar: eight
Encoding: 56 56 26
Width: 1000
GlyphClass: 2
Flags: W
HStem: -41 216<359 626> 594 170<431 553> 1099 204<374 611>
VStem: 40 252<247 446> 83 221<884 1056> 684 218<883 1057> 694 252<247 444>
Fore
902 958 m 0,0,1
 902 888 902 888 877.5 834.5 c 128,-1,2
 853 781 853 781 819.5 751.5 c 128,-1,3
 786 722 786 722 737 695 c 1,4,5
 847 636 847 636 896.5 558 c 128,-1,6
 946 480 946 480 946 367 c 0,7,8
 946 186 946 186 819.5 72.5 c 128,-1,9
 693 -41 693 -41 493 -41 c 128,-1,10
 293 -41 293 -41 166.5 72.5 c 128,-1,11
 40 186 40 186 40 367 c 0,12,13
 40 481 40 481 89 558.5 c 128,-1,14
 138 636 138 636 248 695 c 1,15,16
 161 741 161 741 122 802.5 c 128,-1,17
 83 864 83 864 83 955 c 0,18,19
 83 1106 83 1106 199 1204.5 c 128,-1,20
 315 1303 315 1303 493 1303 c 128,-1,21
 671 1303 671 1303 786.5 1205 c 128,-1,22
 902 1107 902 1107 902 958 c 0,0,1
494 1099 m 0,23,24
 410 1099 410 1099 357.5 1053 c 128,-1,25
 305 1007 305 1007 305 934 c 0,26,27
 305 860 305 860 358 813 c 128,-1,28
 411 766 411 766 494 766 c 128,-1,29
 577 766 577 766 630.5 812.5 c 128,-1,30
 684 859 684 859 684 932 c 0,31,32
 684 1007 684 1007 631.5 1053 c 128,-1,33
 579 1099 579 1099 494 1099 c 0,23,24
492 594 m 0,34,35
 401 594 401 594 346.5 536.5 c 128,-1,36
 292 479 292 479 292 382 c 0,37,38
 292 287 292 287 346.5 231 c 128,-1,39
 401 175 401 175 492 175 c 128,-1,40
 583 175 583 175 638.5 230.5 c 128,-1,41
 694 286 694 286 694 378 c 0,42,43
 694 478 694 478 639.5 536 c 128,-1,44
 585 594 585 594 492 594 c 0,34,35
EndSplineSet
EndChar
StartChar: nine
Encoding: 57 57 27
Width: 1000
GlyphClass: 2
Flags: W
HStem: -43 216<349 559> 410 209<319 535> 1098 205<353 571>
VStem: 50 240<722 986> 672 257<365 937>
Fore
929 666 m 0,0,1
 929 540 929 540 913 436.5 c 128,-1,2
 897 333 897 333 871 261 c 128,-1,3
 845 189 845 189 807 133.5 c 128,-1,4
 769 78 769 78 728.5 45.5 c 128,-1,5
 688 13 688 13 639.5 -7.5 c 128,-1,6
 591 -28 591 -28 548 -35.5 c 128,-1,7
 505 -43 505 -43 458 -43 c 0,8,9
 350 -43 350 -43 262 1 c 128,-1,10
 174 45 174 45 122.5 123 c 128,-1,11
 71 201 71 201 68 298 c 1,12,-1
 312 298 l 1,13,14
 316 241 316 241 358 207 c 128,-1,15
 400 173 400 173 466 173 c 0,16,17
 677 173 677 173 677 536 c 1,18,19
 676 535 676 535 659 515.5 c 128,-1,20
 642 496 642 496 633.5 487.5 c 128,-1,21
 625 479 625 479 602 461 c 128,-1,22
 579 443 579 443 557.5 434.5 c 128,-1,23
 536 426 536 426 502.5 418 c 128,-1,24
 469 410 469 410 432 410 c 0,25,26
 262 410 262 410 156 533 c 128,-1,27
 50 656 50 656 50 853 c 0,28,29
 50 1053 50 1053 169.5 1178 c 128,-1,30
 289 1303 289 1303 480 1303 c 0,31,32
 522 1303 522 1303 562 1296.5 c 128,-1,33
 602 1290 602 1290 647.5 1271 c 128,-1,34
 693 1252 693 1252 732.5 1222.5 c 128,-1,35
 772 1193 772 1193 809 1143.5 c 128,-1,36
 846 1094 846 1094 872 1029 c 128,-1,37
 898 964 898 964 913.5 871 c 128,-1,38
 929 778 929 778 929 666 c 0,0,1
473 1098 m 0,39,40
 390 1098 390 1098 340 1032.5 c 128,-1,41
 290 967 290 967 290 857 c 128,-1,42
 290 747 290 747 340.5 683 c 128,-1,43
 391 619 391 619 478 619 c 0,44,45
 564 619 564 619 618 683.5 c 128,-1,46
 672 748 672 748 672 853 c 0,47,48
 672 966 672 966 618 1032 c 128,-1,49
 564 1098 564 1098 473 1098 c 0,39,40
EndSplineSet
EndChar
StartChar: colon
Encoding: 58 58 28
Width: 598
GlyphClass: 2
Flags: W
HStem: 0 38G<204 473>
Fore
473 263 m 1,0,-1
 473 0 l 1,1,-1
 204 0 l 1,2,-1
 204 263 l 1,3,-1
 473 263 l 1,0,-1
473 936 m 1,4,-1
 473 673 l 1,5,-1
 204 673 l 1,6,-1
 204 936 l 1,7,-1
 473 936 l 1,4,-1
EndSplineSet
EndChar
StartChar: semicolon
Encoding: 59 59 29
Width: 598
GlyphClass: 2
Flags: W
HStem: -36 36G<204 358>
VStem: 358 115<-67 17>
Fore
204 263 m 1,0,-1
 473 263 l 1,1,-1
 473 17 l 2,2,3
 473 -33 473 -33 469 -70 c 128,-1,4
 465 -107 465 -107 449 -151 c 128,-1,5
 433 -195 433 -195 405 -225.5 c 128,-1,6
 377 -256 377 -256 326 -280 c 128,-1,7
 275 -304 275 -304 204 -313 c 1,8,-1
 204 -212 l 1,9,10
 284 -196 284 -196 321 -146 c 128,-1,11
 358 -96 358 -96 358 -5 c 2,12,-1
 358 0 l 1,13,-1
 204 0 l 1,14,-1
 204 263 l 1,0,-1
473 936 m 1,15,-1
 473 673 l 1,16,-1
 204 673 l 1,17,-1
 204 936 l 1,18,-1
 473 936 l 1,15,-1
EndSplineSet
EndChar
StartChar: less
Encoding: 60 60 30
Width: 1051
GlyphClass: 2
Flags: W
Fore
953 853 m 1,0,-1
 953 658 l 1,1,-1
 264 418 l 1,2,-1
 953 182 l 1,3,-1
 953 -18 l 1,4,-1
 72 310 l 1,5,-1
 72 528 l 1,6,-1
 953 853 l 1,0,-1
EndSplineSet
EndChar
StartChar: equal
Encoding: 61 61 31
Width: 1051
GlyphClass: 2
Flags: W
Fore
961 739 m 1,0,-1
 961 526 l 1,1,-1
 90 526 l 1,2,-1
 90 739 l 1,3,-1
 961 739 l 1,0,-1
961 307 m 1,4,-1
 961 94 l 1,5,-1
 90 94 l 1,6,-1
 90 307 l 1,7,-1
 961 307 l 1,4,-1
EndSplineSet
EndChar
StartChar: greater
Encoding: 62 62 32
Width: 1051
GlyphClass: 2
Flags: W
Fore
72 -18 m 1,0,-1
 72 178 l 1,1,-1
 760 418 l 1,2,-1
 72 653 l 1,3,-1
 72 853 l 1,4,-1
 953 526 l 1,5,-1
 953 307 l 1,6,-1
 72 -18 l 1,0,-1
EndSplineSet
EndChar
StartChar: question
Encoding: 63 63 33
Width: 1099
GlyphClass: 2
Flags: W
HStem: 0 38G<422 694> 1127 212<466 685>
VStem: 442 223<362 550> 746 254<811 1048>
Fore
115 866 m 1,0,1
 116 950 116 950 132 1019.5 c 128,-1,2
 148 1089 148 1089 173 1137.5 c 128,-1,3
 198 1186 198 1186 234.5 1222.5 c 128,-1,4
 271 1259 271 1259 308.5 1281 c 128,-1,5
 346 1303 346 1303 390.5 1316.5 c 128,-1,6
 435 1330 435 1330 473 1334.5 c 128,-1,7
 511 1339 511 1339 552 1339 c 0,8,9
 751 1339 751 1339 876 1224 c 128,-1,10
 1001 1109 1001 1109 1001 925 c 0,11,12
 1001 811 1001 811 956 738 c 128,-1,13
 911 665 911 665 785 576 c 0,14,15
 704 519 704 519 684.5 484.5 c 128,-1,16
 665 450 665 450 665 362 c 1,17,-1
 442 362 l 1,18,-1
 442 386 l 2,19,20
 442 452 442 452 459 506 c 128,-1,21
 476 560 476 560 502.5 596 c 128,-1,22
 529 632 529 632 561.5 663 c 128,-1,23
 594 694 594 694 626.5 721 c 128,-1,24
 659 748 659 748 685.5 775 c 128,-1,25
 712 802 712 802 729 838.5 c 128,-1,26
 746 875 746 875 746 919 c 0,27,28
 746 1008 746 1008 692.5 1067.5 c 128,-1,29
 639 1127 639 1127 558 1127 c 0,30,31
 472 1127 472 1127 416 1058.5 c 128,-1,32
 360 990 360 990 360 886 c 2,33,-1
 360 869 l 1,34,-1
 360 866 l 1,35,-1
 115 866 l 1,0,1
694 263 m 1,36,-1
 694 0 l 1,37,-1
 422 0 l 1,38,-1
 422 263 l 1,39,-1
 694 263 l 1,36,-1
EndSplineSet
EndChar
StartChar: at
Encoding: 64 64 34
Width: 1754
GlyphClass: 2
Flags: W
HStem: -248 140<618 955> 101 146<678 876 1192 1349> 804 127<744 976> 1202 139<710 1142>
VStem: 48 175<276 668> 464 175<323 530> 1070 96<307 678> 1544 161<472 845>
Fore
464 408 m 0,0,1
 464 435 464 435 470 473 c 0,2,3
 476 511 476 511 492 561.5 c 0,4,5
 508 612 508 612 531 662 c 0,6,7
 554 712 554 712 591.5 761 c 0,8,9
 629 810 629 810 674.5 848 c 0,10,11
 720 886 720 886 785 909 c 0,12,13
 850 932 850 932 925 932 c 0,14,15
 1001 932 1001 932 1049.5 901.5 c 0,16,17
 1098 871 1098 871 1130 803 c 1,18,-1
 1159 914 l 1,19,-1
 1321 914 l 1,20,-1
 1181 410 l 2,21,22
 1166 356 1166 356 1166 335 c 0,23,24
 1166 294 1166 294 1190 270.5 c 0,25,26
 1214 247 1214 247 1255 247 c 0,27,28
 1298 247 1298 247 1348.5 280 c 0,29,30
 1399 313 1399 313 1442.5 367.5 c 0,31,32
 1486 422 1486 422 1515 502 c 0,33,34
 1544 582 1544 582 1544 666 c 0,35,36
 1544 880 1544 880 1368 1037 c 0,37,38
 1181 1202 1181 1202 919 1202 c 0,39,40
 767 1202 767 1202 635 1142.5 c 0,41,42
 503 1083 503 1083 414 983 c 0,43,44
 325 883 325 883 274 752 c 0,45,46
 223 621 223 621 223 479 c 0,47,48
 223 372 223 372 258 278.5 c 0,49,50
 293 185 293 185 354.5 115 c 0,51,52
 416 45 416 45 498 -6 c 0,53,54
 580 -57 580 -57 676.5 -82.5 c 0,55,56
 773 -108 773 -108 875 -108 c 0,57,58
 1085 -108 1085 -108 1248 -34 c 1,59,-1
 1298 -166 l 1,60,61
 1115 -248 1115 -248 871 -248 c 0,62,63
 686 -248 686 -248 530 -191 c 0,64,65
 374 -134 374 -134 269 -36 c 0,66,67
 164 62 164 62 106 194 c 0,68,69
 48 326 48 326 48 475 c 0,70,71
 48 632 48 632 117.5 795.5 c 0,72,73
 187 959 187 959 306 1082 c 0,74,75
 558 1342 558 1342 929 1342 c 0,76,77
 1142 1342 1142 1342 1318.5 1253 c 0,78,79
 1495 1164 1495 1164 1599.5 1002 c 0,80,81
 1704 840 1704 840 1704 638 c 0,82,83
 1704 519 1704 519 1660.5 414.5 c 0,84,85
 1617 310 1617 310 1550 243.5 c 0,86,87
 1483 177 1483 177 1405 139 c 0,88,89
 1327 101 1327 101 1255 101 c 0,90,91
 1166 101 1166 101 1108 139.5 c 0,92,93
 1050 178 1050 178 1030 235 c 1,94,95
 978 172 978 172 906 136.5 c 0,96,97
 834 101 834 101 760 101 c 0,98,99
 636 101 636 101 550 190.5 c 0,100,101
 464 280 464 280 464 408 c 0,0,1
799 247 m 0,42,43
 854 247 854 247 906 285 c 0,44,45
 958 323 958 323 993 379.5 c 0,46,47
 1028 436 1028 436 1049 501 c 0,48,49
 1070 566 1070 566 1070 622 c 0,50,51
 1070 706 1070 706 1029.5 755 c 0,52,53
 989 804 989 804 919 804 c 0,54,55
 851 804 851 804 785.5 751.5 c 0,56,57
 720 699 720 699 679 614 c 0,58,59
 638 529 638 529 638 439 c 0,60,61
 638 358 638 358 684.5 302.5 c 0,62,63
 731 247 731 247 799 247 c 0,42,43
EndSplineSet
EndChar
StartChar: A
Encoding: 65 65 35
Width: 1299
GlyphClass: 2
Flags: W
HStem: 0 38G<47 322 989 1265> 1277 36G<514 811>
Fore
902 264 m 1,0,-1
 410 264 l 1,1,-1
 322 0 l 1,2,-1
 47 0 l 1,3,-1
 514 1313 l 1,4,-1
 811 1313 l 1,5,-1
 1265 0 l 1,6,-1
 989 0 l 1,7,-1
 902 264 l 1,0,-1
828 490 m 1,8,-1
 658 1003 l 1,9,-1
 486 490 l 1,10,-1
 828 490 l 1,8,-1
EndSplineSet
EndChar
StartChar: B
Encoding: 66 66 36
Width: 1299
GlyphClass: 2
Flags: W
HStem: 0 38G<148 738> 1277 36G<148 732>
VStem: 940 259<300 450>
Fore
1199 378 m 4,0,1
 1199 327 1199 327 1187 278 c 128,-1,2
 1175 229 1175 229 1142.5 177.5 c 128,-1,3
 1110 126 1110 126 1060 87.5 c 128,-1,4
 1010 49 1010 49 927 24.5 c 128,-1,5
 844 0 844 0 738 0 c 2,6,-1
 148 0 l 1,7,-1
 148 1313 l 1,8,-1
 732 1313 l 2,9,10
 831 1313 831 1313 909 1288 c 128,-1,11
 987 1263 987 1263 1033 1226 c 128,-1,12
 1079 1189 1079 1189 1109.5 1140.5 c 128,-1,13
 1140 1092 1140 1092 1151 1049.5 c 128,-1,14
 1162 1007 1162 1007 1162 967 c 0,15,16
 1162 883 1162 883 1120.5 821 c 128,-1,17
 1079 759 1079 759 982 696 c 1,18,19
 1199 568 1199 568 1199 378 c 4,0,1
418 1087 m 5,20,-1
 418 790 l 1,21,-1
 710 790 l 2,22,23
 804 790 804 790 853 828 c 128,-1,24
 902 866 902 866 902 938 c 128,-1,25
 902 1010 902 1010 853 1048.5 c 128,-1,26
 804 1087 804 1087 710 1087 c 2,27,-1
 418 1087 l 5,20,-1
418 565 m 5,28,-1
 418 226 l 1,29,-1
 739 226 l 2,30,31
 838 226 838 226 889 268.5 c 128,-1,32
 940 311 940 311 940 394 c 0,33,34
 940 478 940 478 889 521.5 c 128,-1,35
 838 565 838 565 739 565 c 2,36,-1
 418 565 l 5,28,-1
EndSplineSet
EndChar
StartChar: C
Encoding: 67 67 37
Width: 1299
GlyphClass: 2
Flags: W
HStem: -41 227<491 836> 1104 230<494 833>
VStem: 79 270<434 857>
Fore
970 868 m 1,0,1
 965 892 965 892 959.5 909 c 128,-1,2
 954 926 954 926 941 957.5 c 128,-1,3
 928 989 928 989 908 1011.5 c 128,-1,4
 888 1034 888 1034 859 1057 c 128,-1,5
 830 1080 830 1080 786.5 1092 c 128,-1,6
 743 1104 743 1104 689 1104 c 0,7,8
 530 1104 530 1104 439.5 981 c 128,-1,9
 349 858 349 858 349 641 c 0,10,11
 349 426 349 426 436.5 305.5 c 128,-1,12
 524 185 524 185 680 185 c 0,13,14
 806 185 806 185 882 254 c 128,-1,15
 958 323 958 323 970 449 c 1,16,-1
 1234 449 l 1,17,18
 1221 224 1221 224 1069 91.5 c 128,-1,19
 917 -41 917 -41 673 -41 c 0,20,21
 399 -41 399 -41 239 143.5 c 128,-1,22
 79 328 79 328 79 644 c 0,23,24
 79 963 79 963 240.5 1148.5 c 128,-1,25
 402 1334 402 1334 680 1334 c 0,26,27
 913 1334 913 1334 1062 1210 c 128,-1,28
 1211 1086 1211 1086 1228 868 c 1,29,-1
 970 868 l 1,0,1
EndSplineSet
EndChar
StartChar: D
Encoding: 68 68 38
Width: 1299
GlyphClass: 2
Flags: W
HStem: 0 226<408 754> 1087 226<408 754>
VStem: 955 270<511 800>
Fore
139 0 m 1,0,-1
 139 1313 l 1,1,-1
 652 1313 l 2,2,3
 802 1313 802 1313 900.5 1277 c 128,-1,4
 999 1241 999 1241 1066 1162 c 0,5,6
 1226 970 1226 970 1226 658 c 0,7,8
 1226 342 1226 342 1066 154 c 0,9,10
 999 74 999 74 900.5 37 c 128,-1,11
 802 0 802 0 652 0 c 2,12,-1
 139 0 l 1,0,-1
408 226 m 1,13,-1
 652 226 l 2,14,15
 955 226 955 226 955 655 c 0,16,17
 955 1087 955 1087 652 1087 c 2,18,-1
 408 1087 l 1,19,-1
 408 226 l 1,13,-1
EndSplineSet
EndChar
StartChar: E
Encoding: 69 69 39
Width: 1200
GlyphClass: 2
Flags: W
HStem: 0 38G<142 1123> 565 226<413 1040> 1277 36G<142 1091>
Fore
413 565 m 1,0,-1
 413 226 l 1,1,-1
 1123 226 l 1,2,-1
 1123 0 l 1,3,-1
 142 0 l 1,4,-1
 142 1313 l 1,5,-1
 1091 1313 l 1,6,-1
 1091 1087 l 1,7,-1
 413 1087 l 1,8,-1
 413 790 l 1,9,-1
 1040 790 l 1,10,-1
 1040 565 l 1,11,-1
 413 565 l 1,0,-1
EndSplineSet
EndChar
StartChar: F
Encoding: 70 70 40
Width: 1099
GlyphClass: 2
Flags: W
HStem: 0 38G<133 403> 565 226<403 977> 1277 36G<133 1055>
Fore
403 565 m 1,0,-1
 403 0 l 1,1,-1
 133 0 l 1,2,-1
 133 1313 l 1,3,-1
 1055 1313 l 1,4,-1
 1055 1087 l 1,5,-1
 403 1087 l 1,6,-1
 403 790 l 1,7,-1
 977 790 l 1,8,-1
 977 565 l 1,9,-1
 403 565 l 1,0,-1
EndSplineSet
EndChar
StartChar: G
Encoding: 71 71 41
Width: 1400
GlyphClass: 2
Flags: W
HStem: -41 230<512 778> 1104 230<522 869>
VStem: 76 270<448 851>
Fore
1026 893 m 1,0,1
 995 987 995 987 919 1045.5 c 128,-1,2
 843 1104 843 1104 713 1104 c 0,3,4
 542 1104 542 1104 444 983 c 128,-1,5
 346 862 346 862 346 650 c 0,6,7
 346 447 346 447 451 318.5 c 128,-1,8
 556 190 556 190 720 190 c 0,9,10
 745 190 745 190 778.5 196 c 128,-1,11
 812 202 812 202 859 221.5 c 128,-1,12
 906 241 906 241 945.5 271 c 128,-1,13
 985 301 985 301 1016 355.5 c 128,-1,14
 1047 410 1047 410 1054 480 c 1,15,-1
 754 480 l 1,16,-1
 754 706 l 1,17,-1
 1279 706 l 1,18,-1
 1279 -4 l 1,19,-1
 1118 -4 l 1,20,-1
 1085 169 l 1,21,22
 1009 59 1009 59 915.5 9 c 128,-1,23
 822 -41 822 -41 689 -41 c 0,24,25
 514 -41 514 -41 374 47 c 128,-1,26
 234 135 234 135 155 292.5 c 128,-1,27
 76 450 76 450 76 646 c 0,28,29
 76 953 76 953 252 1143.5 c 128,-1,30
 428 1334 428 1334 710 1334 c 0,31,32
 948 1334 948 1334 1102 1214.5 c 128,-1,33
 1256 1095 1256 1095 1279 893 c 1,34,-1
 1026 893 l 1,0,1
EndSplineSet
EndChar
StartChar: H
Encoding: 72 72 42
Width: 1299
GlyphClass: 2
Flags: W
HStem: 0 38G<122 392 912 1183> 1277 36G<122 392 911 1183>
Fore
912 595 m 1,0,-1
 392 595 l 1,1,-1
 392 0 l 1,2,-1
 122 0 l 1,3,-1
 122 1313 l 1,4,-1
 392 1313 l 1,5,-1
 392 821 l 1,6,-1
 911 821 l 1,7,-1
 911 1313 l 1,8,-1
 1183 1313 l 1,9,-1
 1183 0 l 1,10,-1
 912 0 l 1,11,-1
 912 595 l 1,0,-1
EndSplineSet
EndChar
StartChar: I
Encoding: 73 73 43
Width: 500
GlyphClass: 2
Flags: W
HStem: 0 38G<113 384> 1277 36G<113 384>
Fore
384 1313 m 1,0,-1
 384 0 l 1,1,-1
 113 0 l 1,2,-1
 113 1313 l 1,3,-1
 384 1313 l 1,0,-1
EndSplineSet
EndChar
StartChar: J
Encoding: 74 74 44
Width: 1000
GlyphClass: 2
Flags: W
HStem: -41 230<364 588> 1277 36G<605 875>
VStem: 43 270<197 486> 605 270<220 1313>
Fore
454 -41 m 0,0,1
 396 -41 396 -41 342 -30.5 c 128,-1,2
 288 -20 288 -20 232 7.5 c 128,-1,3
 176 35 176 35 135.5 78.5 c 128,-1,4
 95 122 95 122 69 193 c 128,-1,5
 43 264 43 264 43 356 c 2,6,-1
 43 486 l 1,7,-1
 313 486 l 1,8,-1
 313 360 l 2,9,10
 313 270 313 270 347 230 c 128,-1,11
 381 190 381 190 458 190 c 0,12,13
 529 190 529 190 567 229 c 128,-1,14
 605 268 605 268 605 342 c 2,15,-1
 605 1313 l 1,16,-1
 875 1313 l 1,17,-1
 875 342 l 2,18,19
 875 158 875 158 765 58.5 c 128,-1,20
 655 -41 655 -41 454 -41 c 0,0,1
EndSplineSet
EndChar
StartChar: K
Encoding: 75 75 45
Width: 1299
GlyphClass: 2
Flags: W
HStem: 0 38G<133 403 968 1291> 1277 36G<133 403 917 1235>
Fore
403 439 m 1,0,-1
 403 0 l 1,1,-1
 133 0 l 1,2,-1
 133 1313 l 1,3,-1
 403 1313 l 1,4,-1
 403 737 l 1,5,-1
 917 1313 l 1,6,-1
 1235 1313 l 1,7,-1
 710 746 l 1,8,-1
 1291 0 l 1,9,-1
 968 0 l 1,10,-1
 538 580 l 1,11,-1
 403 439 l 1,0,-1
EndSplineSet
EndChar
StartChar: L
Encoding: 76 76 46
Width: 1099
GlyphClass: 2
Flags: W
HStem: 0 38G<144 1042> 1277 36G<144 414>
Fore
414 1313 m 1,0,-1
 414 226 l 1,1,-1
 1042 226 l 1,2,-1
 1042 0 l 1,3,-1
 144 0 l 1,4,-1
 144 1313 l 1,5,-1
 414 1313 l 1,0,-1
EndSplineSet
EndChar
StartChar: M
Encoding: 77 77 47
Width: 1498
GlyphClass: 2
Flags: W
HStem: 0 38G<119 389 624 895 1127 1397> 1277 36G<119 522 990 1397>
Fore
389 1022 m 1,0,-1
 389 0 l 1,1,-1
 119 0 l 1,2,-1
 119 1313 l 1,3,-1
 522 1313 l 1,4,-1
 760 269 l 1,5,-1
 990 1313 l 1,6,-1
 1397 1313 l 1,7,-1
 1397 0 l 1,8,-1
 1127 0 l 1,9,-1
 1127 1022 l 1,10,-1
 895 0 l 1,11,-1
 624 0 l 1,12,-1
 389 1022 l 1,0,-1
EndSplineSet
EndChar
StartChar: N
Encoding: 78 78 48
Width: 1299
GlyphClass: 2
Flags: W
HStem: 0 38G<122 392 919 1190> 1277 36G<122 400 919 1190>
VStem: 919 270<0 1313>
Fore
919 0 m 1,0,-1
 392 907 l 1,1,-1
 392 0 l 1,2,-1
 122 0 l 1,3,-1
 122 1313 l 1,4,-1
 400 1313 l 1,5,-1
 919 420 l 1,6,-1
 919 1313 l 1,7,-1
 1190 1313 l 1,8,-1
 1190 0 l 1,9,-1
 919 0 l 1,0,-1
EndSplineSet
EndChar
StartChar: O
Encoding: 79 79 49
Width: 1400
GlyphClass: 2
Flags: W
HStem: -41 230<511 901> 1104 230<511 892>
VStem: 72 270<446 846> 1066 270<449 846>
Fore
72 646 m 128,-1,1
 72 845 72 845 149 1001 c 128,-1,2
 226 1157 226 1157 370 1245.5 c 128,-1,3
 514 1334 514 1334 702 1334 c 0,4,5
 987 1334 987 1334 1161.5 1142 c 128,-1,6
 1336 950 1336 950 1336 637 c 0,7,8
 1336 496 1336 496 1292 372.5 c 128,-1,9
 1248 249 1248 249 1168 157 c 128,-1,10
 1088 65 1088 65 968 12 c 128,-1,11
 848 -41 848 -41 703 -41 c 0,12,13
 514 -41 514 -41 370 47.5 c 128,-1,14
 226 136 226 136 149 291.5 c 128,-1,0
 72 447 72 447 72 646 c 128,-1,1
703 1104 m 0,15,16
 540 1104 540 1104 441 978.5 c 128,-1,17
 342 853 342 853 342 646 c 0,18,19
 342 440 342 440 441 315 c 128,-1,20
 540 190 540 190 703 190 c 0,21,22
 865 190 865 190 965.5 314 c 128,-1,23
 1066 438 1066 438 1066 638 c 0,24,25
 1066 852 1066 852 968 978 c 128,-1,26
 870 1104 870 1104 703 1104 c 0,15,16
EndSplineSet
EndChar
StartChar: P
Encoding: 80 80 50
Width: 1200
GlyphClass: 2
Flags: W
HStem: 0 38G<137 407> 1277 36G<137 716>
VStem: 869 270<773 1037>
Fore
407 468 m 1,0,-1
 407 0 l 1,1,-1
 137 0 l 1,2,-1
 137 1313 l 1,3,-1
 716 1313 l 2,4,5
 922 1313 922 1313 1031 1208 c 128,-1,6
 1140 1103 1140 1103 1140 905 c 0,7,8
 1140 705 1140 705 1032 586.5 c 128,-1,9
 924 468 924 468 744 468 c 2,10,-1
 407 468 l 1,0,-1
407 694 m 1,11,-1
 659 694 l 2,12,13
 767 694 767 694 818 741.5 c 128,-1,14
 869 789 869 789 869 889 c 0,15,16
 869 991 869 991 818 1039 c 128,-1,17
 767 1087 767 1087 659 1087 c 2,18,-1
 407 1087 l 1,19,-1
 407 694 l 1,11,-1
EndSplineSet
EndChar
StartChar: Q
Encoding: 81 81 51
Width: 1400
GlyphClass: 2
Flags: W
HStem: -41 230<516 776> 1104 230<516 905>
VStem: 77 270<449 845> 1070 270<562 842>
Fore
709 1334 m 0,0,1
 899 1334 899 1334 1044.5 1243 c 0,2,3
 1190 1152 1190 1152 1266 997 c 0,4,5
 1342 842 1342 842 1342 650 c 0,6,7
 1342 518 1342 518 1303 392 c 0,8,9
 1264 266 1264 266 1198 185 c 1,10,-1
 1342 48 l 1,11,-1
 1205 -97 l 1,12,-1
 1049 48 l 1,13,14
 901 -41 901 -41 709 -41 c 0,15,16
 520 -41 520 -41 375.5 48 c 0,17,18
 231 137 231 137 154 293 c 0,19,20
 77 449 77 449 77 646 c 0,21,22
 77 843 77 843 154 999 c 0,23,24
 231 1155 231 1155 375.5 1244.5 c 0,25,26
 520 1334 520 1334 709 1334 c 0,0,1
864 500 m 1,13,-1
 1012 360 l 1,14,15
 1070 477 1070 477 1070 644 c 0,16,17
 1070 854 1070 854 972 979 c 0,18,19
 874 1104 874 1104 709 1104 c 0,20,21
 546 1104 546 1104 447 978.5 c 0,22,23
 348 853 348 853 348 646 c 0,24,25
 348 440 348 440 447 315 c 0,26,27
 546 190 546 190 708 190 c 0,28,29
 800 190 800 190 866 223 c 1,30,-1
 727 355 l 1,31,-1
 864 500 l 1,13,-1
EndSplineSet
EndChar
StartChar: R
Encoding: 82 82 52
Width: 1299
GlyphClass: 2
Flags: W
HStem: 0 38G<144 414 929 1219> 1277 36G<144 847>
VStem: 888 274<127 274> 931 270<844 1031>
Fore
888 226 m 0,0,1
 888 279 888 279 889 309.5 c 128,-1,2
 890 340 890 340 890 364 c 0,3,4
 890 446 890 446 850.5 483.5 c 128,-1,5
 811 521 811 521 724 521 c 2,6,-1
 414 521 l 1,7,-1
 414 0 l 1,8,-1
 144 0 l 1,9,-1
 144 1313 l 1,10,-1
 847 1313 l 2,11,12
 928 1313 928 1313 992 1290 c 128,-1,13
 1056 1267 1056 1267 1094 1230.5 c 128,-1,14
 1132 1194 1132 1194 1157 1145.5 c 128,-1,15
 1182 1097 1182 1097 1191 1051.5 c 128,-1,16
 1200 1006 1200 1006 1200 958 c 0,17,18
 1200 719 1200 719 979 634 c 1,19,20
 1015 618 1015 618 1035 609 c 128,-1,21
 1055 600 1055 600 1077 583 c 128,-1,22
 1099 566 1099 566 1109 554.5 c 128,-1,23
 1119 543 1119 543 1130.5 513 c 128,-1,24
 1142 483 1142 483 1145.5 459.5 c 128,-1,25
 1149 436 1149 436 1153.5 384 c 128,-1,26
 1158 332 1158 332 1159 285.5 c 128,-1,27
 1160 239 1160 239 1162 156 c 0,28,29
 1162 113 1162 113 1174.5 89.5 c 128,-1,30
 1187 66 1187 66 1219 48 c 1,31,-1
 1219 0 l 1,32,-1
 929 0 l 1,33,34
 904 46 904 46 896 89.5 c 128,-1,35
 888 133 888 133 888 226 c 0,0,1
931 919 m 0,36,37
 931 972 931 972 918 1006.5 c 128,-1,38
 905 1041 905 1041 877 1058 c 128,-1,39
 849 1075 849 1075 818 1081 c 128,-1,40
 787 1087 787 1087 739 1087 c 2,41,-1
 414 1087 l 1,42,-1
 414 745 l 1,43,-1
 739 745 l 2,44,45
 786 745 786 745 817.5 751 c 128,-1,46
 849 757 849 757 876.5 774.5 c 128,-1,47
 904 792 904 792 917.5 828 c 128,-1,48
 931 864 931 864 931 919 c 0,36,37
EndSplineSet
EndChar
StartChar: S
Encoding: 83 83 53
Width: 1200
GlyphClass: 2
Flags: W
HStem: -41 216<434 770> 1118 216<420 679>
VStem: 82 257<829 1058> 881 259<250 487>
Fore
1092 912 m 1,0,-1
 840 912 l 1,1,2
 834 1013 834 1013 764 1065.5 c 128,-1,3
 694 1118 694 1118 565 1118 c 0,4,5
 461 1118 461 1118 399.5 1074 c 128,-1,6
 338 1030 338 1030 338 955 c 0,7,8
 338 884 338 884 390 849 c 128,-1,9
 442 814 442 814 587 785 c 2,10,-1
 792 745 l 2,11,12
 974 710 974 710 1057 624 c 128,-1,13
 1140 538 1140 538 1140 384 c 0,14,15
 1140 184 1140 184 997.5 71.5 c 128,-1,16
 855 -41 855 -41 601 -41 c 0,17,18
 350 -41 350 -41 210 70.5 c 128,-1,19
 70 182 70 182 58 392 c 1,20,-1
 320 392 l 1,21,22
 327 287 327 287 402.5 231 c 128,-1,23
 478 175 478 175 616 175 c 0,24,25
 739 175 739 175 810 221.5 c 128,-1,26
 881 268 881 268 881 350 c 0,27,28
 881 430 881 430 825 473 c 128,-1,29
 769 516 769 516 634 542 c 2,30,-1
 450 578 l 2,31,32
 251 616 251 616 166.5 697 c 128,-1,33
 82 778 82 778 82 931 c 0,34,35
 82 1122 82 1122 212 1228 c 128,-1,36
 342 1334 342 1334 578 1334 c 0,37,38
 625 1334 625 1334 670.5 1329.5 c 128,-1,39
 716 1325 716 1325 768.5 1313 c 128,-1,40
 821 1301 821 1301 866 1281.5 c 128,-1,41
 911 1262 911 1262 953.5 1229 c 128,-1,42
 996 1196 996 1196 1026 1153 c 128,-1,43
 1056 1110 1056 1110 1074 1048 c 128,-1,44
 1092 986 1092 986 1092 912 c 1,0,-1
EndSplineSet
EndChar
StartChar: T
Encoding: 84 84 54
Width: 1099
GlyphClass: 2
Flags: W
HStem: 0 38G<422 694> 1277 36G<25 1076>
VStem: 422 270<0 1087>
Fore
694 1087 m 1,0,-1
 694 0 l 1,1,-1
 422 0 l 1,2,-1
 422 1087 l 1,3,-1
 25 1087 l 1,4,-1
 25 1313 l 1,5,-1
 1076 1313 l 1,6,-1
 1076 1087 l 1,7,-1
 694 1087 l 1,0,-1
EndSplineSet
EndChar
StartChar: U
Encoding: 85 85 55
Width: 1299
GlyphClass: 2
Flags: W
HStem: -41 230<546 768> 1277 36G<137 407 907 1177>
VStem: 137 270<238 1313> 907 270<238 1313>
Fore
658 -41 m 0,0,1
 586 -41 586 -41 518 -29 c 128,-1,2
 450 -17 450 -17 379 16 c 128,-1,3
 308 49 308 49 256 99 c 128,-1,4
 204 149 204 149 170.5 232.5 c 128,-1,5
 137 316 137 316 137 422 c 2,6,-1
 137 1313 l 1,7,-1
 407 1313 l 1,8,-1
 407 422 l 2,9,10
 407 303 407 303 468.5 246.5 c 128,-1,11
 530 190 530 190 658 190 c 0,12,13
 784 190 784 190 845.5 247 c 128,-1,14
 907 304 907 304 907 422 c 2,15,-1
 907 1313 l 1,16,-1
 1177 1313 l 1,17,-1
 1177 422 l 2,18,19
 1177 316 1177 316 1143.5 232.5 c 128,-1,20
 1110 149 1110 149 1058 99 c 128,-1,21
 1006 49 1006 49 935.5 16 c 128,-1,22
 865 -17 865 -17 797 -29 c 128,-1,23
 729 -41 729 -41 658 -41 c 0,0,1
EndSplineSet
EndChar
StartChar: V
Encoding: 86 86 56
Width: 1200
GlyphClass: 2
Flags: W
HStem: 0 38G<486 715> 1277 36G<43 314 893 1164>
Fore
715 0 m 1,0,-1
 486 0 l 1,1,-1
 43 1313 l 1,2,-1
 314 1313 l 1,3,-1
 607 324 l 1,4,-1
 893 1313 l 1,5,-1
 1164 1313 l 1,6,-1
 715 0 l 1,0,-1
EndSplineSet
EndChar
StartChar: W
Encoding: 87 87 57
Width: 1699
GlyphClass: 2
Flags: W
HStem: 0 38G<394 637 1070 1314> 1277 36G<24 310 716 983 1392 1678>
Fore
1314 0 m 1,0,-1
 1070 0 l 1,1,-1
 852 1025 l 1,2,-1
 637 0 l 1,3,-1
 394 0 l 1,4,-1
 24 1313 l 1,5,-1
 310 1313 l 1,6,-1
 514 329 l 1,7,-1
 716 1313 l 1,8,-1
 983 1313 l 1,9,-1
 1195 328 l 1,10,-1
 1392 1313 l 1,11,-1
 1678 1313 l 1,12,-1
 1314 0 l 1,0,-1
EndSplineSet
EndChar
StartChar: X
Encoding: 88 88 58
Width: 1200
GlyphClass: 2
Flags: W
HStem: 0 38G<40 353 854 1176> 1277 36G<54 374 846 1159>
Fore
754 670 m 1,0,-1
 1176 0 l 1,1,-1
 854 0 l 1,2,-1
 602 456 l 1,3,-1
 353 0 l 1,4,-1
 40 0 l 1,5,-1
 454 660 l 1,6,-1
 54 1313 l 1,7,-1
 374 1313 l 1,8,-1
 605 881 l 1,9,-1
 846 1313 l 1,10,-1
 1159 1313 l 1,11,-1
 754 670 l 1,0,-1
EndSplineSet
EndChar
StartChar: Y
Encoding: 89 89 59
Width: 1200
GlyphClass: 2
Flags: W
HStem: 0 38G<485 754> 1277 36G<48 349 868 1170>
VStem: 485 270<0 486>
Fore
754 486 m 1,0,-1
 754 0 l 1,1,-1
 485 0 l 1,2,-1
 485 486 l 1,3,-1
 48 1313 l 1,4,-1
 349 1313 l 1,5,-1
 617 732 l 1,6,-1
 868 1313 l 1,7,-1
 1170 1313 l 1,8,-1
 754 486 l 1,0,-1
EndSplineSet
EndChar
StartChar: Z
Encoding: 90 90 60
Width: 1099
GlyphClass: 2
Flags: W
HStem: 0 226<54 1040> 1087 226<54 1040>
Fore
1040 1313 m 1,0,-1
 1040 1087 l 1,1,-1
 371 226 l 1,2,-1
 1040 226 l 1,3,-1
 1040 0 l 1,4,-1
 54 0 l 1,5,-1
 54 226 l 1,6,-1
 725 1087 l 1,7,-1
 54 1087 l 1,8,-1
 54 1313 l 1,9,-1
 1040 1313 l 1,0,-1
EndSplineSet
EndChar
StartChar: bracketleft
Encoding: 91 91 61
Width: 598
GlyphClass: 2
Flags: W
HStem: 1277 36G<119 554>
Fore
554 1313 m 1,0,-1
 554 1128 l 1,1,-1
 353 1128 l 1,2,-1
 353 -176 l 1,3,-1
 554 -176 l 1,4,-1
 554 -360 l 1,5,-1
 119 -360 l 1,6,-1
 119 1313 l 1,7,-1
 554 1313 l 1,0,-1
EndSplineSet
EndChar
StartChar: backslash
Encoding: 92 92 62
Width: 500
GlyphClass: 2
Flags: W
HStem: -25 38G<400 521> 1249 36G<-22 98>
Fore
98 1285 m 1,0,-1
 521 -25 l 1,1,-1
 400 -25 l 1,2,-1
 -22 1285 l 1,3,-1
 98 1285 l 1,0,-1
EndSplineSet
EndChar
StartChar: bracketright
Encoding: 93 93 63
Width: 598
GlyphClass: 2
Flags: W
HStem: 1277 36G<32 468>
Fore
32 -360 m 1,0,-1
 32 -176 l 1,1,-1
 234 -176 l 1,2,-1
 234 1128 l 1,3,-1
 32 1128 l 1,4,-1
 32 1313 l 1,5,-1
 468 1313 l 1,6,-1
 468 -360 l 1,7,-1
 32 -360 l 1,0,-1
EndSplineSet
EndChar
StartChar: asciicircum
Encoding: 94 94 64
Width: 1051
GlyphClass: 2
Flags: W
Fore
940 486 m 1,0,-1
 737 486 l 1,1,-1
 518 1026 l 1,2,-1
 312 486 l 1,3,-1
 110 486 l 1,4,-1
 407 1250 l 1,5,-1
 631 1250 l 1,6,-1
 940 486 l 1,0,-1
EndSplineSet
EndChar
StartChar: underscore
Encoding: 95 95 65
Width: 1000
GlyphClass: 2
Flags: W
HStem: -341 125<-40 1040>
Fore
1040 -216 m 1,0,-1
 1040 -341 l 1,1,-1
 -40 -341 l 1,2,-1
 -40 -216 l 1,3,-1
 1040 -216 l 1,0,-1
EndSplineSet
EndChar
StartChar: grave
Encoding: 96 96 66
Width: 598
GlyphClass: 2
Flags: W
Fore
31 1363 m 1,0,-1
 257 1363 l 1,1,-1
 384 1092 l 1,2,-1
 257 1092 l 1,3,-1
 31 1363 l 1,0,-1
EndSplineSet
EndChar
StartChar: a
Encoding: 97 97 67
Width: 1000
GlyphClass: 2
Flags: W
HStem: -41 204<257 503> 785 204<356 619>
VStem: 50 252<163 337> 638 247<149 788>
Fore
346 -41 m 0,0,1
 213 -41 213 -41 131.5 39 c 128,-1,2
 50 119 50 119 50 250 c 128,-1,3
 50 381 50 381 120.5 456 c 128,-1,4
 191 531 191 531 336 557 c 2,5,-1
 437 574 l 2,6,7
 468 577 468 577 503.5 584 c 128,-1,8
 539 591 539 591 569 600 c 128,-1,9
 599 609 599 609 618.5 631.5 c 128,-1,10
 638 654 638 654 638 688 c 0,11,12
 638 785 638 785 493 785 c 0,13,14
 401 785 401 785 363 756 c 128,-1,15
 325 727 325 727 314 652 c 1,16,-1
 72 652 l 1,17,18
 98 989 98 989 487 989 c 0,19,20
 886 989 886 989 886 689 c 2,21,-1
 886 149 l 2,22,23
 886 111 886 111 897.5 86.5 c 128,-1,24
 909 62 909 62 943 31 c 1,25,-1
 943 0 l 1,26,-1
 670 0 l 1,27,28
 652 22 652 22 646.5 40.5 c 128,-1,29
 641 59 641 59 641 97 c 1,30,31
 508 -41 508 -41 346 -41 c 0,0,1
638 391 m 2,32,-1
 638 458 l 1,33,34
 610 444 610 444 533 428 c 2,35,-1
 446 413 l 2,36,37
 368 396 368 396 335 365.5 c 128,-1,38
 302 335 302 335 302 278 c 0,39,40
 302 224 302 224 339 193 c 128,-1,41
 376 162 376 162 439 162 c 0,42,43
 534 162 534 162 586 221.5 c 128,-1,44
 638 281 638 281 638 391 c 2,32,-1
EndSplineSet
EndChar
StartChar: b
Encoding: 98 98 68
Width: 1099
GlyphClass: 2
Flags: W
HStem: -41 211<506 743> 778 211<508 742> 1277 36G<106 358>
VStem: 782 252<326 625>
Fore
626 989 m 0,0,1
 801 989 801 989 917.5 844.5 c 128,-1,2
 1034 700 1034 700 1034 473 c 0,3,4
 1034 329 1034 329 981 211 c 128,-1,5
 928 93 928 93 834.5 26 c 128,-1,6
 741 -41 741 -41 626 -41 c 0,7,8
 450 -41 450 -41 358 98 c 1,9,-1
 358 0 l 1,10,-1
 106 0 l 1,11,-1
 106 1313 l 1,12,-1
 358 1313 l 1,13,-1
 358 846 l 1,14,15
 449 989 449 989 626 989 c 0,0,1
571 778 m 0,16,17
 476 778 476 778 417 694 c 128,-1,18
 358 610 358 610 358 478 c 0,19,20
 358 339 358 339 416.5 254 c 128,-1,21
 475 169 475 169 571 169 c 0,22,23
 664 169 664 169 723 254 c 128,-1,24
 782 339 782 339 782 472 c 0,25,26
 782 607 782 607 723 692.5 c 128,-1,27
 664 778 664 778 571 778 c 0,16,17
EndSplineSet
EndChar
StartChar: c
Encoding: 99 99 69
Width: 1000
GlyphClass: 2
Flags: W
HStem: -41 204<372 635> 785 204<376 642>
VStem: 61 252<306 631>
Fore
518 785 m 0,0,1
 456 785 456 785 413 755.5 c 128,-1,2
 370 726 370 726 349.5 675 c 128,-1,3
 329 624 329 624 321 574 c 128,-1,4
 313 524 313 524 313 466 c 0,5,6
 313 324 313 324 368 243 c 128,-1,7
 423 162 423 162 518 162 c 0,8,9
 591 162 591 162 632.5 202 c 128,-1,10
 674 242 674 242 698 336 c 1,11,-1
 940 336 l 1,12,13
 923 162 923 162 808 60.5 c 128,-1,14
 693 -41 693 -41 516 -41 c 0,15,16
 300 -41 300 -41 180.5 92.5 c 128,-1,17
 61 226 61 226 61 466 c 0,18,19
 61 714 61 714 182 851.5 c 128,-1,20
 303 989 303 989 521 989 c 0,21,22
 703 989 703 989 815 887.5 c 128,-1,23
 927 786 927 786 940 608 c 1,24,-1
 698 608 l 1,25,26
 677 705 677 705 636.5 745 c 128,-1,27
 596 785 596 785 518 785 c 0,0,1
EndSplineSet
EndChar
StartChar: d
Encoding: 100 100 70
Width: 1099
GlyphClass: 2
Flags: W
HStem: -41 211<338 580> 778 211<344 581> 1277 36G<730 982>
VStem: 53 252<329 618>
Fore
461 -41 m 0,0,1
 341 -41 341 -41 247.5 28 c 128,-1,2
 154 97 154 97 103.5 213.5 c 128,-1,3
 53 330 53 330 53 472 c 0,4,5
 53 617 53 617 106 735.5 c 128,-1,6
 159 854 159 854 252.5 921.5 c 128,-1,7
 346 989 346 989 461 989 c 0,8,9
 636 989 636 989 730 846 c 1,10,-1
 730 1313 l 1,11,-1
 982 1313 l 1,12,-1
 982 0 l 1,13,-1
 730 0 l 1,14,-1
 730 98 l 1,15,16
 635 -41 635 -41 461 -41 c 0,0,1
516 778 m 0,17,18
 422 778 422 778 363.5 692.5 c 128,-1,19
 305 607 305 607 305 472 c 0,20,21
 305 338 305 338 363.5 253.5 c 128,-1,22
 422 169 422 169 516 169 c 0,23,24
 611 169 611 169 670.5 252.5 c 128,-1,25
 730 336 730 336 730 468 c 0,26,27
 730 607 730 607 671 692.5 c 128,-1,28
 612 778 612 778 516 778 c 0,17,18
EndSplineSet
EndChar
StartChar: e
Encoding: 101 101 71
Width: 1000
GlyphClass: 2
Flags: W
HStem: -41 192<347 593> 407 168<292 943> 796 192<350 587>
Fore
490 989 m 0,0,1
 553 989 553 989 612.5 975 c 128,-1,2
 672 961 672 961 734 923 c 128,-1,3
 796 885 796 885 842 826.5 c 128,-1,4
 888 768 888 768 917 671 c 128,-1,5
 946 574 946 574 946 450 c 0,6,7
 946 428 946 428 943 407 c 1,8,-1
 292 407 l 1,9,10
 295 350 295 350 303 310.5 c 128,-1,11
 311 271 311 271 331 231.5 c 128,-1,12
 351 192 351 192 391.5 171.5 c 128,-1,13
 432 151 432 151 493 151 c 0,14,15
 562 151 562 151 612.5 183.5 c 128,-1,16
 663 216 663 216 686 274 c 1,17,-1
 934 274 l 1,18,19
 892 131 892 131 770 45 c 128,-1,20
 648 -41 648 -41 485 -41 c 0,21,22
 278 -41 278 -41 159 93 c 128,-1,23
 40 227 40 227 40 461 c 0,24,25
 40 706 40 706 160.5 847.5 c 128,-1,26
 281 989 281 989 490 989 c 0,0,1
682 574 m 1,27,28
 674 681 674 681 623.5 738.5 c 128,-1,29
 573 796 573 796 486 796 c 0,30,31
 320 796 320 796 295 574 c 1,32,-1
 682 574 l 1,27,28
EndSplineSet
EndChar
StartChar: f
Encoding: 102 102 72
Width: 598
GlyphClass: 2
Flags: W
HStem: 0 38G<162 414> 785 168<25 162 414 564> 1277 36G<326 427>
Fore
564 953 m 1,0,-1
 564 785 l 1,1,-1
 414 785 l 1,2,-1
 414 0 l 1,3,-1
 162 0 l 1,4,-1
 162 785 l 1,5,-1
 25 785 l 1,6,-1
 25 953 l 1,7,-1
 162 953 l 1,8,-1
 162 1069 l 2,9,10
 162 1193 162 1193 223 1253 c 128,-1,11
 284 1313 284 1313 410 1313 c 0,12,13
 462 1313 462 1313 554 1307 c 1,14,-1
 554 1118 l 1,15,16
 519 1123 519 1123 482 1123 c 0,17,18
 414 1123 414 1123 414 1048 c 2,19,-1
 414 953 l 1,20,-1
 564 953 l 1,0,-1
EndSplineSet
EndChar
StartChar: g
Encoding: 103 103 73
Width: 1099
GlyphClass: 2
Flags: W
HStem: -392 162<383 658> -41 211<340 581> 778 211<349 581>
VStem: 61 252<312 613> 738 235<-146 557>
Fore
734 972 m 1,0,-1
 974 972 l 1,1,-1
 974 -32 l 2,2,3
 974 -204 974 -204 852.5 -298 c 128,-1,4
 731 -392 731 -392 511 -392 c 0,5,6
 318 -392 318 -392 200.5 -318 c 128,-1,7
 83 -244 83 -244 82 -118 c 1,8,-1
 342 -118 l 1,9,10
 373 -230 373 -230 521 -230 c 0,11,12
 615 -230 615 -230 674.5 -175 c 128,-1,13
 734 -120 734 -120 734 -32 c 2,14,-1
 734 98 l 1,15,16
 664 20 664 20 604 -10.5 c 128,-1,17
 544 -41 544 -41 458 -41 c 0,18,19
 280 -41 280 -41 170.5 97.5 c 128,-1,20
 61 236 61 236 61 463 c 0,21,22
 61 688 61 688 176.5 838.5 c 128,-1,23
 292 989 292 989 464 989 c 0,24,25
 548 989 548 989 613 949 c 128,-1,26
 678 909 678 909 734 823 c 1,27,-1
 734 972 l 1,0,-1
518 778 m 0,28,29
 427 778 427 778 370 691 c 128,-1,30
 313 604 313 604 313 466 c 0,31,32
 313 334 313 334 369.5 251.5 c 128,-1,33
 426 169 426 169 515 169 c 0,34,35
 613 169 613 169 675.5 251.5 c 128,-1,36
 738 334 738 334 738 466 c 0,37,38
 738 601 738 601 675.5 689.5 c 128,-1,39
 613 778 613 778 518 778 c 0,28,29
EndSplineSet
EndChar
StartChar: h
Encoding: 104 104 74
Width: 1099
GlyphClass: 2
Flags: W
HStem: 0 38G<120 372 722 974> 774 214<510 726> 1277 36G<120 372>
VStem: 722 252<0 787>
Fore
722 594 m 2,0,1
 722 774 722 774 566 774 c 0,2,3
 482 774 482 774 427 720.5 c 128,-1,4
 372 667 372 667 372 583 c 2,5,-1
 372 0 l 1,6,-1
 120 0 l 1,7,-1
 120 1313 l 1,8,-1
 372 1313 l 1,9,-1
 372 832 l 1,10,11
 477 989 477 989 658 989 c 0,12,13
 703 989 703 989 744.5 980 c 128,-1,14
 786 971 786 971 828.5 947.5 c 128,-1,15
 871 924 871 924 902.5 887.5 c 128,-1,16
 934 851 934 851 954 790.5 c 128,-1,17
 974 730 974 730 974 652 c 2,18,-1
 974 0 l 1,19,-1
 722 0 l 1,20,-1
 722 594 l 2,0,1
EndSplineSet
EndChar
StartChar: i
Encoding: 105 105 75
Width: 500
GlyphClass: 2
Flags: W
HStem: 0 38<120 372> 936 36<120 372> 1277 36G<120 372>
Fore
372 1313 m 1,0,-1
 372 1087 l 1,1,-1
 120 1087 l 1,2,-1
 120 1313 l 1,3,-1
 372 1313 l 1,0,-1
EndSplineSet
Refer: 201 305 N 1 0 0 1 0 0 0
EndChar
StartChar: j
Encoding: 106 106 76
Width: 500
GlyphClass: 2
Flags: W
HStem: 936 36<126 378> 1277 36G<126 378>
VStem: 126 252<-248 972 -169 972>
Fore
378 972 m 1,0,-1
 378 -169 l 2,1,2
 378 -288 378 -288 326 -340 c 128,-1,3
 274 -392 274 -392 156 -392 c 0,4,5
 89 -392 89 -392 7 -384 c 1,6,-1
 7 -182 l 1,7,8
 36 -190 36 -190 53 -190 c 0,9,10
 93 -190 93 -190 109.5 -172.5 c 128,-1,11
 126 -155 126 -155 126 -113 c 2,12,-1
 126 972 l 1,13,-1
 378 972 l 1,0,-1
378 1313 m 1,0,-1
 378 1087 l 1,1,-1
 126 1087 l 1,2,-1
 126 1313 l 1,3,-1
 378 1313 l 1,0,-1
EndSplineSet
EndChar
StartChar: k
Encoding: 107 107 77
Width: 1000
GlyphClass: 2
Flags: W
HStem: 0 38G<106 358 691 986> 936 36G<677 962> 1277 36G<106 358>
Fore
358 594 m 1,0,-1
 677 972 l 1,1,-1
 962 972 l 1,2,-1
 631 605 l 1,3,-1
 986 0 l 1,4,-1
 691 0 l 1,5,-1
 458 428 l 1,6,-1
 358 319 l 1,7,-1
 358 0 l 1,8,-1
 106 0 l 1,9,-1
 106 1313 l 1,10,-1
 358 1313 l 1,11,-1
 358 594 l 1,0,-1
EndSplineSet
EndChar
StartChar: l
Encoding: 108 108 78
Width: 500
GlyphClass: 2
Flags: W
HStem: 0 38G<120 372> 1277 36G<120 372>
Fore
372 1313 m 5,0,-1
 372 0 l 1,1,-1
 120 0 l 1,2,-1
 120 1313 l 1,3,-1
 372 1313 l 5,0,-1
EndSplineSet
EndChar
StartChar: m
Encoding: 109 109 79
Width: 1599
GlyphClass: 2
Flags: W
HStem: 0 38G<108 360 670 922 1231 1483> 774 214<479 685 1040 1271>
VStem: 670 252<0 686> 1231 252<0 782>
Fore
108 972 m 1,0,-1
 358 972 l 1,1,-1
 358 852 l 1,2,3
 422 926 422 926 482 957.5 c 128,-1,4
 542 989 542 989 624 989 c 0,5,6
 715 989 715 989 784.5 951 c 128,-1,7
 854 913 854 913 889 845 c 1,8,9
 946 921 946 921 1014 955 c 128,-1,10
 1082 989 1082 989 1174 989 c 0,11,12
 1319 989 1319 989 1401 909 c 128,-1,13
 1483 829 1483 829 1483 688 c 2,14,-1
 1483 0 l 1,15,-1
 1231 0 l 1,16,-1
 1231 648 l 2,17,18
 1231 706 1231 706 1194 740 c 128,-1,19
 1157 774 1157 774 1094 774 c 0,20,21
 1013 774 1013 774 967.5 723 c 128,-1,22
 922 672 922 672 922 583 c 2,23,-1
 922 0 l 1,24,-1
 670 0 l 1,25,-1
 670 648 l 2,26,27
 670 706 670 706 633 740 c 128,-1,28
 596 774 596 774 533 774 c 0,29,30
 452 774 452 774 406 723 c 128,-1,31
 360 672 360 672 360 583 c 2,32,-1
 360 0 l 1,33,-1
 108 0 l 1,34,-1
 108 972 l 1,0,-1
EndSplineSet
EndChar
StartChar: n
Encoding: 110 110 80
Width: 1099
GlyphClass: 2
Flags: W
HStem: 0 38G<113 365 731 983> 774 214<508 761>
VStem: 731 252<0 758>
Fore
113 972 m 1,0,-1
 365 972 l 1,1,-1
 365 832 l 1,2,3
 419 913 419 913 489 951 c 128,-1,4
 559 989 559 989 658 989 c 0,5,6
 813 989 813 989 898 900.5 c 128,-1,7
 983 812 983 812 983 652 c 2,8,-1
 983 0 l 1,9,-1
 731 0 l 1,10,-1
 731 600 l 2,11,12
 731 774 731 774 569 774 c 0,13,14
 477 774 477 774 421 721.5 c 128,-1,15
 365 669 365 669 365 583 c 2,16,-1
 365 0 l 1,17,-1
 113 0 l 1,18,-1
 113 972 l 1,0,-1
EndSplineSet
EndChar
StartChar: o
Encoding: 111 111 81
Width: 1099
GlyphClass: 2
Flags: W
HStem: -41 204<394 691> 785 204<394 694>
VStem: 62 252<313 632> 773 252<311 631>
Fore
542 989 m 4,0,1
 770 989 770 989 897.5 851 c 128,-1,2
 1025 713 1025 713 1025 466 c 0,3,4
 1025 233 1025 233 895 96 c 128,-1,5
 765 -41 765 -41 544 -41 c 0,6,7
 320 -41 320 -41 191 96.5 c 128,-1,8
 62 234 62 234 62 473 c 128,-1,9
 62 712 62 712 190.5 850.5 c 128,-1,10
 319 989 319 989 542 989 c 4,0,1
544 785 m 4,11,12
 441 785 441 785 377.5 698.5 c 128,-1,13
 314 612 314 612 314 473 c 128,-1,14
 314 334 314 334 377.5 248 c 128,-1,15
 441 162 441 162 544 162 c 0,16,17
 645 162 645 162 709 248 c 128,-1,18
 773 334 773 334 773 470 c 0,19,20
 773 612 773 612 710.5 698.5 c 128,-1,21
 648 785 648 785 544 785 c 4,11,12
EndSplineSet
EndChar
StartChar: p
Encoding: 112 112 82
Width: 1099
GlyphClass: 2
Flags: W
HStem: -43 211<506 744> 778 211<506 752>
VStem: 781 252<324 614>
Fore
626 989 m 0,0,1
 749 989 749 989 842.5 919 c 128,-1,2
 936 849 936 849 984.5 732.5 c 128,-1,3
 1033 616 1033 616 1033 472 c 0,4,5
 1033 250 1033 250 917 103.5 c 128,-1,6
 801 -43 801 -43 626 -43 c 0,7,8
 447 -43 447 -43 356 115 c 1,9,-1
 356 -392 l 1,10,-1
 104 -392 l 1,11,-1
 104 972 l 1,12,-1
 356 972 l 1,13,-1
 356 828 l 1,14,15
 448 989 448 989 626 989 c 0,0,1
569 778 m 0,16,17
 475 778 475 778 415.5 693 c 128,-1,18
 356 608 356 608 356 472 c 128,-1,19
 356 336 356 336 415 252 c 128,-1,20
 474 168 474 168 569 168 c 0,21,22
 663 168 663 168 722 252 c 128,-1,23
 781 336 781 336 781 468 c 0,24,25
 781 607 781 607 722.5 692.5 c 128,-1,26
 664 778 664 778 569 778 c 0,16,17
EndSplineSet
EndChar
StartChar: q
Encoding: 113 113 83
Width: 1099
GlyphClass: 2
Flags: W
HStem: -43 211<334 578> 778 211<341 578>
VStem: 50 252<324 620>
Fore
456 -43 m 0,0,1
 275 -43 275 -43 162.5 102.5 c 0,2,3
 50 248 50 248 50 472 c 0,4,5
 50 694 50 694 166 841.5 c 0,6,7
 282 989 282 989 457 989 c 0,8,9
 636 989 636 989 727 828 c 1,10,-1
 727 972 l 1,11,-1
 979 972 l 1,12,-1
 979 -392 l 1,13,-1
 727 -392 l 1,14,-1
 727 115 l 1,15,16
 637 -43 637 -43 456 -43 c 0,0,1
515 778 m 0,13,14
 421 778 421 778 361.5 693 c 0,15,16
 302 608 302 608 302 472 c 0,17,18
 302 336 302 336 361 252 c 0,19,20
 420 168 420 168 515 168 c 0,21,22
 609 168 609 168 668 251 c 0,23,24
 727 334 727 334 727 466 c 0,25,26
 727 608 727 608 669 693 c 0,27,28
 611 778 611 778 515 778 c 0,13,14
EndSplineSet
EndChar
StartChar: r
Encoding: 114 114 84
Width: 699
GlyphClass: 2
Flags: W
HStem: 0 38G<113 365> 936 36G<113 365>
Fore
113 972 m 1,0,-1
 365 972 l 1,1,-1
 365 781 l 1,2,3
 406 879 406 879 478 934 c 128,-1,4
 550 989 550 989 636 989 c 0,5,6
 652 989 652 989 666 986 c 1,7,-1
 666 731 l 1,8,9
 625 738 625 738 587 738 c 0,10,11
 365 738 365 738 365 516 c 2,12,-1
 365 0 l 1,13,-1
 113 0 l 1,14,-1
 113 972 l 1,0,-1
EndSplineSet
EndChar
StartChar: s
Encoding: 115 115 85
Width: 1000
GlyphClass: 2
Flags: W
HStem: -41 198<364 682> 790 198<362 617>
VStem: 86 252<569 764> 684 252<221 350>
Fore
299 283 m 1,0,1
 305 253 305 253 314 234 c 128,-1,2
 323 215 323 215 343 195 c 128,-1,3
 363 175 363 175 401.5 165.5 c 128,-1,4
 440 156 440 156 497 156 c 0,5,6
 585 156 585 156 634.5 181.5 c 128,-1,7
 684 207 684 207 684 252 c 0,8,9
 684 282 684 282 665.5 299.5 c 128,-1,10
 647 317 647 317 600 331 c 2,11,-1
 299 425 l 2,12,13
 281 433 281 433 255 438.5 c 128,-1,14
 229 444 229 444 199.5 462 c 128,-1,15
 170 480 170 480 144.5 502.5 c 128,-1,16
 119 525 119 525 102.5 568 c 128,-1,17
 86 611 86 611 86 665 c 0,18,19
 86 814 86 814 194 901.5 c 128,-1,20
 302 989 302 989 486 989 c 0,21,22
 681 989 681 989 793.5 901 c 128,-1,23
 906 813 906 813 910 659 c 1,24,-1
 666 659 l 1,25,26
 664 790 664 790 485 790 c 0,27,28
 419 790 419 790 378.5 765.5 c 128,-1,29
 338 741 338 741 338 701 c 0,30,31
 338 671 338 671 355.5 656 c 128,-1,32
 373 641 373 641 427 624 c 2,33,-1
 745 533 l 2,34,35
 936 475 936 475 936 288 c 0,36,37
 936 244 936 244 925 202 c 128,-1,38
 914 160 914 160 884 114.5 c 128,-1,39
 854 69 854 69 808 35.5 c 128,-1,40
 762 2 762 2 685.5 -19.5 c 128,-1,41
 609 -41 609 -41 511 -41 c 0,42,43
 290 -41 290 -41 174 41 c 128,-1,44
 58 123 58 123 53 283 c 1,45,-1
 299 283 l 1,0,1
EndSplineSet
EndChar
StartChar: t
Encoding: 116 116 86
Width: 598
GlyphClass: 2
Flags: W
HStem: -41 38G<313 424> 785 168<25 149 401 542>
Fore
542 953 m 1,0,-1
 542 785 l 1,1,-1
 401 785 l 1,2,-1
 401 256 l 2,3,4
 401 191 401 191 417.5 170 c 128,-1,5
 434 149 434 149 485 149 c 0,6,7
 503 149 503 149 542 155 c 1,8,-1
 542 -22 l 1,9,10
 481 -41 481 -41 396 -41 c 0,11,12
 149 -41 149 -41 149 187 c 2,13,-1
 149 785 l 1,14,-1
 25 785 l 1,15,-1
 25 953 l 1,16,-1
 149 953 l 1,17,-1
 149 1213 l 1,18,-1
 401 1213 l 1,19,-1
 401 953 l 1,20,-1
 542 953 l 1,0,-1
EndSplineSet
EndChar
StartChar: u
Encoding: 117 117 87
Width: 1099
GlyphClass: 2
Flags: W
HStem: -41 214<326 580> 936 36G<104 356 722 974>
VStem: 104 252<188 972>
Fore
974 0 m 1,0,-1
 722 0 l 1,1,-1
 722 115 l 1,2,3
 668 34 668 34 598.5 -3.5 c 128,-1,4
 529 -41 529 -41 430 -41 c 0,5,6
 275 -41 275 -41 189.5 47 c 128,-1,7
 104 135 104 135 104 295 c 2,8,-1
 104 972 l 1,9,-1
 356 972 l 1,10,-1
 356 348 l 2,11,12
 356 173 356 173 518 173 c 0,13,14
 610 173 610 173 666 225 c 128,-1,15
 722 277 722 277 722 364 c 2,16,-1
 722 972 l 1,17,-1
 974 972 l 1,18,-1
 974 0 l 1,0,-1
EndSplineSet
EndChar
StartChar: v
Encoding: 118 118 88
Width: 1000
GlyphClass: 2
Flags: W
HStem: 0 38G<365 630> 936 36G<25 292 698 965>
Fore
630 0 m 1,0,-1
 365 0 l 1,1,-1
 25 972 l 1,2,-1
 292 972 l 1,3,-1
 502 262 l 1,4,-1
 698 972 l 1,5,-1
 965 972 l 1,6,-1
 630 0 l 1,0,-1
EndSplineSet
EndChar
StartChar: w
Encoding: 119 119 89
Width: 1400
GlyphClass: 2
Flags: W
HStem: 0 38G<283 542 842 1104> 936 36G<10 270 572 824 1118 1379>
Fore
1104 0 m 1,0,-1
 842 0 l 1,1,-1
 696 686 l 1,2,-1
 542 0 l 1,3,-1
 283 0 l 1,4,-1
 10 972 l 1,5,-1
 270 972 l 1,6,-1
 425 292 l 1,7,-1
 572 972 l 1,8,-1
 824 972 l 1,9,-1
 970 292 l 1,10,-1
 1118 972 l 1,11,-1
 1379 972 l 1,12,-1
 1104 0 l 1,0,-1
EndSplineSet
EndChar
StartChar: x
Encoding: 120 120 90
Width: 1000
GlyphClass: 2
Flags: W
HStem: 0 38G<29 331 660 962> 936 36G<36 338 653 955>
Fore
638 490 m 1,0,-1
 962 0 l 1,1,-1
 660 0 l 1,2,-1
 497 302 l 1,3,-1
 331 0 l 1,4,-1
 29 0 l 1,5,-1
 353 490 l 1,6,-1
 36 972 l 1,7,-1
 338 972 l 1,8,-1
 497 679 l 1,9,-1
 653 972 l 1,10,-1
 955 972 l 1,11,-1
 638 490 l 1,0,-1
EndSplineSet
EndChar
StartChar: y
Encoding: 121 121 91
Width: 1000
GlyphClass: 2
Flags: W
HStem: -394 185<211 383> 936 36G<17 293 709 968>
Fore
378 -47 m 2,0,-1
 378 -40 l 1,1,-1
 17 972 l 1,2,-1
 293 972 l 1,3,-1
 508 264 l 1,4,-1
 709 972 l 1,5,-1
 968 972 l 1,6,-1
 569 -178 l 2,7,8
 568 -181 568 -181 561 -202.5 c 128,-1,9
 554 -224 554 -224 550 -233 c 128,-1,10
 546 -242 546 -242 536 -263.5 c 128,-1,11
 526 -285 526 -285 514.5 -296.5 c 128,-1,12
 503 -308 503 -308 486 -325.5 c 128,-1,13
 469 -343 469 -343 446 -353 c 128,-1,14
 423 -363 423 -363 394.5 -374 c 128,-1,15
 366 -385 366 -385 328 -389.5 c 128,-1,16
 290 -394 290 -394 245 -394 c 0,17,18
 204 -394 204 -394 155 -386 c 1,19,-1
 155 -198 l 1,20,21
 199 -209 199 -209 221 -209 c 0,22,23
 288 -209 288 -209 333 -162.5 c 128,-1,24
 378 -116 378 -116 378 -47 c 2,0,-1
EndSplineSet
EndChar
StartChar: z
Encoding: 122 122 92
Width: 900
GlyphClass: 2
Flags: W
HStem: 0 204<38 842> 768 204<70 826>
Fore
826 972 m 1,0,-1
 826 768 l 1,1,-1
 349 204 l 1,2,-1
 842 204 l 1,3,-1
 842 0 l 1,4,-1
 38 0 l 1,5,-1
 38 204 l 1,6,-1
 518 768 l 1,7,-1
 70 768 l 1,8,-1
 70 972 l 1,9,-1
 826 972 l 1,0,-1
EndSplineSet
EndChar
StartChar: braceleft
Encoding: 123 123 93
Width: 699
GlyphClass: 2
Flags: W
HStem: -360 178<370 571 434 571> 400 168<67 128> 1134 178<370 571>
Fore
212 270 m 2,0,1
 212 350 212 350 184.5 375 c 0,2,3
 157 400 157 400 74 400 c 1,4,-1
 67 401 l 1,5,-1
 67 566 l 1,6,-1
 96 566 l 2,7,8
 156 568 156 568 184 595 c 0,9,10
 212 622 212 622 212 680 c 2,11,-1
 212 1061 l 2,12,13
 212 1171 212 1171 274.5 1242 c 0,14,15
 337 1313 337 1313 434 1313 c 2,16,-1
 571 1313 l 1,17,-1
 571 1134 l 1,18,-1
 504 1134 l 2,19,20
 462 1134 462 1134 442 1109.5 c 0,21,22
 422 1085 422 1085 422 1032 c 2,23,-1
 422 680 l 2,24,25
 422 582 422 582 385.5 540.5 c 0,26,27
 349 499 349 499 248 485 c 1,28,29
 350 469 350 469 386 427 c 0,30,31
 422 385 422 385 422 286 c 2,32,-1
 422 -65 l 2,33,34
 422 -131 422 -131 440 -156.5 c 0,35,36
 458 -182 458 -182 504 -182 c 2,37,-1
 571 -182 l 1,38,-1
 571 -360 l 1,39,-1
 434 -360 l 2,40,41
 337 -360 337 -360 274.5 -289.5 c 0,42,43
 212 -219 212 -219 212 -108 c 2,44,-1
 212 270 l 2,0,1
EndSplineSet
EndChar
StartChar: bar
Encoding: 124 124 94
Width: 504
GlyphClass: 2
Flags: W
HStem: 1277 36G<180 324>
VStem: 180 144<-360 1313>
Fore
324 1313 m 1,0,-1
 324 -360 l 1,1,-1
 180 -360 l 1,2,-1
 180 1313 l 1,3,-1
 324 1313 l 1,0,-1
EndSplineSet
EndChar
StartChar: braceright
Encoding: 125 125 95
Width: 699
GlyphClass: 2
Flags: W
HStem: -360 178<130 331> 385 168<571 634> 1134 178<130 331>
Fore
487 682 m 2,0,1
 487 603 487 603 515 577.5 c 0,2,3
 543 552 543 552 626 552 c 2,4,-1
 634 551 l 1,5,-1
 634 385 l 1,6,-1
 605 385 l 2,7,8
 544 384 544 384 515.5 357 c 0,9,10
 487 330 487 330 487 271 c 2,11,-1
 487 -108 l 2,12,13
 487 -219 487 -219 425 -289.5 c 0,14,15
 363 -360 363 -360 266 -360 c 2,16,-1
 130 -360 l 1,17,-1
 130 -182 l 1,18,-1
 197 -182 l 2,19,20
 238 -182 238 -182 257.5 -157.5 c 0,21,22
 277 -133 277 -133 277 -79 c 2,23,-1
 277 271 l 2,24,25
 277 370 277 370 314 412 c 0,26,27
 351 454 351 454 451 468 c 1,28,29
 350 485 350 485 313.5 526.5 c 0,30,31
 277 568 277 568 277 666 c 2,32,-1
 277 1018 l 2,33,34
 277 1083 277 1083 259.5 1108.5 c 0,35,36
 242 1134 242 1134 197 1134 c 2,37,-1
 130 1134 l 1,38,-1
 130 1313 l 1,39,-1
 266 1313 l 2,40,41
 363 1313 363 1313 425 1242 c 0,42,43
 487 1171 487 1171 487 1061 c 2,44,-1
 487 682 l 2,0,1
EndSplineSet
EndChar
StartChar: asciitilde
Encoding: 126 126 96
Width: 1051
GlyphClass: 2
Flags: W
HStem: 256 144<676 778> 421 144<265 366>
Fore
698 400 m 0,0,1
 757 400 757 400 774.5 428 c 0,2,3
 792 456 792 456 794 518 c 1,4,-1
 934 518 l 1,5,6
 919 256 919 256 706 256 c 0,7,8
 622 256 622 256 557 302 c 2,9,-1
 454 378 l 2,10,11
 395 421 395 421 343 421 c 0,12,13
 287 421 287 421 269 394 c 0,14,15
 251 367 251 367 248 305 c 1,16,-1
 108 305 l 1,17,18
 123 565 123 565 336 565 c 0,19,20
 423 565 423 565 486 521 c 2,21,-1
 588 444 l 2,22,23
 624 418 624 418 647 409 c 0,24,25
 670 400 670 400 698 400 c 0,0,1
EndSplineSet
EndChar
StartChar: cent
Encoding: 162 162 99
Width: 1000
GlyphClass: 2
Flags: W
VStem: 65 252<317 622> 466 79<-223 -40 163 782 986 1141>
Fore
545 782 m 1,0,-1
 545 163 l 1,1,2
 608 173 608 173 643 213.5 c 0,3,4
 678 254 678 254 698 336 c 1,5,-1
 940 336 l 1,6,7
 924 174 924 174 815 70 c 0,8,9
 706 -34 706 -34 545 -41 c 1,10,-1
 545 -223 l 1,11,-1
 466 -223 l 1,12,-1
 466 -40 l 1,13,14
 279 -28 279 -28 172 107 c 0,15,16
 65 242 65 242 65 466 c 0,17,18
 65 698 65 698 168 832.5 c 0,19,20
 271 967 271 967 466 986 c 1,21,-1
 466 1141 l 1,22,-1
 545 1141 l 1,23,-1
 545 989 l 1,24,25
 712 985 712 985 820.5 880.5 c 0,26,27
 929 776 929 776 940 608 c 1,28,-1
 698 608 l 1,29,30
 680 692 680 692 644.5 732.5 c 0,31,32
 609 773 609 773 545 782 c 1,0,-1
466 169 m 1,21,-1
 466 780 l 1,22,23
 394 760 394 760 355.5 680.5 c 0,24,25
 317 601 317 601 317 468 c 0,26,27
 317 214 317 214 466 169 c 1,21,-1
EndSplineSet
EndChar
StartChar: sterling
Encoding: 163 163 100
Width: 1000
GlyphClass: 2
Flags: W
HStem: -41 38G<643 750> 17 205<317 516> 569 98<55 216 425 674> 1087 199<362 685>
VStem: 68 254<889 1026>
Fore
322 924 m 0,0,1
 322 894 322 894 337.5 856 c 0,2,3
 353 818 353 818 381.5 762 c 0,4,5
 410 706 410 706 425 667 c 1,6,-1
 674 667 l 1,7,-1
 674 569 l 1,8,-1
 456 569 l 1,9,10
 482 513 482 513 482 463 c 0,11,12
 482 384 482 384 435.5 315 c 0,13,14
 389 246 389 246 274 155 c 1,15,16
 358 196 358 196 396.5 208.5 c 0,17,18
 435 221 435 221 475 221 c 0,19,20
 516 221 516 221 587 202.5 c 0,21,22
 658 184 658 184 703 184 c 0,23,24
 791 184 791 184 893 235 c 1,25,-1
 967 40 l 1,26,27
 891 -4 891 -4 831.5 -22.5 c 0,28,29
 772 -41 772 -41 706 -41 c 0,30,31
 643 -41 643 -41 528.5 -12 c 0,32,33
 414 17 414 17 350 17 c 0,34,35
 301 17 301 17 258 5 c 0,36,37
 215 -7 215 -7 155 -38 c 1,38,-1
 55 144 l 1,39,40
 168 221 168 221 211 279.5 c 0,41,42
 254 338 254 338 254 415 c 0,43,44
 254 477 254 477 216 569 c 1,45,-1
 55 569 l 1,46,-1
 55 667 l 1,47,-1
 163 667 l 1,48,49
 103 775 103 775 85.5 822.5 c 0,50,51
 68 870 68 870 68 929 c 0,52,53
 68 1080 68 1080 184.5 1183 c 0,54,55
 301 1286 301 1286 497 1286 c 0,56,57
 575 1286 575 1286 639 1271.5 c 0,58,59
 703 1257 703 1257 747 1234.5 c 0,60,61
 791 1212 791 1212 825 1177 c 0,62,63
 859 1142 859 1142 878.5 1108 c 0,64,65
 898 1074 898 1074 911.5 1029 c 0,66,67
 925 984 925 984 930.5 949.5 c 0,68,69
 936 915 936 915 940 871 c 1,70,-1
 702 871 l 1,71,-1
 701 890 l 2,72,73
 695 928 695 928 686 956.5 c 0,74,75
 677 985 677 985 656.5 1018 c 0,76,77
 636 1051 636 1051 596 1069 c 0,78,79
 556 1087 556 1087 499 1087 c 0,80,81
 422 1087 422 1087 372 1041 c 0,82,83
 322 995 322 995 322 924 c 0,0,1
EndSplineSet
EndChar
StartChar: currency
Encoding: 164 164 101
Width: 1000
GlyphClass: 2
Flags: W
HStem: 264 176<449 556> 828 176<450 557>
VStem: 137 173<581 689> 695 173<581 688>
Fore
698 950 m 1,0,-1
 830 1082 l 1,1,-1
 954 958 l 1,2,-1
 818 823 l 1,3,4
 846 767 846 767 857 727 c 0,5,6
 868 687 868 687 868 637 c 0,7,8
 868 534 868 534 816 443 c 1,9,-1
 954 306 l 1,10,-1
 830 184 l 1,11,-1
 695 319 l 1,12,13
 633 285 633 285 598.5 274.5 c 0,14,15
 564 264 564 264 515 264 c 0,16,17
 461 264 461 264 405.5 279.5 c 0,18,19
 350 295 350 295 314 320 c 1,20,-1
 173 180 l 1,21,-1
 50 305 l 1,22,-1
 191 443 l 1,23,24
 137 540 137 540 137 634 c 0,25,26
 137 740 137 740 190 823 c 1,27,-1
 47 965 l 1,28,-1
 170 1087 l 1,29,-1
 310 948 l 1,30,31
 398 1004 398 1004 506 1004 c 0,32,33
 613 1004 613 1004 698 950 c 1,0,-1
504 828 m 0,28,29
 423 828 423 828 366.5 772 c 0,30,31
 310 716 310 716 310 634 c 0,32,33
 310 554 310 554 366 498 c 0,34,35
 422 442 422 442 502 442 c 0,36,37
 582 442 582 442 638.5 498.5 c 0,38,39
 695 555 695 555 695 636 c 0,40,41
 695 714 695 714 638.5 771 c 0,42,43
 582 828 582 828 504 828 c 0,28,29
EndSplineSet
EndChar
StartChar: yen
Encoding: 165 165 102
Width: 1000
GlyphClass: 2
Flags: W
HStem: 0 38G<386 638> 324 106<126 386 638 895> 526 106<126 386 638 895> 1231 36G<10 259 751 994>
Fore
895 631 m 1,0,-1
 895 526 l 1,1,-1
 638 526 l 1,2,-1
 638 430 l 1,3,-1
 895 430 l 1,4,-1
 895 324 l 1,5,-1
 638 324 l 1,6,-1
 638 0 l 1,7,-1
 386 0 l 1,8,-1
 386 324 l 1,9,-1
 126 324 l 1,10,-1
 126 430 l 1,11,-1
 386 430 l 1,12,-1
 386 526 l 1,13,-1
 126 526 l 1,14,-1
 126 631 l 1,15,-1
 374 631 l 1,16,-1
 10 1267 l 1,17,-1
 259 1267 l 1,18,-1
 509 810 l 1,19,-1
 751 1267 l 1,20,-1
 994 1267 l 1,21,-1
 648 631 l 1,22,-1
 895 631 l 1,0,-1
EndSplineSet
EndChar
StartChar: brokenbar
Encoding: 166 166 103
Width: 504
GlyphClass: 2
Flags: W
HStem: 1277 36G<180 324>
VStem: 180 144<-360 341 612 1313>
Fore
324 1313 m 1,0,-1
 324 612 l 1,1,-1
 180 612 l 1,2,-1
 180 1313 l 1,3,-1
 324 1313 l 1,0,-1
324 341 m 1,4,-1
 324 -360 l 1,5,-1
 180 -360 l 1,6,-1
 180 341 l 1,7,-1
 324 341 l 1,4,-1
EndSplineSet
EndChar
StartChar: section
Encoding: 167 167 104
Width: 1000
GlyphClass: 2
Flags: W
HStem: -362 199<372 614> -36 36G<118 353> 979 38G<623 852> 1118 184<383 570>
VStem: 60 214<456 596> 115 252<929 1082> 636 254<-120 34> 716 216<397 533>
Fore
226 770 m 1,0,1
 215 783 215 783 201 795 c 0,2,3
 187 807 187 807 171.5 827.5 c 0,4,5
 156 848 156 848 143.5 869.5 c 0,6,7
 131 891 131 891 123 923 c 0,8,9
 115 955 115 955 115 991 c 0,10,11
 115 1126 115 1126 221.5 1213.5 c 0,12,13
 328 1301 328 1301 492 1301 c 0,14,15
 543 1301 543 1301 588.5 1293.5 c 0,16,17
 634 1286 634 1286 682.5 1264.5 c 0,18,19
 731 1243 731 1243 765.5 1208.5 c 0,20,21
 800 1174 800 1174 824.5 1115.5 c 0,22,23
 849 1057 849 1057 852 979 c 1,24,-1
 623 979 l 1,25,26
 613 1051 613 1051 579 1084.5 c 0,27,28
 545 1118 545 1118 482 1118 c 0,29,30
 431 1118 431 1118 399 1093 c 0,31,32
 367 1068 367 1068 367 1026 c 0,33,34
 367 988 367 988 400.5 956.5 c 0,35,36
 434 925 434 925 529 874 c 2,37,-1
 758 746 l 2,38,39
 932 649 932 649 932 472 c 0,40,41
 932 381 932 381 892.5 322.5 c 0,42,43
 853 264 853 264 763 223 c 1,44,45
 889 133 889 133 889 -18 c 0,46,47
 889 -172 889 -172 780.5 -267 c 0,48,49
 672 -362 672 -362 497 -362 c 0,50,51
 120 -362 120 -362 118 0 c 1,52,-1
 353 0 l 1,53,-1
 353 -18 l 2,54,55
 357 -89 357 -89 388.5 -125.5 c 0,56,57
 420 -162 420 -162 499 -162 c 0,58,59
 560 -162 560 -162 598 -132 c 0,60,61
 636 -102 636 -102 636 -53 c 0,62,63
 636 -30 636 -30 629 -11.5 c 0,64,65
 622 7 622 7 610 20.5 c 0,66,67
 598 34 598 34 582 46 c 0,68,69
 566 58 566 58 547.5 68 c 0,70,71
 529 78 529 78 509 89 c 2,72,-1
 202 269 l 2,73,74
 133 309 133 309 96.5 370 c 0,75,76
 60 431 60 431 60 506 c 0,77,78
 60 587 60 587 94.5 642 c 0,79,80
 129 697 129 697 226 770 c 1,0,1
607 551 m 2,37,-1
 349 688 l 1,38,39
 308 663 308 663 291 636.5 c 0,40,41
 274 610 274 610 274 571 c 0,42,43
 274 529 274 529 295 502 c 0,44,45
 316 475 316 475 370 444 c 2,46,-1
 634 300 l 1,47,48
 679 332 679 332 697.5 359 c 0,49,50
 716 386 716 386 716 418 c 0,51,52
 716 461 716 461 693 489 c 0,53,54
 670 517 670 517 607 551 c 2,37,-1
EndSplineSet
EndChar
StartChar: dieresis
Encoding: 168 168 105
Width: 598
GlyphClass: 2
Flags: W
HStem: 1301 36G<32 230 367 565>
Fore
230 1337 m 1,0,-1
 230 1118 l 1,1,-1
 32 1118 l 1,2,-1
 32 1337 l 1,3,-1
 230 1337 l 1,0,-1
565 1337 m 1,4,-1
 565 1118 l 1,5,-1
 367 1118 l 1,6,-1
 367 1337 l 1,7,-1
 565 1337 l 1,4,-1
EndSplineSet
EndChar
StartChar: copyright
Encoding: 169 169 106
Width: 1326
GlyphClass: 2
Flags: W
HStem: -40 130<470 850> 230 149<545 756> 917 149<547 751> 1207 130<474 853>
VStem: -25 140<462 839> 293 166<521 776> 1212 140<457 840>
Fore
994 775 m 1,0,-1
 832 775 l 1,1,2
 816 849 816 849 776 883 c 0,3,4
 736 917 736 917 665 917 c 0,5,6
 568 917 568 917 513 845 c 0,7,8
 458 773 458 773 458 646 c 0,9,10
 458 521 458 521 511.5 450 c 0,11,12
 565 379 565 379 659 379 c 0,13,14
 736 379 736 379 780.5 419 c 0,15,16
 825 459 825 459 832 535 c 1,17,-1
 997 535 l 1,18,19
 991 394 991 394 899 312 c 0,20,21
 807 230 807 230 655 230 c 0,22,23
 489 230 489 230 391 343 c 0,24,25
 293 456 293 456 293 648 c 0,26,27
 293 841 293 841 392 953.5 c 0,28,29
 491 1066 491 1066 660 1066 c 0,30,31
 801 1066 801 1066 892 990.5 c 0,32,33
 983 915 983 915 994 775 c 1,0,-1
665 1337 m 0,18,19
 804 1337 804 1337 931 1282.5 c 0,20,21
 1058 1228 1058 1228 1150 1136.5 c 0,22,23
 1242 1045 1242 1045 1296.5 917.5 c 0,24,25
 1351 790 1351 790 1351 650 c 0,26,27
 1351 508 1351 508 1296.5 380 c 0,28,29
 1242 252 1242 252 1149 160 c 0,30,31
 1056 68 1056 68 927 14 c 0,32,33
 798 -40 798 -40 655 -40 c 0,34,35
 473 -40 473 -40 316 53.5 c 0,36,37
 159 147 159 147 67 306 c 0,38,39
 -25 465 -25 465 -25 650 c 0,40,41
 -25 836 -25 836 67.5 994 c 0,42,43
 160 1152 160 1152 319 1244.5 c 0,44,45
 478 1337 478 1337 665 1337 c 0,18,19
662 1207 m 0,26,27
 514 1207 514 1207 388 1132.5 c 0,28,29
 262 1058 262 1058 188.5 929.5 c 0,30,31
 115 801 115 801 115 650 c 0,32,33
 115 501 115 501 188.5 371.5 c 0,34,35
 262 242 262 242 387.5 166 c 0,36,37
 513 90 513 90 658 90 c 0,38,39
 810 90 810 90 937.5 164.5 c 0,40,41
 1065 239 1065 239 1138.5 367.5 c 0,42,43
 1212 496 1212 496 1212 650 c 0,44,45
 1212 801 1212 801 1138 929.5 c 0,46,47
 1064 1058 1064 1058 937.5 1132.5 c 0,48,49
 811 1207 811 1207 662 1207 c 0,26,27
EndSplineSet
EndChar
StartChar: ordfeminine
Encoding: 170 170 107
Width: 666
GlyphClass: 2
Flags: W
HStem: 472 140<67 578> 695 122<179 328> 1190 122<238 396>
VStem: 55 151<818 924> 408 148<810 1192>
Fore
578 612 m 1,0,-1
 578 472 l 1,1,-1
 67 472 l 1,2,-1
 67 612 l 1,3,-1
 578 612 l 1,0,-1
593 738 m 1,4,-1
 593 720 l 1,5,-1
 427 720 l 1,6,7
 411 741 411 741 408 778 c 1,8,9
 331 695 331 695 233 695 c 0,10,11
 153 695 153 695 104 743.5 c 0,12,13
 55 792 55 792 55 871 c 0,14,15
 55 1028 55 1028 227 1056 c 2,16,-1
 288 1068 l 2,17,18
 307 1070 307 1070 328 1074 c 0,19,20
 349 1078 349 1078 367 1083.5 c 0,21,22
 385 1089 385 1089 396.5 1102 c 0,23,24
 408 1115 408 1115 408 1134 c 0,25,26
 408 1190 408 1190 320 1190 c 0,27,28
 266 1190 266 1190 242.5 1172.5 c 0,29,30
 219 1155 219 1155 214 1111 c 1,31,-1
 74 1111 l 1,32,33
 76 1210 76 1210 137 1261.5 c 0,34,35
 198 1313 198 1313 317 1313 c 0,36,37
 435 1313 435 1313 496 1267 c 0,38,39
 557 1221 557 1221 557 1133 c 2,40,-1
 557 810 l 2,41,42
 557 787 557 787 564.5 771.5 c 0,43,44
 572 756 572 756 593 738 c 1,4,-1
408 954 m 2,29,-1
 408 996 l 1,30,31
 389 985 389 985 346 977 c 2,32,-1
 293 967 l 2,33,34
 246 957 246 957 226 939 c 0,35,36
 206 921 206 921 206 888 c 0,37,38
 206 856 206 856 228.5 836.5 c 0,39,40
 251 817 251 817 290 817 c 0,41,42
 346 817 346 817 377 853 c 0,43,44
 408 889 408 889 408 954 c 2,29,-1
EndSplineSet
EndChar
StartChar: guillemotleft
Encoding: 171 171 108
Width: 1000
GlyphClass: 2
Flags: W
Fore
158 392 m 1,0,-1
 158 598 l 1,1,-1
 458 866 l 1,2,-1
 458 655 l 1,3,-1
 277 494 l 1,4,-1
 458 335 l 1,5,-1
 458 130 l 1,6,-1
 158 392 l 1,0,-1
542 392 m 1,7,-1
 542 598 l 1,8,-1
 842 866 l 1,9,-1
 842 655 l 1,10,-1
 660 494 l 1,11,-1
 842 335 l 1,12,-1
 842 130 l 1,13,-1
 542 392 l 1,7,-1
EndSplineSet
EndChar
StartChar: logicalnot
Encoding: 172 172 109
Width: 1051
GlyphClass: 2
Flags: W
HStem: 536 139<72 840>
VStem: 840 139<155 674>
Fore
72 674 m 1,0,-1
 979 674 l 1,1,-1
 979 155 l 1,2,-1
 840 155 l 1,3,-1
 840 536 l 1,4,-1
 72 536 l 1,5,-1
 72 674 l 1,0,-1
EndSplineSet
EndChar
StartChar: registered
Encoding: 174 174 111
Width: 1326
GlyphClass: 2
Flags: W
HStem: -40 130<470 850> 564 146<518 703> 904 146<346 842> 1207 130<474 853>
VStem: -25 140<462 839> 346 173<252 1049> 792 176<334 406> 818 173<769 900> 1212 140<457 840>
Fore
518 564 m 1,0,-1
 518 252 l 1,1,-1
 346 252 l 1,2,-1
 346 1049 l 1,3,-1
 774 1049 l 2,4,5
 877 1049 877 1049 934 991.5 c 0,6,7
 991 934 991 934 991 832 c 0,8,9
 991 698 991 698 866 637 c 1,10,11
 889 627 889 627 901.5 619 c 0,12,13
 914 611 914 611 926 602.5 c 0,14,15
 938 594 938 594 944 577.5 c 0,16,17
 950 561 950 561 955 547 c 0,18,19
 960 533 960 533 962 499.5 c 0,20,21
 964 466 964 466 965 437.5 c 0,22,23
 966 409 966 409 968 350 c 0,24,25
 968 326 968 326 975 313.5 c 0,26,27
 982 301 982 301 1003 290 c 1,28,-1
 1003 252 l 1,29,-1
 817 252 l 1,30,31
 801 282 801 282 796.5 310 c 0,32,33
 792 338 792 338 792 398 c 0,34,35
 792 405 792 405 793 420 c 0,36,37
 794 435 794 435 794 444 c 2,38,-1
 794 475 l 2,39,40
 794 521 794 521 767.5 542.5 c 0,41,42
 741 564 741 564 684 564 c 2,43,-1
 518 564 l 1,0,-1
518 709 m 1,22,-1
 703 709 l 2,23,24
 768 709 768 709 793 730 c 0,25,26
 818 751 818 751 818 806 c 0,27,28
 818 862 818 862 793 883 c 0,29,30
 768 904 768 904 703 904 c 2,31,-1
 518 904 l 1,32,-1
 518 709 l 1,22,-1
665 1337 m 0,29,30
 804 1337 804 1337 931 1282.5 c 0,31,32
 1058 1228 1058 1228 1150 1136.5 c 0,33,34
 1242 1045 1242 1045 1296.5 917.5 c 0,35,36
 1351 790 1351 790 1351 650 c 0,37,38
 1351 508 1351 508 1296.5 380 c 0,39,40
 1242 252 1242 252 1149 160 c 0,41,42
 1056 68 1056 68 927 14 c 0,43,44
 798 -40 798 -40 655 -40 c 0,45,46
 473 -40 473 -40 316 53.5 c 0,47,48
 159 147 159 147 67 306 c 0,49,50
 -25 465 -25 465 -25 650 c 0,51,52
 -25 836 -25 836 67.5 994 c 0,53,54
 160 1152 160 1152 319 1244.5 c 0,55,56
 478 1337 478 1337 665 1337 c 0,29,30
662 1207 m 0,37,38
 514 1207 514 1207 388 1132.5 c 0,39,40
 262 1058 262 1058 188.5 929.5 c 0,41,42
 115 801 115 801 115 650 c 0,43,44
 115 501 115 501 188.5 371.5 c 0,45,46
 262 242 262 242 387.5 166 c 0,47,48
 513 90 513 90 658 90 c 0,49,50
 810 90 810 90 937.5 164.5 c 0,51,52
 1065 239 1065 239 1138.5 367.5 c 0,53,54
 1212 496 1212 496 1212 650 c 0,55,56
 1212 801 1212 801 1138 929.5 c 0,57,58
 1064 1058 1064 1058 937.5 1132.5 c 0,59,60
 811 1207 811 1207 662 1207 c 0,37,38
EndSplineSet
EndChar
StartChar: macron
Encoding: 175 175 112
Width: 598
GlyphClass: 2
Flags: W
HStem: 1152 142<29 566>
Fore
566 1294 m 1,0,-1
 566 1152 l 1,1,-1
 29 1152 l 1,2,-1
 29 1294 l 1,3,-1
 566 1294 l 1,0,-1
EndSplineSet
EndChar
StartChar: degree
Encoding: 176 176 113
Width: 1090
GlyphClass: 2
Flags: W
HStem: 689 113<468 618> 1121 113<470 620>
VStem: 271 113<888 1038> 703 113<887 1038>
Fore
545 1235 m 0,0,1
 657 1235 657 1235 737 1155 c 0,2,3
 817 1075 817 1075 817 962 c 0,4,5
 817 848 817 848 737 768.5 c 0,6,7
 657 689 657 689 542 689 c 0,8,9
 431 689 431 689 351 770 c 0,10,11
 271 851 271 851 271 962 c 0,12,13
 271 1075 271 1075 351.5 1155 c 0,14,15
 432 1235 432 1235 545 1235 c 0,0,1
545 1121 m 0,8,9
 479 1121 479 1121 432 1074 c 0,10,11
 385 1027 385 1027 385 961 c 0,12,13
 385 897 385 897 431.5 850 c 0,14,15
 478 803 478 803 542 803 c 0,16,17
 609 803 609 803 656 849.5 c 0,18,19
 703 896 703 896 703 962 c 0,20,21
 703 1027 703 1027 656.5 1074 c 0,22,23
 610 1121 610 1121 545 1121 c 0,8,9
EndSplineSet
EndChar
StartChar: plusminus
Encoding: 177 177 114
Width: 1051
GlyphClass: 2
Flags: W
HStem: -29 38G<101 948>
VStem: 418 214<247 564 778 1094>
Fore
948 185 m 1,0,-1
 948 -29 l 1,1,-1
 101 -29 l 1,2,-1
 101 185 l 1,3,-1
 948 185 l 1,0,-1
948 778 m 1,4,-1
 948 564 l 1,5,-1
 631 564 l 1,6,-1
 631 247 l 1,7,-1
 418 247 l 1,8,-1
 418 564 l 1,9,-1
 101 564 l 1,10,-1
 101 778 l 1,11,-1
 418 778 l 1,12,-1
 418 1094 l 1,13,-1
 631 1094 l 1,14,-1
 631 778 l 1,15,-1
 948 778 l 1,4,-1
EndSplineSet
EndChar
StartChar: twosuperior
Encoding: 178 178 115
Width: 631
GlyphClass: 2
Flags: W
HStem: 511 146<29 587> 1003 38G<40 205> 1159 133<228 406>
VStem: 38 163<1030 1118> 420 170<934 1128>
Fore
590 1051 m 0,0,1
 590 990 590 990 568.5 943.5 c 128,-1,2
 547 897 547 897 508.5 864 c 128,-1,3
 470 831 470 831 428.5 804 c 128,-1,4
 387 777 387 777 336 738 c 128,-1,5
 285 699 285 699 250 658 c 1,6,-1
 587 658 l 1,7,-1
 587 511 l 1,8,-1
 29 511 l 1,9,10
 31 583 31 583 54 640.5 c 128,-1,11
 77 698 77 698 111.5 734.5 c 128,-1,12
 146 771 146 771 187.5 800.5 c 128,-1,13
 229 830 229 830 270 854.5 c 128,-1,14
 311 879 311 879 344.5 904 c 128,-1,15
 378 929 378 929 399 964 c 128,-1,16
 420 999 420 999 420 1044 c 0,17,18
 420 1098 420 1098 390.5 1128.5 c 128,-1,19
 361 1159 361 1159 310 1159 c 0,20,21
 258 1159 258 1159 230 1125.5 c 128,-1,22
 202 1092 202 1092 202 1032 c 0,23,24
 202 1029 202 1029 203.5 1019 c 128,-1,25
 205 1009 205 1009 205 1003 c 1,26,-1
 40 1003 l 1,27,28
 38 1018 38 1018 38 1034 c 0,29,30
 38 1158 38 1158 111 1225 c 128,-1,31
 184 1292 184 1292 319 1292 c 0,32,33
 450 1292 450 1292 520 1229.5 c 128,-1,34
 590 1167 590 1167 590 1051 c 0,0,1
EndSplineSet
EndChar
StartChar: threesuperior
Encoding: 179 179 116
Width: 631
GlyphClass: 2
Flags: W
HStem: 487 139<218 392> 847 112<241 305> 1162 132<251 385>
VStem: 396 170<1030 1146> 421 170<660 779>
Fore
40 1027 m 1,0,1
 49 1292 49 1292 306 1292 c 0,2,3
 425 1292 425 1292 495.5 1235 c 128,-1,4
 566 1178 566 1178 566 1082 c 0,5,6
 566 979 566 979 473 922 c 1,7,8
 593 863 593 863 593 737 c 0,9,10
 593 624 593 624 514.5 555.5 c 128,-1,11
 436 487 436 487 306 487 c 0,12,13
 174 487 174 487 101 554.5 c 128,-1,14
 28 622 28 622 26 745 c 1,15,-1
 192 745 l 1,16,17
 197 684 197 684 225.5 655 c 128,-1,18
 254 626 254 626 310 626 c 0,19,20
 358 626 358 626 389.5 656.5 c 128,-1,21
 421 687 421 687 421 734 c 0,22,23
 421 845 421 845 270 847 c 2,24,-1
 241 847 l 1,25,-1
 241 960 l 1,26,-1
 262 960 l 2,27,28
 327 960 327 960 361.5 986.5 c 128,-1,29
 396 1013 396 1013 396 1063 c 0,30,31
 396 1108 396 1108 370 1135 c 128,-1,32
 344 1162 344 1162 300 1162 c 0,33,34
 241 1162 241 1162 219.5 1127.5 c 128,-1,35
 198 1093 198 1093 198 1027 c 1,36,-1
 40 1027 l 1,0,1
EndSplineSet
EndChar
StartChar: acute
Encoding: 180 180 117
Width: 598
GlyphClass: 2
Flags: W
Fore
571 1363 m 1,0,-1
 343 1092 l 1,1,-1
 218 1092 l 1,2,-1
 343 1363 l 1,3,-1
 571 1363 l 1,0,-1
EndSplineSet
EndChar
StartChar: mu
Encoding: 181 181 118
Width: 1200
GlyphClass: 2
Flags: W
HStem: -17 202<478 578> 941 36G<94 342 716 961>
VStem: 716 245<240 977>
Fore
536 185 m 0,0,1
 567 185 567 185 595 193 c 0,2,3
 623 201 623 201 652 221.5 c 0,4,5
 681 242 681 242 698.5 286 c 0,6,7
 716 330 716 330 716 392 c 2,8,-1
 716 977 l 1,9,-1
 961 977 l 1,10,-1
 961 295 l 2,11,12
 961 257 961 257 967.5 233 c 0,13,14
 974 209 974 209 981.5 203 c 0,15,16
 989 197 989 197 997 193 c 0,17,18
 1005 189 1005 189 1006 187 c 2,19,-1
 1070 65 l 1,20,21
 1026 35 1026 35 996 20 c 0,22,23
 966 5 966 5 953 2.5 c 0,24,25
 940 0 940 0 924 0 c 2,26,-1
 918 0 l 2,27,28
 864 0 864 0 822 22 c 0,29,30
 780 44 780 44 760 83 c 1,31,32
 721 39 721 39 659.5 11 c 0,33,34
 598 -17 598 -17 530 -17 c 0,35,36
 474 -17 474 -17 432 -4 c 0,37,38
 390 9 390 9 342 40 c 1,39,-1
 342 -364 l 1,40,-1
 94 -364 l 1,41,-1
 94 977 l 1,42,-1
 342 977 l 1,43,-1
 342 392 l 2,44,45
 342 304 342 304 395.5 244.5 c 0,46,47
 449 185 449 185 536 185 c 0,0,1
EndSplineSet
EndChar
StartChar: paragraph
Encoding: 182 182 119
Width: 1000
GlyphClass: 2
Flags: W
HStem: 1183 130<407 953>
VStem: 408 176<-343 1183> 698 176<-343 1183>
Fore
34 890 m 0,0,1
 34 1069 34 1069 142 1191 c 0,2,3
 250 1313 250 1313 407 1313 c 2,4,-1
 953 1313 l 1,5,-1
 953 1183 l 1,6,-1
 875 1183 l 1,7,-1
 875 -343 l 1,8,-1
 698 -343 l 1,9,-1
 698 1183 l 1,10,-1
 586 1183 l 1,11,-1
 586 -343 l 1,12,-1
 408 -343 l 1,13,-1
 408 480 l 1,14,15
 242 489 242 489 138 603 c 0,16,17
 34 717 34 717 34 890 c 0,0,1
EndSplineSet
EndChar
StartChar: periodcentered
Encoding: 183 183 120
Width: 500
GlyphClass: 2
Flags: W
Fore
115 526 m 1,0,-1
 338 526 l 1,1,-1
 338 305 l 1,2,-1
 115 305 l 1,3,-1
 115 526 l 1,0,-1
EndSplineSet
EndChar
StartChar: cedilla
Encoding: 184 184 121
Width: 598
GlyphClass: 2
Flags: W
HStem: -396 90<247 372> -169 169<264 311>
VStem: 374 155<-283 -190>
Fore
292 0 m 1,0,-1
 370 0 l 1,1,-1
 317 -113 l 1,2,3
 352 -101 352 -101 392 -101 c 0,4,5
 456 -101 456 -101 492.5 -135 c 128,-1,6
 529 -169 529 -169 529 -228 c 0,7,8
 529 -309 529 -309 469 -352.5 c 128,-1,9
 409 -396 409 -396 298 -396 c 0,10,11
 239 -396 239 -396 188 -386 c 128,-1,12
 137 -376 137 -376 48 -346 c 1,13,-1
 83 -252 l 1,14,15
 155 -283 155 -283 194.5 -294.5 c 128,-1,16
 234 -306 234 -306 271 -306 c 0,17,18
 314 -306 314 -306 344 -285 c 128,-1,19
 374 -264 374 -264 374 -233 c 0,20,21
 374 -204 374 -204 349 -186.5 c 128,-1,22
 324 -169 324 -169 283 -169 c 0,23,24
 241 -169 241 -169 194 -191 c 1,25,-1
 292 0 l 1,0,-1
EndSplineSet
EndChar
StartChar: onesuperior
Encoding: 185 185 122
Width: 631
GlyphClass: 2
Flags: W
HStem: 1032 110<72 264> 1241 36G<320 436>
VStem: 264 170<511 1277>
Fore
264 1032 m 1,0,-1
 72 1032 l 1,1,-1
 72 1141 l 1,2,3
 283 1141 283 1141 320 1277 c 1,4,-1
 436 1277 l 1,5,-1
 436 511 l 1,6,-1
 264 511 l 1,7,-1
 264 1032 l 1,0,-1
EndSplineSet
EndChar
StartChar: ordmasculine
Encoding: 186 186 123
Width: 656
GlyphClass: 2
Flags: W
HStem: 472 140<60 601> 695 122<240 418> 1190 122<240 420>
VStem: 41 151<907 1099> 466 151<905 1098>
Fore
601 612 m 1,0,-1
 601 472 l 1,1,-1
 60 472 l 1,2,-1
 60 612 l 1,3,-1
 601 612 l 1,0,-1
329 1313 m 0,4,5
 466 1313 466 1313 541.5 1230.5 c 0,6,7
 617 1148 617 1148 617 998 c 0,8,9
 617 858 617 858 539.5 776.5 c 0,10,11
 462 695 462 695 329 695 c 0,12,13
 195 695 195 695 118 777 c 0,14,15
 41 859 41 859 41 1003 c 0,16,17
 41 1147 41 1147 118 1230 c 0,18,19
 195 1313 195 1313 329 1313 c 0,4,5
329 1190 m 0,12,13
 268 1190 268 1190 230 1138 c 0,14,15
 192 1086 192 1086 192 1004 c 0,16,17
 192 921 192 921 230 869 c 0,18,19
 268 817 268 817 329 817 c 0,20,21
 390 817 390 817 428 868.5 c 0,22,23
 466 920 466 920 466 1001 c 0,24,25
 466 1086 466 1086 429 1138 c 0,26,27
 392 1190 392 1190 329 1190 c 0,12,13
EndSplineSet
EndChar
StartChar: guillemotright
Encoding: 187 187 124
Width: 1000
GlyphClass: 2
Flags: W
Fore
458 602 m 1,0,-1
 458 396 l 1,1,-1
 158 130 l 1,2,-1
 158 341 l 1,3,-1
 341 500 l 1,4,-1
 158 660 l 1,5,-1
 158 866 l 1,6,-1
 458 602 l 1,0,-1
832 602 m 1,7,-1
 832 396 l 1,8,-1
 530 130 l 1,9,-1
 530 341 l 1,10,-1
 713 500 l 1,11,-1
 530 660 l 1,12,-1
 530 866 l 1,13,-1
 832 602 l 1,7,-1
EndSplineSet
EndChar
StartChar: onequarter
Encoding: 188 188 125
Width: 1563
GlyphClass: 2
Flags: W
HStem: -36 38G<306 463> 168 134<954 1277 1447 1530> 1032 110<72 264> 1241 36G<320 436>
VStem: 264 170<511 1277> 1277 170<0 168 302 766>
Fore
264 1032 m 1,0,-1
 72 1032 l 1,1,-1
 72 1141 l 1,2,3
 283 1141 283 1141 320 1277 c 1,4,-1
 436 1277 l 1,5,-1
 436 511 l 1,6,-1
 264 511 l 1,7,-1
 264 1032 l 1,0,-1
1068 1286 m 1,8,-1
 1224 1286 l 1,9,-1
 463 -36 l 1,10,-1
 306 -36 l 1,11,-1
 1068 1286 l 1,8,-1
1530 302 m 1,12,-1
 1530 168 l 1,13,-1
 1447 168 l 1,14,-1
 1447 0 l 1,15,-1
 1277 0 l 1,16,-1
 1277 168 l 1,17,-1
 954 168 l 1,18,-1
 954 300 l 1,19,-1
 1250 766 l 1,20,-1
 1447 766 l 1,21,-1
 1447 302 l 1,22,-1
 1530 302 l 1,12,-1
1277 302 m 1,23,-1
 1277 598 l 1,24,-1
 1085 302 l 1,25,-1
 1277 302 l 1,23,-1
EndSplineSet
EndChar
StartChar: onehalf
Encoding: 189 189 126
Width: 1563
GlyphClass: 2
Flags: W
HStem: 0 146<961 1519> 648 133<1162 1338> 1032 110<72 264> 1241 36G<320 436>
VStem: 264 170<511 1277> 970 163<518 607> 1351 170<422 617>
Fore
264 1032 m 1,0,-1
 72 1032 l 1,1,-1
 72 1141 l 1,2,3
 283 1141 283 1141 320 1277 c 1,4,-1
 436 1277 l 1,5,-1
 436 511 l 1,6,-1
 264 511 l 1,7,-1
 264 1032 l 1,0,-1
1056 1286 m 1,8,-1
 1213 1286 l 1,9,-1
 451 -36 l 1,10,-1
 295 -36 l 1,11,-1
 1056 1286 l 1,8,-1
1523 540 m 0,12,13
 1523 479 1523 479 1501 432.5 c 0,14,15
 1479 386 1479 386 1440.5 353 c 0,16,17
 1402 320 1402 320 1360.5 292.5 c 0,18,19
 1319 265 1319 265 1268 226.5 c 0,20,21
 1217 188 1217 188 1183 146 c 1,22,-1
 1519 146 l 1,23,-1
 1519 0 l 1,24,-1
 961 0 l 1,25,26
 964 72 964 72 987 129.5 c 0,27,28
 1010 187 1010 187 1044.5 223.5 c 0,29,30
 1079 260 1079 260 1120 289.5 c 0,31,32
 1161 319 1161 319 1201.5 343 c 0,33,34
 1242 367 1242 367 1275.5 392.5 c 0,35,36
 1309 418 1309 418 1330 453 c 0,37,38
 1351 488 1351 488 1351 533 c 0,39,40
 1351 587 1351 587 1322 617.5 c 0,41,42
 1293 648 1293 648 1242 648 c 0,43,44
 1191 648 1191 648 1162.5 614.5 c 0,45,46
 1134 581 1134 581 1134 521 c 0,47,48
 1134 508 1134 508 1138 492 c 1,49,-1
 972 492 l 1,50,51
 970 506 970 506 970 523 c 0,52,53
 970 647 970 647 1042.5 714 c 0,54,55
 1115 781 1115 781 1250 781 c 0,56,57
 1382 781 1382 781 1452.5 718.5 c 0,58,59
 1523 656 1523 656 1523 540 c 0,12,13
EndSplineSet
EndChar
StartChar: threequarters
Encoding: 190 190 127
Width: 1563
GlyphClass: 2
Flags: W
HStem: -36 38G<364 521> 168 134<954 1277 1447 1530> 487 139<218 392> 847 112<241 305> 1162 132<251 385>
VStem: 396 170<1030 1146> 421 170<660 779> 1277 170<0 168 302 766>
Fore
40 1027 m 1,0,1
 49 1292 49 1292 306 1292 c 0,2,3
 425 1292 425 1292 495.5 1235 c 0,4,5
 566 1178 566 1178 566 1082 c 0,6,7
 566 979 566 979 473 922 c 1,8,9
 593 863 593 863 593 737 c 0,10,11
 593 624 593 624 514.5 555.5 c 0,12,13
 436 487 436 487 306 487 c 0,14,15
 174 487 174 487 101 554.5 c 0,16,17
 28 622 28 622 26 745 c 1,18,-1
 192 745 l 1,19,20
 197 684 197 684 225.5 655 c 0,21,22
 254 626 254 626 310 626 c 0,23,24
 358 626 358 626 389.5 656.5 c 0,25,26
 421 687 421 687 421 734 c 0,27,28
 421 845 421 845 270 847 c 2,29,-1
 241 847 l 1,30,-1
 241 960 l 1,31,-1
 262 960 l 2,32,33
 327 960 327 960 361.5 986.5 c 0,34,35
 396 1013 396 1013 396 1063 c 0,36,37
 396 1108 396 1108 370 1135 c 0,38,39
 344 1162 344 1162 300 1162 c 0,40,41
 241 1162 241 1162 219.5 1127.5 c 0,42,43
 198 1093 198 1093 198 1027 c 1,44,-1
 40 1027 l 1,0,1
1126 1286 m 1,29,-1
 1282 1286 l 1,30,-1
 521 -36 l 1,31,-1
 364 -36 l 1,32,-1
 1126 1286 l 1,29,-1
1530 302 m 1,33,-1
 1530 168 l 1,34,-1
 1447 168 l 1,35,-1
 1447 0 l 1,36,-1
 1277 0 l 1,37,-1
 1277 168 l 1,38,-1
 954 168 l 1,39,-1
 954 300 l 1,40,-1
 1250 766 l 1,41,-1
 1447 766 l 1,42,-1
 1447 302 l 1,43,-1
 1530 302 l 1,33,-1
1277 302 m 1,44,-1
 1277 598 l 1,45,-1
 1085 302 l 1,46,-1
 1277 302 l 1,44,-1
EndSplineSet
EndChar
StartChar: Acircumflex
Encoding: 194 194 131
Width: 1299
GlyphClass: 2
Flags: W
HStem: 0 38<47 322 989 1265> 1277 36<514 811>
Fore
562 1685 m 1,0,-1
 754 1685 l 1,1,-1
 940 1414 l 1,2,-1
 799 1414 l 1,3,-1
 652 1594 l 1,4,-1
 504 1414 l 1,5,-1
 367 1414 l 1,6,-1
 562 1685 l 1,0,-1
EndSplineSet
Refer: 35 65 N 1 0 0 1 0 0 0
EndChar
StartChar: Atilde
Encoding: 195 195 132
Width: 1299
GlyphClass: 2
Flags: W
HStem: 0 38<47 322 989 1265> 1277 36<514 811> 1442 142<800 866> 1522 142<467 541>
Fore
872 1671 m 1,0,-1
 986 1671 l 1,1,2
 974 1442 974 1442 814 1442 c 0,3,4
 772 1442 772 1442 714 1463 c 2,5,-1
 587 1510 l 2,6,7
 554 1521 554 1521 533 1521 c 0,8,9
 501 1521 501 1521 484.5 1502.5 c 128,-1,10
 468 1484 468 1484 461 1440 c 1,11,-1
 347 1440 l 1,12,13
 352 1545 352 1545 397.5 1604.5 c 128,-1,14
 443 1664 443 1664 518 1664 c 0,15,16
 544 1664 544 1664 557.5 1661 c 128,-1,17
 571 1658 571 1658 618 1640 c 2,18,-1
 746 1594 l 2,19,20
 770 1584 770 1584 807 1584 c 0,21,22
 863 1584 863 1584 872 1671 c 1,0,-1
EndSplineSet
Refer: 35 65 N 1 0 0 1 0 0 0
EndChar
StartChar: Aring
Encoding: 197 197 134
Width: 1299
GlyphClass: 2
Flags: W
HStem: 0 38<47 322 989 1265> 1277 36<514 811> 1385 86<608 697> 1622 86<610 701>
VStem: 492 86<1501 1591> 730 86<1500 1590>
Fore
655 1708 m 128,-1,1
 723 1708 723 1708 769.5 1660.5 c 128,-1,2
 816 1613 816 1613 816 1544 c 0,3,4
 816 1478 816 1478 768 1431 c 128,-1,5
 720 1384 720 1384 653 1384 c 128,-1,6
 586 1384 586 1384 539 1431.5 c 128,-1,7
 492 1479 492 1479 492 1546 c 0,8,9
 492 1614 492 1614 539.5 1661 c 128,-1,0
 587 1708 587 1708 655 1708 c 128,-1,1
655 1622 m 0,10,11
 623 1622 623 1622 601 1599.5 c 128,-1,12
 579 1577 579 1577 579 1546 c 128,-1,13
 579 1515 579 1515 601 1492.5 c 128,-1,14
 623 1470 623 1470 655 1470 c 0,15,16
 685 1470 685 1470 707.5 1492.5 c 128,-1,17
 730 1515 730 1515 730 1546 c 128,-1,18
 730 1577 730 1577 708 1599.5 c 128,-1,19
 686 1622 686 1622 655 1622 c 0,10,11
EndSplineSet
Refer: 35 65 N 1 0 0 1 0 0 0
EndChar
StartChar: AE
Encoding: 198 198 135
Width: 1800
GlyphClass: 2
Flags: W
HStem: 0 38G<2 277 774 1739> 565 226<1044 1654> 1277 36G<475 1703>
Fore
774 274 m 1,0,-1
 372 274 l 1,1,-1
 277 0 l 1,2,-1
 2 0 l 1,3,-1
 475 1313 l 1,4,-1
 1703 1313 l 1,5,-1
 1703 1087 l 1,6,-1
 1044 1087 l 1,7,-1
 1044 790 l 1,8,-1
 1654 790 l 1,9,-1
 1654 565 l 1,10,-1
 1044 565 l 1,11,-1
 1044 226 l 1,12,-1
 1739 226 l 1,13,-1
 1739 0 l 1,14,-1
 774 0 l 1,15,-1
 774 274 l 1,0,-1
774 499 m 1,16,-1
 774 1087 l 1,17,-1
 653 1087 l 1,18,-1
 449 499 l 1,19,-1
 774 499 l 1,16,-1
EndSplineSet
EndChar
StartChar: Ccedilla
Encoding: 199 199 136
Width: 1299
GlyphClass: 2
Flags: W
HStem: -396 90<578 703> 1104 230<494 833>
VStem: 79 270<498 857> 706 155<-283 -190>
Fore
970 868 m 1,0,1
 965 892 965 892 959.5 909 c 128,-1,2
 954 926 954 926 941 957.5 c 128,-1,3
 928 989 928 989 908 1011.5 c 128,-1,4
 888 1034 888 1034 859 1057 c 128,-1,5
 830 1080 830 1080 786.5 1092 c 128,-1,6
 743 1104 743 1104 689 1104 c 0,7,8
 530 1104 530 1104 439.5 981 c 128,-1,9
 349 858 349 858 349 641 c 0,10,11
 349 426 349 426 436.5 305.5 c 128,-1,12
 524 185 524 185 680 185 c 0,13,14
 806 185 806 185 882 254 c 128,-1,15
 958 323 958 323 970 449 c 1,16,-1
 1234 449 l 1,17,18
 1223 226 1223 226 1075.5 95 c 128,-1,19
 928 -36 928 -36 682 -41 c 1,20,-1
 648 -113 l 1,21,22
 681 -101 681 -101 724 -101 c 0,23,24
 788 -101 788 -101 824 -135 c 128,-1,25
 860 -169 860 -169 860 -228 c 0,26,27
 860 -309 860 -309 800.5 -352.5 c 128,-1,28
 741 -396 741 -396 629 -396 c 0,29,30
 570 -396 570 -396 519 -385.5 c 128,-1,31
 468 -375 468 -375 379 -346 c 1,32,-1
 414 -252 l 1,33,34
 486 -283 486 -283 525.5 -294.5 c 128,-1,35
 565 -306 565 -306 602 -306 c 0,36,37
 646 -306 646 -306 676 -285 c 128,-1,38
 706 -264 706 -264 706 -233 c 0,39,40
 706 -204 706 -204 681 -186.5 c 128,-1,41
 656 -169 656 -169 614 -169 c 0,42,43
 571 -169 571 -169 526 -191 c 1,44,-1
 602 -41 l 1,45,46
 477 -19 477 -19 410 10.5 c 128,-1,47
 343 40 343 40 278 101 c 0,48,49
 79 294 79 294 79 644 c 0,50,51
 79 963 79 963 240.5 1148.5 c 128,-1,52
 402 1334 402 1334 680 1334 c 0,53,54
 913 1334 913 1334 1062 1210 c 128,-1,55
 1211 1086 1211 1086 1228 868 c 1,56,-1
 970 868 l 1,0,1
EndSplineSet
EndChar
StartChar: Ecircumflex
Encoding: 202 202 139
Width: 1200
GlyphClass: 2
Flags: W
HStem: 0 38<142 1123> 565 226<413 1040> 1277 36<142 1091>
Fore
529 1685 m 1,0,-1
 721 1685 l 1,1,-1
 907 1414 l 1,2,-1
 766 1414 l 1,3,-1
 619 1594 l 1,4,-1
 471 1414 l 1,5,-1
 334 1414 l 1,6,-1
 529 1685 l 1,0,-1
EndSplineSet
Refer: 39 69 N 1 0 0 1 0 0 0
EndChar
StartChar: Icircumflex
Encoding: 206 206 143
Width: 500
GlyphClass: 2
Flags: W
HStem: 0 38<113 384> 1277 36<113 384>
Fore
161 1685 m 1,0,-1
 353 1685 l 1,1,-1
 539 1414 l 1,2,-1
 398 1414 l 1,3,-1
 251 1594 l 1,4,-1
 103 1414 l 1,5,-1
 -34 1414 l 1,6,-1
 161 1685 l 1,0,-1
EndSplineSet
Refer: 43 73 N 1 0 0 1 0 0 0
EndChar
StartChar: Eth
Encoding: 208 208 145
Width: 1299
GlyphClass: 2
Flags: W
HStem: 0 226<408 754> 610 144<0 139 408 679> 1087 226<408 755>
VStem: 967 259<484 817>
Fore
139 610 m 1,0,-1
 0 610 l 1,1,-1
 0 754 l 1,2,-1
 139 754 l 1,3,-1
 139 1313 l 1,4,-1
 652 1313 l 2,5,6
 808 1313 808 1313 906 1278 c 128,-1,7
 1004 1243 1004 1243 1068 1162 c 0,8,9
 1143 1071 1143 1071 1184.5 937 c 128,-1,10
 1226 803 1226 803 1226 658 c 128,-1,11
 1226 513 1226 513 1184 380 c 128,-1,12
 1142 247 1142 247 1068 154 c 0,13,14
 1004 73 1004 73 905 36.5 c 128,-1,15
 806 0 806 0 652 0 c 2,16,-1
 139 0 l 1,17,-1
 139 610 l 1,0,-1
967 655 m 0,18,19
 967 774 967 774 945.5 858.5 c 128,-1,20
 924 943 924 943 881.5 992.5 c 128,-1,21
 839 1042 839 1042 783 1064.5 c 128,-1,22
 727 1087 727 1087 652 1087 c 2,23,-1
 408 1087 l 1,24,-1
 408 754 l 1,25,-1
 679 754 l 1,26,-1
 679 610 l 1,27,-1
 408 610 l 1,28,-1
 408 226 l 1,29,-1
 652 226 l 2,30,31
 722 226 722 226 775.5 245.5 c 128,-1,32
 829 265 829 265 874 311 c 128,-1,33
 919 357 919 357 943 444 c 128,-1,34
 967 531 967 531 967 655 c 0,18,19
EndSplineSet
EndChar
StartChar: Ntilde
Encoding: 209 209 146
Width: 1299
GlyphClass: 2
Flags: W
HStem: 0 38<122 392 919 1190> 1277 36<122 400 919 1190> 1442 142<800 866> 1522 142<467 541>
VStem: 919 270<0 1313>
Fore
872 1671 m 1,0,-1
 986 1671 l 1,1,2
 974 1442 974 1442 814 1442 c 0,3,4
 772 1442 772 1442 714 1463 c 2,5,-1
 587 1510 l 2,6,7
 554 1521 554 1521 533 1521 c 0,8,9
 501 1521 501 1521 484.5 1502.5 c 128,-1,10
 468 1484 468 1484 461 1440 c 1,11,-1
 347 1440 l 1,12,13
 352 1545 352 1545 397.5 1604.5 c 128,-1,14
 443 1664 443 1664 518 1664 c 0,15,16
 544 1664 544 1664 557.5 1661 c 128,-1,17
 571 1658 571 1658 618 1640 c 2,18,-1
 746 1594 l 2,19,20
 770 1584 770 1584 807 1584 c 0,21,22
 863 1584 863 1584 872 1671 c 1,0,-1
EndSplineSet
Refer: 48 78 N 1 0 0 1 0 0 0
EndChar
StartChar: Ocircumflex
Encoding: 212 212 149
Width: 1400
GlyphClass: 2
Flags: W
HStem: -41 230<511 901> 1104 230<511 892>
VStem: 72 270<446 846> 1066 270<449 846>
Fore
612 1685 m 1,0,-1
 804 1685 l 1,1,-1
 990 1414 l 1,2,-1
 849 1414 l 1,3,-1
 702 1594 l 1,4,-1
 554 1414 l 1,5,-1
 417 1414 l 1,6,-1
 612 1685 l 1,0,-1
EndSplineSet
Refer: 49 79 N 1 0 0 1 0 0 0
EndChar
StartChar: Otilde
Encoding: 213 213 150
Width: 1400
GlyphClass: 2
Flags: W
HStem: -41 230<511 901> 1104 230<511 892> 1442 142<851 917> 1522 142<517 592>
VStem: 72 270<446 846> 1066 270<449 846>
Fore
922 1671 m 1,0,-1
 1036 1671 l 1,1,2
 1024 1442 1024 1442 864 1442 c 0,3,4
 822 1442 822 1442 764 1463 c 2,5,-1
 637 1510 l 2,6,7
 604 1521 604 1521 583 1521 c 0,8,9
 551 1521 551 1521 534.5 1502.5 c 128,-1,10
 518 1484 518 1484 511 1440 c 1,11,-1
 397 1440 l 1,12,13
 402 1545 402 1545 447.5 1604.5 c 128,-1,14
 493 1664 493 1664 568 1664 c 0,15,16
 594 1664 594 1664 607.5 1661 c 128,-1,17
 621 1658 621 1658 668 1640 c 2,18,-1
 796 1594 l 2,19,20
 820 1584 820 1584 857 1584 c 0,21,22
 913 1584 913 1584 922 1671 c 1,0,-1
EndSplineSet
Refer: 49 79 N 1 0 0 1 0 0 0
EndChar
StartChar: multiply
Encoding: 215 215 152
Width: 1051
GlyphClass: 2
Flags: W
Fore
758 799 m 1,0,-1
 910 648 l 1,1,-1
 677 415 l 1,2,-1
 907 184 l 1,3,-1
 756 32 l 1,4,-1
 526 264 l 1,5,-1
 295 34 l 1,6,-1
 144 185 l 1,7,-1
 374 415 l 1,8,-1
 142 646 l 1,9,-1
 293 799 l 1,10,-1
 526 566 l 1,11,-1
 758 799 l 1,0,-1
EndSplineSet
EndChar
StartChar: Oslash
Encoding: 216 216 153
Width: 1400
GlyphClass: 2
Flags: W
HStem: -41 230<617 895> 1104 230<505 784>
VStem: 62 270<558 845> 1062 270<451 725>
Fore
1332 643 m 0,0,1
 1332 452 1332 452 1256.5 297.5 c 128,-1,2
 1181 143 1181 143 1035.5 51 c 128,-1,3
 890 -41 890 -41 698 -41 c 0,4,5
 452 -41 452 -41 298 94 c 1,6,-1
 148 -70 l 1,7,-1
 55 12 l 1,8,-1
 211 184 l 1,9,10
 62 384 62 384 62 646 c 0,11,12
 62 843 62 843 139.5 999 c 128,-1,13
 217 1155 217 1155 363 1244.5 c 128,-1,14
 509 1334 509 1334 698 1334 c 0,15,16
 827 1334 827 1334 926.5 1298 c 128,-1,17
 1026 1262 1026 1262 1116 1183 c 1,18,-1
 1265 1349 l 1,19,-1
 1358 1267 l 1,20,-1
 1199 1090 l 1,21,22
 1261 1004 1261 1004 1296.5 885.5 c 128,-1,23
 1332 767 1332 767 1332 643 c 0,0,1
1020 895 m 1,24,-1
 461 276 l 1,25,26
 502 235 502 235 565 212.5 c 128,-1,27
 628 190 628 190 698 190 c 0,28,29
 863 190 863 190 962.5 315.5 c 128,-1,30
 1062 441 1062 441 1062 650 c 0,31,32
 1062 787 1062 787 1020 895 c 1,24,-1
385 377 m 1,33,-1
 950 998 l 1,34,35
 850 1104 850 1104 698 1104 c 0,36,37
 531 1104 531 1104 432.5 978 c 128,-1,38
 334 852 334 852 334 641 c 0,39,40
 334 485 334 485 385 377 c 1,33,-1
EndSplineSet
EndChar
StartChar: Ucircumflex
Encoding: 219 219 156
Width: 1299
GlyphClass: 2
Flags: W
HStem: -41 230<546 768> 1277 36<137 407 907 1177>
VStem: 137 270<238 1313> 907 270<238 1313>
Fore
565 1685 m 1,0,-1
 757 1685 l 1,1,-1
 943 1414 l 1,2,-1
 802 1414 l 1,3,-1
 655 1594 l 1,4,-1
 507 1414 l 1,5,-1
 370 1414 l 1,6,-1
 565 1685 l 1,0,-1
EndSplineSet
Refer: 55 85 N 1 0 0 1 0 0 0
EndChar
StartChar: Thorn
Encoding: 222 222 159
Width: 1200
GlyphClass: 2
Flags: W
HStem: 0 38G<137 407> 1277 36G<137 407>
VStem: 869 270<553 776>
Fore
716 1097 m 2,0,1
 820 1097 820 1097 898 1071 c 0,2,3
 976 1045 976 1045 1021 1005 c 0,4,5
 1066 965 1066 965 1094 908 c 0,6,7
 1122 851 1122 851 1131 799.5 c 0,8,9
 1140 748 1140 748 1140 688 c 0,10,11
 1140 487 1140 487 1033 369.5 c 0,12,13
 926 252 926 252 744 252 c 2,14,-1
 407 252 l 1,15,-1
 407 0 l 1,16,-1
 137 0 l 1,17,-1
 137 1313 l 1,18,-1
 407 1313 l 1,19,-1
 407 1097 l 1,20,-1
 716 1097 l 2,0,1
407 478 m 1,11,-1
 659 478 l 2,12,13
 767 478 767 478 818 525.5 c 0,14,15
 869 573 869 573 869 673 c 0,16,17
 869 775 869 775 818 823 c 0,18,19
 767 871 767 871 659 871 c 2,20,-1
 407 871 l 1,21,-1
 407 478 l 1,11,-1
EndSplineSet
EndChar
StartChar: germandbls
Encoding: 223 223 160
Width: 1099
GlyphClass: 2
Flags: W
HStem: -31 216<572 761> 629 170<514 613> 1109 204<376 667>
VStem: 120 252<0 1034> 706 252<911 1081> 782 252<288 551>
Fore
802 739 m 1,0,1
 822 735 822 735 840.5 728.5 c 0,2,3
 859 722 859 722 888 708.5 c 0,4,5
 917 695 917 695 941 671.5 c 0,6,7
 965 648 965 648 987 616 c 0,8,9
 1009 584 1009 584 1021.5 534.5 c 0,10,11
 1034 485 1034 485 1034 425 c 0,12,13
 1034 219 1034 219 926.5 94 c 0,14,15
 819 -31 819 -31 643 -31 c 0,16,17
 613 -31 613 -31 514 -19 c 1,18,-1
 514 182 l 1,19,20
 523 184 523 184 536 184 c 2,21,-1
 572 185 l 2,22,23
 665 186 665 186 723.5 248 c 0,24,25
 782 310 782 310 782 407 c 0,26,27
 782 510 782 510 716.5 569.5 c 0,28,29
 651 629 651 629 536 629 c 2,30,-1
 514 629 l 1,31,-1
 514 799 l 1,32,-1
 529 799 l 2,33,34
 611 801 611 801 658.5 844 c 0,35,36
 706 887 706 887 706 960 c 0,37,38
 706 1030 706 1030 658.5 1069.5 c 0,39,40
 611 1109 611 1109 529 1109 c 0,41,42
 455 1109 455 1109 413.5 1071.5 c 0,43,44
 372 1034 372 1034 372 967 c 2,45,-1
 372 0 l 1,46,-1
 120 0 l 1,47,-1
 120 932 l 2,48,49
 120 997 120 997 131.5 1050 c 0,50,51
 143 1103 143 1103 172 1153.5 c 0,52,53
 201 1204 201 1204 248 1238 c 0,54,55
 295 1272 295 1272 370.5 1292.5 c 0,56,57
 446 1313 446 1313 545 1313 c 0,58,59
 727 1313 727 1313 842.5 1221 c 0,60,61
 958 1129 958 1129 958 984 c 0,62,63
 958 802 958 802 802 739 c 1,0,1
EndSplineSet
EndChar
StartChar: acircumflex
Encoding: 226 226 163
Width: 1000
GlyphClass: 2
Flags: W
HStem: -41 204<257 503> 785 204<356 619>
VStem: 50 252<163 337> 638 247<149 788>
Fore
399 1363 m 1,0,-1
 591 1363 l 1,1,-1
 777 1092 l 1,2,-1
 636 1092 l 1,3,-1
 489 1272 l 1,4,-1
 341 1092 l 1,5,-1
 204 1092 l 1,6,-1
 399 1363 l 1,0,-1
EndSplineSet
Refer: 67 97 N 1 0 0 1 0 0 0
EndChar
StartChar: atilde
Encoding: 227 227 164
Width: 1000
GlyphClass: 2
Flags: W
HStem: -41 204<257 503> 785 204<356 619> 1120 142<624 690> 1199 142<290 365>
VStem: 50 252<163 337> 638 247<149 788>
Fore
695 1349 m 1,0,-1
 809 1349 l 1,1,2
 797 1120 797 1120 637 1120 c 0,3,4
 595 1120 595 1120 537 1141 c 2,5,-1
 410 1188 l 2,6,7
 377 1199 377 1199 356 1199 c 0,8,9
 324 1199 324 1199 307.5 1180.5 c 128,-1,10
 291 1162 291 1162 284 1118 c 1,11,-1
 170 1118 l 1,12,13
 175 1223 175 1223 220.5 1282.5 c 128,-1,14
 266 1342 266 1342 341 1342 c 0,15,16
 367 1342 367 1342 380.5 1339 c 128,-1,17
 394 1336 394 1336 441 1318 c 2,18,-1
 569 1272 l 2,19,20
 593 1262 593 1262 630 1262 c 0,21,22
 686 1262 686 1262 695 1349 c 1,0,-1
EndSplineSet
Refer: 67 97 N 1 0 0 1 0 0 0
EndChar
StartChar: aring
Encoding: 229 229 166
Width: 1000
GlyphClass: 2
Flags: W
HStem: -41 204<257 503> 785 204<356 619> 1062 86<444 534> 1300 86<445 536>
VStem: 50 252<163 337> 328 86<1178 1270> 565 86<1178 1268> 638 247<149 788>
Fore
492 1386 m 128,-1,1
 560 1386 560 1386 606.5 1338.5 c 128,-1,2
 653 1291 653 1291 653 1222 c 0,3,4
 653 1156 653 1156 605 1109 c 128,-1,5
 557 1062 557 1062 490 1062 c 128,-1,6
 423 1062 423 1062 376 1109.5 c 128,-1,7
 329 1157 329 1157 329 1224 c 0,8,9
 329 1292 329 1292 376.5 1339 c 128,-1,0
 424 1386 424 1386 492 1386 c 128,-1,1
492 1300 m 0,10,11
 460 1300 460 1300 438 1277.5 c 128,-1,12
 416 1255 416 1255 416 1224 c 128,-1,13
 416 1193 416 1193 438 1170.5 c 128,-1,14
 460 1148 460 1148 492 1148 c 0,15,16
 522 1148 522 1148 544.5 1170.5 c 128,-1,17
 567 1193 567 1193 567 1224 c 128,-1,18
 567 1255 567 1255 545 1277.5 c 128,-1,19
 523 1300 523 1300 492 1300 c 0,10,11
EndSplineSet
Refer: 67 97 N 1 0 0 1 0 0 0
EndChar
StartChar: ae
Encoding: 230 230 167
Width: 1599
GlyphClass: 2
Flags: W
HStem: -43 204<258 502> 407 168<889 1541> 785 204<354 558>
VStem: 48 252<163 342>
Fore
889 407 m 1,0,1
 889 345 889 345 902.5 297.5 c 128,-1,2
 916 250 916 250 936 223 c 128,-1,3
 956 196 956 196 985 179 c 128,-1,4
 1014 162 1014 162 1039.5 156.5 c 128,-1,5
 1065 151 1065 151 1094 151 c 0,6,7
 1159 151 1159 151 1212 186 c 128,-1,8
 1265 221 1265 221 1282 274 c 1,9,-1
 1530 274 l 1,10,11
 1488 130 1488 130 1366 44.5 c 128,-1,12
 1244 -41 1244 -41 1080 -41 c 0,13,14
 961 -41 961 -41 869 7 c 128,-1,15
 777 55 777 55 720 146 c 1,16,17
 636 47 636 47 548 2 c 128,-1,18
 460 -43 460 -43 350 -43 c 0,19,20
 212 -43 212 -43 130 37.5 c 128,-1,21
 48 118 48 118 48 254 c 0,22,23
 48 386 48 386 118.5 461.5 c 128,-1,24
 189 537 189 537 335 562 c 2,25,-1
 436 580 l 2,26,27
 471 584 471 584 507 591 c 128,-1,28
 543 598 543 598 572 607 c 128,-1,29
 601 616 601 616 619 637 c 128,-1,30
 637 658 637 658 637 689 c 0,31,32
 637 785 637 785 485 785 c 0,33,34
 400 785 400 785 361.5 755 c 128,-1,35
 323 725 323 725 313 652 c 1,36,-1
 77 652 l 1,37,38
 85 989 85 989 487 989 c 0,39,40
 698 989 698 989 803 898 c 1,41,42
 914 989 914 989 1082 989 c 0,43,44
 1147 989 1147 989 1208 975 c 128,-1,45
 1269 961 1269 961 1331.5 923 c 128,-1,46
 1394 885 1394 885 1439.5 826.5 c 128,-1,47
 1485 768 1485 768 1514 671 c 128,-1,48
 1543 574 1543 574 1543 450 c 0,49,50
 1543 428 1543 428 1541 407 c 1,51,-1
 889 407 l 1,0,1
637 389 m 2,52,-1
 637 457 l 1,53,54
 599 434 599 434 530 422 c 2,55,-1
 444 410 l 2,56,57
 300 392 300 392 300 278 c 0,58,59
 300 223 300 223 337 192 c 128,-1,60
 374 161 374 161 437 161 c 0,61,62
 534 161 534 161 585.5 219.5 c 128,-1,63
 637 278 637 278 637 389 c 2,52,-1
890 574 m 1,64,-1
 1279 574 l 1,65,66
 1270 683 1270 683 1220.5 739.5 c 128,-1,67
 1171 796 1171 796 1084 796 c 0,68,69
 908 796 908 796 890 574 c 1,64,-1
EndSplineSet
EndChar
StartChar: ccedilla
Encoding: 231 231 168
Width: 1000
GlyphClass: 2
Flags: W
HStem: -396 90<422 548> -41 204<437 638> 785 204<376 642>
VStem: 61 252<319 631> 551 155<-283 -190>
Fore
313 468 m 0,0,1
 313 413 313 413 322.5 363.5 c 128,-1,2
 332 314 332 314 354 266.5 c 128,-1,3
 376 219 376 219 419 190.5 c 128,-1,4
 462 162 462 162 521 162 c 0,5,6
 592 162 592 162 633.5 202.5 c 128,-1,7
 675 243 675 243 698 336 c 1,8,-1
 940 336 l 1,9,10
 924 169 924 169 809.5 64 c 128,-1,11
 695 -41 695 -41 528 -41 c 2,12,-1
 523 -41 l 1,13,-1
 493 -113 l 1,14,15
 524 -101 524 -101 566 -101 c 0,16,17
 631 -101 631 -101 668.5 -135 c 128,-1,18
 706 -169 706 -169 706 -228 c 0,19,20
 706 -309 706 -309 645.5 -352.5 c 128,-1,21
 585 -396 585 -396 473 -396 c 0,22,23
 368 -396 368 -396 226 -346 c 1,24,-1
 259 -252 l 1,25,26
 379 -306 379 -306 446 -306 c 0,27,28
 490 -306 490 -306 520.5 -285 c 128,-1,29
 551 -264 551 -264 551 -233 c 0,30,31
 551 -204 551 -204 526 -186.5 c 128,-1,32
 501 -169 501 -169 458 -169 c 128,-1,33
 415 -169 415 -169 370 -191 c 1,34,-1
 446 -38 l 1,35,36
 260 -13 260 -13 160.5 116.5 c 128,-1,37
 61 246 61 246 61 466 c 0,38,39
 61 714 61 714 182 851.5 c 128,-1,40
 303 989 303 989 521 989 c 0,41,42
 703 989 703 989 815 887.5 c 128,-1,43
 927 786 927 786 940 608 c 1,44,-1
 698 608 l 1,45,46
 677 705 677 705 636.5 745 c 128,-1,47
 596 785 596 785 518 785 c 0,48,49
 456 785 456 785 413 755.5 c 128,-1,50
 370 726 370 726 349.5 675 c 128,-1,51
 329 624 329 624 321 575 c 128,-1,52
 313 526 313 526 313 468 c 0,0,1
EndSplineSet
EndChar
StartChar: ecircumflex
Encoding: 234 234 171
Width: 1000
GlyphClass: 2
Flags: W
HStem: -41 192<347 593> 407 168<292 943> 796 192<350 587>
Fore
413 1363 m 1,0,-1
 605 1363 l 1,1,-1
 791 1092 l 1,2,-1
 650 1092 l 1,3,-1
 503 1272 l 1,4,-1
 355 1092 l 1,5,-1
 218 1092 l 1,6,-1
 413 1363 l 1,0,-1
EndSplineSet
Refer: 71 101 N 1 0 0 1 0 0 0
EndChar
StartChar: icircumflex
Encoding: 238 238 175
Width: 500
GlyphClass: 2
Flags: W
HStem: 0 38<120 372> 936 36<120 372>
Fore
161 1363 m 1,0,-1
 353 1363 l 1,1,-1
 539 1092 l 1,2,-1
 398 1092 l 1,3,-1
 251 1272 l 1,4,-1
 103 1092 l 1,5,-1
 -34 1092 l 1,6,-1
 161 1363 l 1,0,-1
EndSplineSet
Refer: 201 305 N 1 0 0 1 0 0 0
EndChar
StartChar: eth
Encoding: 240 240 177
Width: 1099
GlyphClass: 2
Flags: W
HStem: -41 204<394 695> 773 190<365 613>
VStem: 62 254<314 622> 770 254<319 634>
Fore
346 1334 m 1,0,1
 412 1309 412 1309 463.5 1280 c 0,2,3
 515 1251 515 1251 529 1246 c 1,4,-1
 686 1339 l 1,5,-1
 778 1278 l 1,6,-1
 626 1188 l 1,7,8
 830 1050 830 1050 927.5 878.5 c 0,9,10
 1025 707 1025 707 1025 485 c 0,11,12
 1025 237 1025 237 898 98 c 0,13,14
 771 -41 771 -41 544 -41 c 0,15,16
 318 -41 318 -41 190 97 c 0,17,18
 62 235 62 235 62 478 c 0,19,20
 62 694 62 694 181.5 827.5 c 0,21,22
 301 961 301 961 493 961 c 0,23,24
 558 961 558 961 646 926 c 1,25,26
 573 1045 573 1045 475 1099 c 1,27,-1
 336 1018 l 1,28,-1
 262 1084 l 1,29,-1
 386 1163 l 1,30,31
 323 1201 323 1201 226 1249 c 1,32,-1
 346 1334 l 1,0,1
544 773 m 0,23,24
 441 773 441 773 379 689.5 c 0,25,26
 317 606 317 606 317 468 c 0,27,28
 317 329 317 329 379 245.5 c 0,29,30
 441 162 441 162 544 162 c 0,31,32
 646 162 646 162 708 245 c 0,33,34
 770 328 770 328 770 463 c 0,35,36
 770 605 770 605 708.5 689 c 0,37,38
 647 773 647 773 544 773 c 0,23,24
EndSplineSet
EndChar
StartChar: ntilde
Encoding: 241 241 178
Width: 1099
GlyphClass: 2
Flags: W
HStem: 0 38<113 365 731 983> 774 214<508 761> 1120 142<678 744> 1199 142<344 419>
VStem: 731 252<0 758>
Fore
749 1349 m 1,0,-1
 863 1349 l 1,1,2
 851 1120 851 1120 691 1120 c 0,3,4
 649 1120 649 1120 591 1141 c 2,5,-1
 464 1188 l 2,6,7
 431 1199 431 1199 410 1199 c 0,8,9
 378 1199 378 1199 361.5 1180.5 c 128,-1,10
 345 1162 345 1162 338 1118 c 1,11,-1
 224 1118 l 1,12,13
 229 1223 229 1223 274.5 1282.5 c 128,-1,14
 320 1342 320 1342 395 1342 c 0,15,16
 421 1342 421 1342 434.5 1339 c 128,-1,17
 448 1336 448 1336 495 1318 c 2,18,-1
 623 1272 l 2,19,20
 647 1262 647 1262 684 1262 c 0,21,22
 740 1262 740 1262 749 1349 c 1,0,-1
EndSplineSet
Refer: 80 110 N 1 0 0 1 0 0 0
EndChar
StartChar: ocircumflex
Encoding: 244 244 181
Width: 1099
GlyphClass: 2
Flags: W
HStem: -41 204<394 691> 785 204<394 694>
VStem: 62 252<313 632> 773 252<311 631>
Fore
450 1367 m 1,0,-1
 642 1367 l 1,1,-1
 828 1096 l 1,2,-1
 687 1096 l 1,3,-1
 540 1276 l 1,4,-1
 392 1096 l 1,5,-1
 255 1096 l 1,6,-1
 450 1367 l 1,0,-1
EndSplineSet
Refer: 81 111 N 1 0 0 1 0 0 1
EndChar
StartChar: otilde
Encoding: 245 245 182
Width: 1099
GlyphClass: 2
Flags: W
HStem: -41 204<394 691> 785 204<394 694> 1120 142<683 750> 1199 142<350 424>
VStem: 62 252<313 632> 773 252<311 631>
Fore
755 1349 m 1,0,-1
 869 1349 l 1,1,2
 857 1120 857 1120 697 1120 c 0,3,4
 655 1120 655 1120 597 1141 c 2,5,-1
 470 1188 l 2,6,7
 437 1199 437 1199 416 1199 c 0,8,9
 384 1199 384 1199 367.5 1180.5 c 128,-1,10
 351 1162 351 1162 344 1118 c 1,11,-1
 230 1118 l 1,12,13
 235 1223 235 1223 280.5 1282.5 c 128,-1,14
 326 1342 326 1342 401 1342 c 0,15,16
 427 1342 427 1342 440.5 1339 c 128,-1,17
 454 1336 454 1336 501 1318 c 2,18,-1
 629 1272 l 2,19,20
 653 1262 653 1262 690 1262 c 0,21,22
 746 1262 746 1262 755 1349 c 1,0,-1
EndSplineSet
Refer: 81 111 N 1 0 0 1 0 0 0
EndChar
StartChar: divide
Encoding: 247 247 184
Width: 1051
GlyphClass: 2
Flags: W
HStem: -19 38G<414 637>
Fore
961 523 m 1,0,-1
 961 310 l 1,1,-1
 90 310 l 1,2,-1
 90 523 l 1,3,-1
 961 523 l 1,0,-1
414 853 m 1,4,-1
 637 853 l 1,5,-1
 637 631 l 1,6,-1
 414 631 l 1,7,-1
 414 853 l 1,4,-1
414 202 m 1,8,-1
 637 202 l 1,9,-1
 637 -19 l 1,10,-1
 414 -19 l 1,11,-1
 414 202 l 1,8,-1
EndSplineSet
EndChar
StartChar: oslash
Encoding: 248 248 185
Width: 1099
GlyphClass: 2
Flags: W
HStem: -41 204<487 700> 787 202<398 614>
VStem: 65 252<406 634> 780 252<314 538>
Fore
227 62 m 1,0,-1
 97 -68 l 1,1,-1
 19 4 l 1,2,-1
 155 142 l 1,3,4
 65 272 65 272 65 473 c 0,5,6
 65 714 65 714 194.5 851.5 c 128,-1,7
 324 989 324 989 550 989 c 0,8,9
 742 989 742 989 876 876 c 1,10,-1
 998 1003 l 1,11,-1
 1076 929 l 1,12,-1
 947 797 l 1,13,14
 1032 664 1032 664 1032 473 c 0,15,16
 1032 235 1032 235 902.5 97 c 128,-1,17
 773 -41 773 -41 551 -41 c 0,18,19
 454 -41 454 -41 367.5 -13.5 c 128,-1,20
 281 14 281 14 227 62 c 1,0,-1
758 605 m 1,21,-1
 396 238 l 1,22,23
 460 162 460 162 551 162 c 0,24,25
 651 162 651 162 715.5 248.5 c 128,-1,26
 780 335 780 335 780 468 c 0,27,28
 780 542 780 542 758 605 c 1,21,-1
342 331 m 1,29,-1
 706 702 l 1,30,31
 635 787 635 787 545 787 c 0,32,33
 444 787 444 787 380.5 700.5 c 128,-1,34
 317 614 317 614 317 479 c 0,35,36
 317 395 317 395 342 331 c 1,29,-1
EndSplineSet
EndChar
StartChar: ucircumflex
Encoding: 251 251 188
Width: 1099
GlyphClass: 2
Flags: W
HStem: -41 214<326 580> 936 36<104 356 722 974>
VStem: 104 252<188 972>
Fore
447 1363 m 1,0,-1
 639 1363 l 1,1,-1
 825 1092 l 1,2,-1
 684 1092 l 1,3,-1
 537 1272 l 1,4,-1
 389 1092 l 1,5,-1
 252 1092 l 1,6,-1
 447 1363 l 1,0,-1
EndSplineSet
Refer: 87 117 N 1 0 0 1 0 0 0
EndChar
StartChar: thorn
Encoding: 254 254 191
Width: 1099
GlyphClass: 2
Flags: W
HStem: -41 211<506 744> 778 211<506 744> 1277 36G<104 356>
VStem: 781 252<325 620>
Fore
356 1313 m 1,0,-1
 356 828 l 1,1,2
 448 989 448 989 626 989 c 0,3,4
 801 989 801 989 917 841.5 c 0,5,6
 1033 694 1033 694 1033 472 c 0,7,8
 1033 251 1033 251 917 105 c 0,9,10
 801 -41 801 -41 626 -41 c 0,11,12
 448 -41 448 -41 356 115 c 1,13,-1
 356 -392 l 1,14,-1
 104 -392 l 1,15,-1
 104 1313 l 1,16,-1
 356 1313 l 1,0,-1
569 778 m 0,13,14
 475 778 475 778 415.5 693 c 0,15,16
 356 608 356 608 356 472 c 0,17,18
 356 337 356 337 415 253 c 0,19,20
 474 169 474 169 569 169 c 0,21,22
 663 169 663 169 722 252.5 c 0,23,24
 781 336 781 336 781 468 c 0,25,26
 781 607 781 607 722.5 692.5 c 0,27,28
 664 778 664 778 569 778 c 0,13,14
EndSplineSet
EndChar
StartChar: Ccaron
Encoding: 268 268 195
Width: 1299
GlyphClass: 2
Flags: W
HStem: -41 227<491 836> 1104 230<494 833>
VStem: 79 270<434 857>
Fore
768 1414 m 1,0,-1
 576 1414 l 1,1,-1
 391 1685 l 1,2,-1
 530 1685 l 1,3,-1
 679 1510 l 1,4,-1
 825 1685 l 1,5,-1
 962 1685 l 1,6,-1
 768 1414 l 1,0,-1
EndSplineSet
Refer: 37 67 N 1 0 0 1 0 0 0
EndChar
StartChar: ccaron
Encoding: 269 269 196
Width: 1000
GlyphClass: 2
Flags: W
HStem: -41 204<372 635> 785 204<376 642>
VStem: 61 252<306 631>
Fore
614 1092 m 1,0,-1
 422 1092 l 1,1,-1
 237 1363 l 1,2,-1
 376 1363 l 1,3,-1
 525 1188 l 1,4,-1
 671 1363 l 1,5,-1
 808 1363 l 1,6,-1
 614 1092 l 1,0,-1
EndSplineSet
Refer: 69 99 N 1 0 0 1 0 0 0
EndChar
StartChar: dcroat
Encoding: 273 273 197
Width: 1099
GlyphClass: 2
Flags: W
HStem: -41 211<344 580> 778 211<344 581> 1073 120<490 730 982 1090> 1277 36G<730 982>
VStem: 53 252<326 618> 730 252<0 1073 1193 1313>
Fore
730 1073 m 5,0,-1
 490 1073 l 1,1,-1
 490 1193 l 1,2,-1
 730 1193 l 1,3,-1
 730 1313 l 1,4,-1
 982 1313 l 1,5,-1
 982 1193 l 1,6,-1
 1090 1193 l 1,7,-1
 1090 1073 l 1,8,-1
 982 1073 l 1,9,-1
 982 0 l 1,10,-1
 730 0 l 1,11,-1
 730 98 l 1,12,13
 635 -41 635 -41 461 -41 c 0,14,15
 346 -41 346 -41 252.5 26 c 0,16,17
 159 93 159 93 106 210.5 c 0,18,19
 53 328 53 328 53 472 c 0,20,21
 53 617 53 617 106 735.5 c 0,22,23
 159 854 159 854 252.5 921.5 c 0,24,25
 346 989 346 989 461 989 c 0,26,27
 636 989 636 989 730 846 c 1,28,-1
 730 1073 l 5,0,-1
516 778 m 0,21,22
 423 778 423 778 364 692.5 c 0,23,24
 305 607 305 607 305 472 c 0,25,26
 305 338 305 338 363.5 253.5 c 0,27,28
 422 169 422 169 516 169 c 0,29,30
 611 169 611 169 670.5 252.5 c 0,31,32
 730 336 730 336 730 468 c 0,33,34
 730 607 730 607 671 692.5 c 0,35,36
 612 778 612 778 516 778 c 0,21,22
EndSplineSet
EndChar
StartChar: Gbreve
Encoding: 286 286 198
Width: 1400
GlyphClass: 2
Flags: W
HStem: -41 230<512 778> 1104 230<522 869> 1411 139<649 784> 1632 36<479 580 853 954>
VStem: 76 270<448 851>
Fore
953 1668 m 1,0,-1
 953 1649 l 2,1,2
 953 1548 953 1548 885 1480 c 128,-1,3
 817 1412 817 1412 715 1412 c 0,4,5
 614 1412 614 1412 545.5 1480 c 128,-1,6
 477 1548 477 1548 477 1650 c 2,7,-1
 477 1668 l 1,8,-1
 578 1668 l 1,9,10
 596 1550 596 1550 717 1550 c 0,11,12
 777 1550 777 1550 809 1578 c 128,-1,13
 841 1606 841 1606 852 1668 c 1,14,-1
 953 1668 l 1,0,-1
EndSplineSet
Refer: 41 71 N 1 0 0 1 0 0 0
EndChar
StartChar: gbreve
Encoding: 287 287 199
Width: 1099
GlyphClass: 2
Flags: W
HStem: -392 162<383 658> -41 211<340 581> 778 211<349 581> 1090 139<485 620> 1310 36<314 415 689 790>
VStem: 61 252<312 613> 738 235<-146 557>
Fore
790 1346 m 1,0,-1
 790 1327 l 2,1,2
 790 1226 790 1226 722 1158 c 128,-1,3
 654 1090 654 1090 552 1090 c 0,4,5
 451 1090 451 1090 382.5 1158 c 128,-1,6
 314 1226 314 1226 314 1328 c 2,7,-1
 314 1346 l 1,8,-1
 415 1346 l 1,9,10
 433 1228 433 1228 554 1228 c 0,11,12
 614 1228 614 1228 646 1256 c 128,-1,13
 678 1284 678 1284 689 1346 c 1,14,-1
 790 1346 l 1,0,-1
EndSplineSet
Refer: 73 103 N 1 0 0 1 0 0 0
EndChar
StartChar: Idotaccent
Encoding: 304 304 200
Width: 500
GlyphClass: 2
Flags: W
HStem: 0 38<113 384> 1277 36<113 384> 1624 36<149 348>
Fore
347 1659 m 1,0,-1
 347 1440 l 1,1,-1
 149 1440 l 1,2,-1
 149 1659 l 1,3,-1
 347 1659 l 1,0,-1
EndSplineSet
Refer: 43 73 N 1 0 0 1 0 0 0
EndChar
StartChar: dotlessi
Encoding: 305 305 201
Width: 500
GlyphClass: 2
Flags: W
HStem: 0 38G<120 372> 936 36G<120 372>
Fore
372 972 m 1,0,-1
 372 0 l 1,1,-1
 120 0 l 1,2,-1
 120 972 l 1,3,-1
 372 972 l 1,0,-1
EndSplineSet
EndChar
StartChar: Lslash
Encoding: 321 321 202
Width: 1099
GlyphClass: 2
Flags: W
HStem: 0 38G<144 1075> 1277 36G<144 414>
VStem: 144 270<0 601 623 1313>
Fore
414 761 m 1,0,-1
 710 962 l 1,1,-1
 710 804 l 1,2,-1
 414 601 l 1,3,-1
 414 226 l 1,4,-1
 1075 226 l 1,5,-1
 1075 0 l 1,6,-1
 144 0 l 1,7,-1
 144 463 l 1,8,-1
 0 362 l 1,9,-1
 0 522 l 1,10,-1
 144 623 l 1,11,-1
 144 1313 l 1,12,-1
 414 1313 l 1,13,-1
 414 761 l 1,0,-1
EndSplineSet
EndChar
StartChar: lslash
Encoding: 322 322 203
Width: 500
GlyphClass: 2
Flags: W
HStem: 0 38G<101 353> 1277 36G<101 353>
Fore
353 796 m 1,0,-1
 454 868 l 1,1,-1
 454 725 l 1,2,-1
 353 653 l 1,3,-1
 353 0 l 1,4,-1
 101 0 l 1,5,-1
 101 529 l 1,6,-1
 0 457 l 1,7,-1
 0 600 l 1,8,-1
 101 672 l 1,9,-1
 101 1313 l 1,10,-1
 353 1313 l 1,11,-1
 353 796 l 1,0,-1
EndSplineSet
EndChar
StartChar: OE
Encoding: 338 338 204
Width: 1800
GlyphClass: 2
Flags: W
HStem: -41 230<430 688> 565 226<1123 1661> 1104 230<432 689>
VStem: 50 270<445 848> 853 270<320 972>
Fore
1123 565 m 1,0,-1
 1123 226 l 1,1,-1
 1746 226 l 1,2,-1
 1746 0 l 1,3,-1
 864 0 l 1,4,-1
 864 106 l 1,5,6
 797 23 797 23 737 -9 c 0,7,8
 677 -41 677 -41 586 -41 c 0,9,10
 432 -41 432 -41 309.5 46.5 c 0,11,12
 187 134 187 134 118.5 291 c 0,13,14
 50 448 50 448 50 646 c 0,15,16
 50 950 50 950 201 1142 c 0,17,18
 352 1334 352 1334 593 1334 c 0,19,20
 679 1334 679 1334 739 1308 c 0,21,22
 799 1282 799 1282 864 1219 c 1,23,-1
 864 1313 l 1,24,-1
 1711 1313 l 1,25,-1
 1711 1087 l 1,26,-1
 1123 1087 l 1,27,-1
 1123 790 l 1,28,-1
 1661 790 l 1,29,-1
 1661 565 l 1,30,-1
 1123 565 l 1,0,-1
853 320 m 1,21,-1
 853 972 l 1,22,23
 815 1041 815 1041 764 1072.5 c 0,24,25
 713 1104 713 1104 641 1104 c 0,26,27
 497 1104 497 1104 408.5 978.5 c 0,28,29
 320 853 320 853 320 646 c 0,30,31
 320 441 320 441 408 315.5 c 0,32,33
 496 190 496 190 638 190 c 0,34,35
 713 190 713 190 764 220.5 c 0,36,37
 815 251 815 251 853 320 c 1,21,-1
EndSplineSet
EndChar
StartChar: oe
Encoding: 339 339 205
Width: 1699
GlyphClass: 2
Flags: W
HStem: -41 204<372 594> 407 168<1003 1654> 785 204<372 594>
VStem: 41 252<313 634>
Fore
1003 407 m 1,0,1
 1009 151 1009 151 1207 151 c 0,2,3
 1273 151 1273 151 1326 185.5 c 0,4,5
 1379 220 1379 220 1397 274 c 1,6,-1
 1645 274 l 1,7,8
 1602 130 1602 130 1480.5 44.5 c 0,9,10
 1359 -41 1359 -41 1195 -41 c 0,11,12
 1097 -41 1097 -41 1013.5 -6.5 c 0,13,14
 930 28 930 28 874 94 c 1,15,16
 734 -41 734 -41 522 -41 c 0,17,18
 298 -41 298 -41 169.5 96.5 c 0,19,20
 41 234 41 234 41 473 c 0,21,22
 41 714 41 714 169.5 851.5 c 0,23,24
 298 989 298 989 522 989 c 0,25,26
 740 989 740 989 874 852 c 1,27,28
 991 989 991 989 1198 989 c 0,29,30
 1263 989 1263 989 1323 975 c 0,31,32
 1383 961 1383 961 1445.5 923 c 0,33,34
 1508 885 1508 885 1553 826.5 c 0,35,36
 1598 768 1598 768 1627 671 c 0,37,38
 1656 574 1656 574 1656 450 c 0,39,40
 1656 428 1656 428 1654 407 c 1,41,-1
 1003 407 l 1,0,1
522 785 m 0,24,25
 419 785 419 785 356 699 c 0,26,27
 293 613 293 613 293 473 c 0,28,29
 293 334 293 334 356 248 c 0,30,31
 419 162 419 162 522 162 c 0,32,33
 624 162 624 162 687.5 247.5 c 0,34,35
 751 333 751 333 751 470 c 0,36,37
 751 612 751 612 688.5 698.5 c 0,38,39
 626 785 626 785 522 785 c 0,24,25
1393 574 m 1,32,33
 1382 681 1382 681 1333 738.5 c 0,34,35
 1284 796 1284 796 1199 796 c 0,36,37
 1114 796 1114 796 1065 738.5 c 0,38,39
 1016 681 1016 681 1006 574 c 1,40,-1
 1393 574 l 1,32,33
EndSplineSet
EndChar
StartChar: Scedilla
Encoding: 350 350 206
Width: 1200
GlyphClass: 2
Flags: W
HStem: -396 90<511 636> -41 216<523 697> 1118 216<420 679>
VStem: 82 257<829 1058> 638 155<-283 -190> 881 259<251 487>
Fore
612 -41 m 1,0,-1
 581 -112 l 1,1,2
 618 -101 618 -101 655 -101 c 0,3,4
 720 -101 720 -101 757 -135 c 0,5,6
 794 -169 794 -169 794 -228 c 0,7,8
 794 -309 794 -309 733.5 -352.5 c 0,9,10
 673 -396 673 -396 562 -396 c 0,11,12
 456 -396 456 -396 313 -346 c 1,13,-1
 348 -252 l 1,14,15
 468 -306 468 -306 536 -306 c 0,16,17
 579 -306 579 -306 608.5 -285 c 0,18,19
 638 -264 638 -264 638 -233 c 0,20,21
 638 -204 638 -204 613 -186.5 c 0,22,23
 588 -169 588 -169 547 -169 c 0,24,25
 506 -169 506 -169 458 -191 c 1,26,-1
 535 -41 l 1,27,28
 305 -18 305 -18 188.5 88.5 c 0,29,30
 72 195 72 195 58 392 c 1,31,-1
 320 392 l 1,32,33
 327 287 327 287 402.5 231 c 0,34,35
 478 175 478 175 616 175 c 0,36,37
 739 175 739 175 810 221.5 c 0,38,39
 881 268 881 268 881 350 c 0,40,41
 881 430 881 430 825 473 c 0,42,43
 769 516 769 516 634 542 c 2,44,-1
 450 578 l 2,45,46
 251 616 251 616 166.5 697 c 0,47,48
 82 778 82 778 82 931 c 0,49,50
 82 1122 82 1122 212 1228 c 0,51,52
 342 1334 342 1334 578 1334 c 0,53,54
 625 1334 625 1334 670.5 1329.5 c 0,55,56
 716 1325 716 1325 768.5 1313 c 0,57,58
 821 1301 821 1301 866 1281.5 c 0,59,60
 911 1262 911 1262 953.5 1229 c 0,61,62
 996 1196 996 1196 1026 1153 c 0,63,64
 1056 1110 1056 1110 1074 1048 c 0,65,66
 1092 986 1092 986 1092 912 c 1,67,-1
 840 912 l 1,68,69
 834 1013 834 1013 764 1065.5 c 0,70,71
 694 1118 694 1118 565 1118 c 0,72,73
 461 1118 461 1118 399.5 1074 c 0,74,75
 338 1030 338 1030 338 955 c 0,76,77
 338 884 338 884 390 849 c 0,78,79
 442 814 442 814 587 785 c 2,80,-1
 792 745 l 2,81,82
 974 710 974 710 1057 624 c 0,83,84
 1140 538 1140 538 1140 385 c 0,85,86
 1140 -17 1140 -17 612 -41 c 1,0,-1
EndSplineSet
EndChar
StartChar: scedilla
Encoding: 351 351 207
Width: 1000
GlyphClass: 2
Flags: W
HStem: -396 90<406 530> -41 198<418 658> 790 198<362 617>
VStem: 86 252<569 764> 533 155<-283 -190> 684 252<191 350>
Fore
299 283 m 1,0,1
 305 253 305 253 314 234 c 0,2,3
 323 215 323 215 343 195 c 0,4,5
 363 175 363 175 401.5 165.5 c 0,6,7
 440 156 440 156 497 156 c 0,8,9
 585 156 585 156 634.5 181.5 c 0,10,11
 684 207 684 207 684 252 c 0,12,13
 684 282 684 282 665.5 299.5 c 0,14,15
 647 317 647 317 600 331 c 2,16,-1
 299 425 l 2,17,18
 281 433 281 433 255 438.5 c 0,19,20
 229 444 229 444 199.5 462 c 0,21,22
 170 480 170 480 144.5 502.5 c 0,23,24
 119 525 119 525 102.5 568 c 0,25,26
 86 611 86 611 86 665 c 0,27,28
 86 814 86 814 194 901.5 c 0,29,30
 302 989 302 989 486 989 c 0,31,32
 681 989 681 989 793.5 901 c 0,33,34
 906 813 906 813 910 659 c 1,35,-1
 666 659 l 1,36,37
 664 790 664 790 485 790 c 0,38,39
 419 790 419 790 378.5 765.5 c 0,40,41
 338 741 338 741 338 701 c 0,42,43
 338 671 338 671 355.5 656 c 0,44,45
 373 641 373 641 427 624 c 2,46,-1
 745 533 l 2,47,48
 936 475 936 475 936 288 c 0,49,50
 936 143 936 143 826 51 c 0,51,52
 716 -41 716 -41 542 -41 c 2,53,-1
 509 -41 l 1,54,-1
 475 -113 l 1,55,56
 511 -101 511 -101 551 -101 c 0,57,58
 615 -101 615 -101 651.5 -135 c 0,59,60
 688 -169 688 -169 688 -228 c 0,61,62
 688 -309 688 -309 628 -352.5 c 0,63,64
 568 -396 568 -396 457 -396 c 0,65,66
 397 -396 397 -396 346 -385.5 c 0,67,68
 295 -375 295 -375 206 -346 c 1,69,-1
 241 -252 l 1,70,71
 313 -283 313 -283 352.5 -294.5 c 0,72,73
 392 -306 392 -306 430 -306 c 0,74,75
 473 -306 473 -306 503 -285 c 0,76,77
 533 -264 533 -264 533 -233 c 0,78,79
 533 -204 533 -204 508 -186.5 c 0,80,81
 483 -169 483 -169 442 -169 c 0,82,83
 398 -169 398 -169 353 -191 c 1,84,-1
 430 -40 l 1,85,86
 237 -18 237 -18 148 58.5 c 0,87,88
 59 135 59 135 53 283 c 1,89,-1
 299 283 l 1,0,1
EndSplineSet
EndChar
StartChar: Scaron
Encoding: 352 352 208
Width: 1200
GlyphClass: 2
Flags: W
HStem: -41 216<434 770> 1118 216<420 679>
VStem: 82 257<829 1058> 881 259<250 487>
Fore
682 1414 m 1,0,-1
 490 1414 l 1,1,-1
 305 1685 l 1,2,-1
 444 1685 l 1,3,-1
 593 1510 l 1,4,-1
 739 1685 l 1,5,-1
 876 1685 l 1,6,-1
 682 1414 l 1,0,-1
EndSplineSet
Refer: 53 83 N 1 0 0 1 0 0 0
EndChar
StartChar: scaron
Encoding: 353 353 209
Width: 1000
GlyphClass: 2
Flags: W
HStem: -41 198<364 682> 790 198<362 617>
VStem: 86 252<569 764> 684 252<221 350>
Fore
598 1092 m 1,0,-1
 406 1092 l 1,1,-1
 221 1363 l 1,2,-1
 360 1363 l 1,3,-1
 509 1188 l 1,4,-1
 655 1363 l 1,5,-1
 792 1363 l 1,6,-1
 598 1092 l 1,0,-1
EndSplineSet
Refer: 85 115 N 1 0 0 1 0 0 0
EndChar
StartChar: Zcaron
Encoding: 381 381 211
Width: 1099
GlyphClass: 2
Flags: W
HStem: 0 226<54 1040> 1087 226<54 1040>
Fore
644 1414 m 1,0,-1
 452 1414 l 1,1,-1
 267 1685 l 1,2,-1
 406 1685 l 1,3,-1
 555 1510 l 1,4,-1
 701 1685 l 1,5,-1
 838 1685 l 1,6,-1
 644 1414 l 1,0,-1
EndSplineSet
Refer: 60 90 N 1 0 0 1 0 0 0
EndChar
StartChar: zcaron
Encoding: 382 382 212
Width: 900
GlyphClass: 2
Flags: W
HStem: 0 204<38 842> 768 204<70 826>
Fore
543 1092 m 1,0,-1
 351 1092 l 1,1,-1
 166 1363 l 1,2,-1
 305 1363 l 1,3,-1
 454 1188 l 1,4,-1
 600 1363 l 1,5,-1
 737 1363 l 1,6,-1
 543 1092 l 1,0,-1
EndSplineSet
Refer: 92 122 N 1 0 0 1 0 0 0
EndChar
StartChar: florin
Encoding: 402 402 213
Width: 598
GlyphClass: 2
Flags: W
HStem: 785 168<25 162 414 564> 1277 36G<326 427>
Fore
564 953 m 1,0,-1
 564 785 l 1,1,-1
 414 785 l 1,2,-1
 414 -169 l 2,3,4
 414 -288 414 -288 362 -340 c 0,5,6
 310 -392 310 -392 192 -392 c 0,7,8
 125 -392 125 -392 43 -384 c 1,9,-1
 43 -182 l 1,10,11
 72 -190 72 -190 89 -190 c 0,12,13
 129 -190 129 -190 145.5 -172.5 c 0,14,15
 162 -155 162 -155 162 -113 c 2,16,-1
 162 785 l 1,17,-1
 25 785 l 1,18,-1
 25 953 l 1,19,-1
 162 953 l 1,20,-1
 162 1069 l 2,21,22
 162 1193 162 1193 223 1253 c 0,23,24
 284 1313 284 1313 410 1313 c 0,25,26
 462 1313 462 1313 554 1307 c 1,27,-1
 554 1118 l 1,28,29
 519 1123 519 1123 482 1123 c 0,30,31
 414 1123 414 1123 414 1048 c 2,32,-1
 414 953 l 1,33,-1
 564 953 l 1,0,-1
EndSplineSet
EndChar
StartChar: arabiccomma
Encoding: 1548 1548 214
Width: 500
GlyphClass: 2
Flags: W
Fore
375 163 m 256,0,1
 375 124 375 124 348 96 c 128,-1,2
 321 68 321 68 280 68 c 0,3,4
 214 68 214 68 172 116 c 0,5,6
 127 168 127 168 127 259 c 0,7,8
 127 344 127 344 173.5 429.5 c 128,-1,9
 220 515 220 515 289 562 c 1,10,-1
 308 541 l 1,11,12
 252 487 252 487 222.5 430 c 128,-1,13
 193 373 193 373 193 311 c 0,14,15
 193 288 193 288 200 263 c 128,-1,16
 207 238 207 238 217 230 c 1,17,18
 248 261 248 261 282 261 c 0,19,20
 320 261 320 261 347.5 231.5 c 128,-1,21
 375 202 375 202 375 163 c 256,0,1
EndSplineSet
EndChar
StartChar: arabicsemicolon
Encoding: 1563 1563 215
Width: 500
GlyphClass: 2
Flags: W
Fore
380 396 m 256,0,1
 380 357 380 357 352.5 329 c 128,-1,2
 325 301 325 301 285 301 c 0,3,4
 219 301 219 301 177 349 c 0,5,6
 132 401 132 401 132 492 c 0,7,8
 132 577 132 577 178 662.5 c 128,-1,9
 224 748 224 748 294 795 c 1,10,-1
 313 774 l 1,11,12
 257 720 257 720 227.5 663 c 128,-1,13
 198 606 198 606 198 544 c 0,14,15
 198 521 198 521 205 496 c 128,-1,16
 212 471 212 471 221 463 c 1,17,18
 252 494 252 494 287 494 c 0,19,20
 324 494 324 494 352 464.5 c 128,-1,21
 380 435 380 435 380 396 c 256,0,1
355 107 m 256,22,23
 355 70 355 70 329.5 44.5 c 128,-1,24
 304 19 304 19 267 19 c 256,25,26
 230 19 230 19 204.5 44.5 c 128,-1,27
 179 70 179 70 179 107 c 256,28,29
 179 144 179 144 204.5 169.5 c 128,-1,30
 230 195 230 195 267 195 c 256,31,32
 304 195 304 195 329.5 169.5 c 128,-1,33
 355 144 355 144 355 107 c 256,22,23
EndSplineSet
EndChar
StartChar: arabicquestionmark
Encoding: 1567 1567 216
Width: 627
GlyphClass: 2
Flags: W
Fore
540 769 m 0,0,1
 540 712 540 712 511 676 c 128,-1,2
 482 640 482 640 436 640 c 0,3,4
 405 640 405 640 380.5 663.5 c 128,-1,5
 356 687 356 687 356 721 c 0,6,7
 356 773 356 773 401 798.5 c 128,-1,8
 446 824 446 824 446 846 c 0,9,10
 446 872 446 872 412 895 c 128,-1,11
 378 918 378 918 333 918 c 0,12,13
 278 918 278 918 243.5 885.5 c 128,-1,14
 209 853 209 853 209 795 c 0,15,16
 209 682 209 682 254 608 c 0,17,18
 296 553 296 553 339 498 c 0,19,20
 385 433 385 433 385 346 c 0,21,22
 385 326 385 326 369 281 c 0,23,24
 364 266 364 266 353 240 c 1,25,-1
 312 240 l 1,26,27
 317 257 317 257 319 266 c 0,28,29
 326 296 326 296 326 313 c 0,30,31
 326 344 326 344 315 376 c 0,32,33
 301 415 301 415 277 435 c 2,34,-1
 209 490 l 2,35,36
 150 539 150 539 119 598 c 128,-1,37
 88 657 88 657 88 723 c 0,38,39
 88 824 88 824 160 894 c 128,-1,40
 232 964 232 964 331 964 c 0,41,42
 418 964 418 964 479 908.5 c 128,-1,43
 540 853 540 853 540 769 c 0,0,1
417 88 m 256,44,45
 417 51 417 51 391.5 25.5 c 128,-1,46
 366 0 366 0 329 0 c 256,47,48
 292 0 292 0 266.5 25.5 c 128,-1,49
 241 51 241 51 241 88 c 256,50,51
 241 125 241 125 266.5 150.5 c 128,-1,52
 292 176 292 176 329 176 c 256,53,54
 366 176 366 176 391.5 150.5 c 128,-1,55
 417 125 417 125 417 88 c 256,44,45
EndSplineSet
EndChar
StartChar: hamza
Encoding: 1569 1569 217
Width: 902
GlyphClass: 2
Flags: W
AnchorPoint: "ArabicBelow" 432 -144 basechar 0
AnchorPoint: "ArabicAbove" 492 600 basechar 0
Fore
682 0 m 1,0,-1
 88 0 l 1,1,2
 105 8 105 8 131.5 30 c 128,-1,3
 158 52 158 52 180 76 c 0,4,5
 196 94 196 94 213.5 126.5 c 128,-1,6
 231 159 231 159 231 169 c 1,7,8
 245 149 245 149 276.5 139.5 c 128,-1,9
 308 130 308 130 347 130 c 1,10,11
 335 150 335 150 330 163 c 0,12,13
 312 205 312 205 312 243 c 0,14,15
 312 316 312 316 396 374 c 0,16,17
 455 415 455 415 555 446 c 0,18,19
 626 468 626 468 640 468 c 1,20,-1
 656 439 l 1,21,22
 596 403 596 403 567 379 c 0,23,24
 477 306 477 306 477 243 c 0,25,26
 477 187 477 187 541 162 c 0,27,28
 619 130 619 130 815 130 c 1,29,-1
 682 0 l 1,0,-1
EndSplineSet
EndChar
StartChar: alefwithmaddaabove
Encoding: 1570 1570 218
Width: 927
GlyphClass: 2
Flags: W
AnchorPoint: "ArabicBelow" 672 -300 basechar 0
AnchorPoint: "ArabicAbove" 340 1550 basechar 0
Fore
614 1498 m 1,0,1
 590 1402 590 1402 541 1361 c 0,2,3
 500 1328 500 1328 438 1328 c 0,4,5
 406 1328 406 1328 345.5 1340.5 c 128,-1,6
 285 1353 285 1353 260 1353 c 0,7,8
 243 1353 243 1353 228 1348 c 0,9,10
 196 1339 196 1339 168 1311 c 0,11,12
 96 1240 96 1240 88 1237 c 1,13,14
 96 1267 96 1267 102 1285 c 0,15,16
 138 1393 138 1393 175 1455 c 1,17,18
 185 1459 185 1459 201 1459 c 0,19,20
 236 1459 236 1459 325.5 1436.5 c 128,-1,21
 415 1414 415 1414 446 1414 c 0,22,23
 466 1414 466 1414 477 1419 c 0,24,25
 521 1436 521 1436 561 1462 c 0,26,27
 587 1479 587 1479 614 1498 c 1,0,1
316 760 m 2,28,29
 316 894 316 894 281 958 c 0,30,31
 261 996 261 996 219 1020 c 1,32,-1
 219 1033 l 1,33,34
 272 1063 272 1063 286 1072 c 0,35,36
 336 1104 336 1104 352.5 1127.5 c 128,-1,37
 369 1151 369 1151 407 1194 c 0,38,39
 472 1266 l 1,40,-1
 491 1266 l 1,41,-1
 491 200 l 2,42,43
 491 42 491 42 570 -34 c 0,44,45
 627 -90 627 -90 700 -90 c 2,46,-1
 839 -90 l 1,47,48
 807 -119 807 -119 713 -147.5 c 128,-1,49
 619 -176 619 -176 553 -176 c 0,50,51
 448 -176 448 -176 385 -102 c 0,52,53
 316 -21 316 -21 316 132 c 2,54,-1
 316 760 l 2,28,29
EndSplineSet
Substitution2: "'fina' Terminal Forms in Arabic lookup 4" alefwithmaddaabovefinal
Substitution2: "'aalt' Access All Alternates in Latin lookup 1" alefwithmaddaabovefinal
EndChar
StartChar: alefwithhamzaabove
Encoding: 1571 1571 219
Width: 860
GlyphClass: 2
Flags: W
AnchorPoint: "ArabicBelow" 588 -288 basechar 0
AnchorPoint: "ArabicAbove" 192 1536 basechar 0
Fore
272 1545 m 1,0,-1
 266 1499 l 1,1,2
 206 1456 206 1456 206 1423 c 0,3,4
 206 1419 206 1419 209 1411.5 c 128,-1,5
 212 1404 212 1404 265 1379 c 0,6,7
 289 1368 289 1368 295 1352 c 0,8,9
 297 1345 297 1345 297 1341 c 0,10,11
 297 1311 297 1311 252 1274 c 0,12,13
 199 1231 199 1231 98 1194 c 1,14,-1
 104 1230 l 1,15,16
 175 1290 175 1290 168 1308 c 0,17,18
 165 1317 165 1317 118 1338 c 0,19,20
 94 1348 94 1348 91 1357.5 c 128,-1,21
 88 1367 88 1367 88 1375 c 0,22,23
 88 1415 88 1415 144 1467 c 128,-1,24
 200 1519 200 1519 272 1545 c 1,0,-1
249 778 m 2,25,26
 249 911 249 911 214 976 c 0,27,28
 194 1013 194 1013 152 1037 c 1,29,-1
 152 1050 l 1,30,31
 205 1081 205 1081 219 1090 c 0,32,33
 269 1121 269 1121 285.5 1145 c 128,-1,34
 302 1169 302 1169 340 1211 c 0,35,36
 405 1283 l 1,37,-1
 425 1283 l 1,38,-1
 425 200 l 2,39,40
 425 42 425 42 503 -34 c 0,41,42
 560 -90 560 -90 634 -90 c 2,43,-1
 773 -90 l 1,44,45
 740 -119 740 -119 646 -147.5 c 128,-1,46
 552 -176 552 -176 486 -176 c 0,47,48
 381 -176 381 -176 318 -102 c 0,49,50
 249 -21 249 -21 249 132 c 2,51,-1
 249 778 l 2,25,26
EndSplineSet
Substitution2: "'fina' Terminal Forms in Arabic lookup 4" alefwithhamzaabovefinal
Substitution2: "'aalt' Access All Alternates in Latin lookup 1" alefwithhamzaabovefinal
EndChar
StartChar: wawwithhamzaabove
Encoding: 1572 1572 220
Width: 691
GlyphClass: 2
Flags: W
AnchorPoint: "ArabicBelow" 340 -525 basechar 0
AnchorPoint: "ArabicAbove" 324 996 basechar 0
Fore
465 900 m 1,0,-1
 439 847 l 1,1,2
 391 835 391 835 362 814.5 c 128,-1,3
 333 794 333 794 333 775 c 0,4,5
 333 760 333 760 385 708 c 0,6,7
 410 684 410 684 410 663 c 0,8,9
 410 624 410 624 341 596 c 0,10,11
 258 562 258 562 112 562 c 1,12,-1
 132 602 l 1,13,14
 243 642 243 642 243 665 c 0,15,16
 243 679 243 679 207 710.5 c 128,-1,17
 171 742 171 742 171 758 c 0,18,19
 171 811 171 811 264.5 855.5 c 128,-1,20
 358 900 358 900 465 900 c 1,0,-1
604 18 m 2,21,22
 604 -168 604 -168 504 -287 c 0,23,24
 389 -422 389 -422 176 -422 c 2,25,-1
 88 -422 l 1,26,-1
 88 -404 l 1,27,28
 216 -363 216 -363 315 -258 c 0,29,30
 426 -138 426 -138 426 0 c 1,31,-1
 356 0 l 2,32,33
 219 0 219 0 158 80 c 0,34,35
 110 143 110 143 110 255 c 0,36,37
 110 381 110 381 185 457 c 0,38,39
 255 527 255 527 356 527 c 0,40,41
 454 527 454 527 527 462 c 0,42,43
 604 394 604 394 604 290 c 2,44,-1
 604 18 l 2,21,22
426 264 m 256,45,46
 426 334 426 334 356 334 c 256,47,48
 286 334 286 334 286 264 c 256,49,50
 286 193 286 193 356 193 c 256,51,52
 426 193 426 193 426 264 c 256,45,46
EndSplineSet
Substitution2: "'fina' Terminal Forms in Arabic lookup 4" wawwithhamzaabovefinal
Substitution2: "'aalt' Access All Alternates in Latin lookup 1" wawwithhamzaabovefinal
EndChar
StartChar: alefwithhamzabelow
Encoding: 1573 1573 221
Width: 796
GlyphClass: 2
Flags: W
AnchorPoint: "ArabicBelow" 204 -540 basechar 0
AnchorPoint: "ArabicAbove" 240 1392 basechar 0
Fore
275 -212 m 1,0,-1
 270 -258 l 1,1,2
 209 -301 209 -301 209 -334 c 0,3,4
 209 -338 209 -338 212 -345.5 c 128,-1,5
 215 -353 215 -353 268 -378 c 0,6,7
 293 -389 293 -389 299 -405 c 0,8,9
 301 -412 301 -412 301 -416 c 0,10,11
 301 -446 301 -446 256 -483 c 0,12,13
 202 -526 202 -526 102 -562 c 1,14,-1
 107 -526 l 1,15,16
 178 -467 178 -467 171 -449 c 0,17,18
 169 -440 169 -440 121 -419 c 0,19,20
 98 -409 98 -409 94.5 -399.5 c 128,-1,21
 91 -390 91 -390 91 -382 c 0,22,23
 91 -342 91 -342 147.5 -290 c 128,-1,24
 204 -238 204 -238 275 -212 c 1,0,-1
185 857 m 2,25,26
 185 991 185 991 150 1055 c 0,27,28
 130 1092 130 1092 88 1116 c 1,29,-1
 88 1129 l 1,30,31
 141 1160 141 1160 155 1169 c 0,32,33
 205 1201 205 1201 221.5 1224.5 c 128,-1,34
 238 1248 238 1248 276 1290 c 0,35,36
 341 1362 l 1,37,-1
 360 1362 l 1,38,-1
 360 200 l 2,39,40
 360 42 360 42 439 -34 c 0,41,42
 496 -90 496 -90 570 -90 c 2,43,-1
 708 -90 l 1,44,45
 676 -119 676 -119 582 -147.5 c 128,-1,46
 488 -176 488 -176 422 -176 c 0,47,48
 317 -176 317 -176 254 -102 c 0,49,50
 185 -21 185 -21 185 132 c 2,51,-1
 185 857 l 2,25,26
EndSplineSet
Substitution2: "'fina' Terminal Forms in Arabic lookup 4" alefwithhamzabelowfinal
Substitution2: "'aalt' Access All Alternates in Latin lookup 1" alefwithhamzabelowfinal
EndChar
StartChar: yehwithhamzaabove
Encoding: 1574 1574 222
Width: 2128
GlyphClass: 2
Flags: W
AnchorPoint: "ArabicBelow" 372 -132 basechar 0
AnchorPoint: "ArabicAbove" 372 852 basechar 0
Fore
577 759 m 1,0,-1
 551 707 l 1,1,2
 504 694 504 694 475 673.5 c 128,-1,3
 446 653 446 653 446 635 c 0,4,5
 446 620 446 620 497 568 c 0,6,7
 522 543 522 543 522 522 c 0,8,9
 522 483 522 483 454 455 c 0,10,11
 371 422 371 422 224 422 c 1,12,-1
 244 461 l 1,13,14
 355 502 355 502 355 525 c 0,15,16
 355 539 355 539 319.5 570 c 128,-1,17
 284 601 284 601 284 617 c 0,18,19
 284 671 284 671 377 715 c 128,-1,20
 470 759 470 759 577 759 c 1,0,-1
1589 575 m 1,21,-1
 1512 497 l 1,22,-1
 1674 172 l 2,23,24
 1686 150 1686 150 1686 123 c 0,25,26
 1686 76 1686 76 1658 40 c 0,27,28
 1627 0 1627 0 1582 0 c 2,29,-1
 88 0 l 1,30,-1
 88 47 l 1,31,32
 133 67 133 67 177 99 c 0,33,34
 208 123 208 123 253 163 c 0,35,36
 288 195 288 195 316 227 c 0,37,38
 347 264 347 264 375 310 c 1,39,-1
 408 310 l 1,40,41
 439 257 439 257 466 237 c 0,42,43
 526 193 526 193 646 193 c 2,44,-1
 1412 193 l 2,45,46
 1429 193 1429 193 1439.5 201 c 128,-1,47
 1450 209 1450 209 1450 224 c 0,48,49
 1450 236 1450 236 1443 250 c 2,50,-1
 1346 445 l 2,51,52
 1323 488 1323 488 1323 520 c 0,53,54
 1323 554 1323 554 1349 579 c 2,55,-1
 1518 748 l 2,56,57
 1535 765 1535 765 1558 773 c 128,-1,58
 1581 781 1581 781 1608 781 c 0,59,60
 1638 781 1638 781 1677.5 761.5 c 128,-1,61
 1717 742 1717 742 1728 720 c 2,62,-1
 1833 511 l 2,63,64
 1888 399 1888 399 1950 351 c 0,65,66
 1992 318 1992 318 2036 315 c 1,67,-1
 2041 303 l 1,68,69
 2001 242 2001 242 1986 216 c 0,70,71
 1963 176 1963 176 1957.5 157 c 128,-1,72
 1952 138 1952 138 1934 43 c 0,73,74
 1927 5 1927 5 1918 -28 c 1,75,-1
 1896 -39 l 1,76,-1
 1589 575 l 1,21,-1
EndSplineSet
Substitution2: "'fina' Terminal Forms in Arabic lookup 4" yehwithhamzaabovefinal
Substitution2: "'medi' Medial Forms in Arabic lookup 3" yehwithhamzaabovemedial
Substitution2: "'init' Initial Forms in Arabic lookup 2" yehwithhamzaaboveinitial
AlternateSubs2: "'aalt' Access All Alternates in Latin lookup 0" yehwithhamzaaboveinitial yehwithhamzaabovemedial yehwithhamzaabovefinal
EndChar
StartChar: arabicalef
Encoding: 1575 1575 223
Width: 796
GlyphClass: 2
Flags: W
AnchorPoint: "ArabicBelow" 456 -252 basechar 0
AnchorPoint: "ArabicAbove" 204 1392 basechar 0
Fore
185 857 m 2,0,1
 185 991 185 991 150 1055 c 0,2,3
 130 1092 130 1092 88 1116 c 1,4,-1
 88 1129 l 1,5,6
 141 1160 141 1160 155 1169 c 0,7,8
 205 1201 205 1201 221.5 1224.5 c 128,-1,9
 238 1248 238 1248 276 1290 c 0,10,11
 341 1362 l 1,12,-1
 360 1362 l 1,13,-1
 360 200 l 2,14,15
 360 42 360 42 439 -34 c 0,16,17
 496 -90 496 -90 570 -90 c 2,18,-1
 708 -90 l 1,19,20
 676 -119 676 -119 582 -147.5 c 128,-1,21
 488 -176 488 -176 422 -176 c 0,22,23
 317 -176 317 -176 254 -102 c 0,24,25
 185 -21 185 -21 185 132 c 2,26,-1
 185 857 l 2,0,1
EndSplineSet
Substitution2: "'fina' Terminal Forms in Arabic lookup 4" aleffinal
Substitution2: "'aalt' Access All Alternates in Latin lookup 1" aleffinal
EndChar
StartChar: beh
Encoding: 1576 1576 224
Width: 1718
GlyphClass: 2
Flags: W
AnchorPoint: "ArabicBelow" 1068 -444 basechar 0
AnchorPoint: "ArabicAbove" 972 744 basechar 0
Fore
1068 -141 m 256,0,1
 1104 -141 1104 -141 1129.5 -166.5 c 128,-1,2
 1155 -192 1155 -192 1155 -228 c 256,3,4
 1155 -264 1155 -264 1129.5 -289.5 c 128,-1,5
 1104 -315 1104 -315 1068 -315 c 256,6,7
 1032 -315 1032 -315 1006.5 -289.5 c 128,-1,8
 981 -264 981 -264 981 -228 c 256,9,10
 981 -192 981 -192 1006.5 -166.5 c 128,-1,11
 1032 -141 1032 -141 1068 -141 c 256,0,1
88 19 m 1,12,13
 127 38 127 38 182 85 c 0,14,15
 186 90 186 90 272 167 c 0,16,17
 304 197 304 197 338 252 c 0,18,19
 351 272 351 272 376 316 c 1,20,-1
 389 316 l 1,21,22
 428 248 428 248 480 223 c 0,23,24
 544 193 544 193 646 193 c 2,25,-1
 1455 193 l 1,26,-1
 1455 215 l 2,27,28
 1455 347 1455 347 1420 404 c 0,29,30
 1404 431 1404 431 1358 457 c 1,31,-1
 1358 470 l 1,32,33
 1411 501 1411 501 1425 510 c 0,34,35
 1475 541 1475 541 1491.5 565 c 128,-1,36
 1508 589 1508 589 1546 631 c 0,37,38
 1611 703 l 1,39,-1
 1630 703 l 1,40,-1
 1630 0 l 1,41,-1
 88 0 l 1,42,-1
 88 19 l 1,12,13
EndSplineSet
Substitution2: "'fina' Terminal Forms in Arabic lookup 4" behfinal
Substitution2: "'medi' Medial Forms in Arabic lookup 3" behmedial
Substitution2: "'init' Initial Forms in Arabic lookup 2" behinitial
AlternateSubs2: "'aalt' Access All Alternates in Latin lookup 0" behinitial behmedial behfinal
EndChar
StartChar: tehmarbuta
Encoding: 1577 1577 225
Width: 667
GlyphClass: 2
Flags: W
AnchorPoint: "ArabicBelow" 300 -144 basechar 0
AnchorPoint: "ArabicAbove" 228 1200 basechar 0
Fore
470 1008 m 0,0,1
 470 976 470 976 447 953 c 128,-1,2
 424 930 424 930 392 930 c 256,3,4
 360 930 360 930 337 953 c 128,-1,5
 314 976 314 976 314 1008 c 0,6,7
 314 1041 314 1041 336.5 1064 c 128,-1,8
 359 1087 359 1087 392 1087 c 256,9,10
 425 1087 425 1087 447.5 1064.5 c 128,-1,11
 470 1042 470 1042 470 1008 c 0,0,1
285 940 m 256,12,13
 285 908 285 908 262 885 c 128,-1,14
 239 862 239 862 206 862 c 0,15,16
 174 862 174 862 150.5 885.5 c 128,-1,17
 127 909 127 909 127 940 c 0,18,19
 127 973 127 973 150 996 c 128,-1,20
 173 1019 173 1019 206 1019 c 256,21,22
 239 1019 239 1019 262 996 c 128,-1,23
 285 973 285 973 285 940 c 256,12,13
386 0 m 2,24,-1
 88 0 l 1,25,-1
 88 264 l 2,26,27
 88 360 88 360 155.5 435 c 128,-1,28
 223 510 223 510 316 510 c 2,29,-1
 398 510 l 1,30,31
 388 585 388 585 358 626 c 0,32,33
 340 650 340 650 308 668 c 1,34,-1
 308 681 l 1,35,36
 362 713 362 713 392 734.5 c 128,-1,37
 422 756 422 756 441 777 c 0,38,39
 455 792 455 792 483 824 c 0,40,41
 500 844 500 844 561 914 c 1,42,-1
 580 914 l 1,43,-1
 580 193 l 2,44,45
 580 104 580 104 519 49 c 0,46,47
 463 0 463 0 386 0 c 2,24,-1
404 255 m 0,48,49
 404 325 404 325 334 325 c 256,50,51
 264 325 264 325 264 255 c 0,52,53
 264 221 264 221 280 207 c 128,-1,54
 296 193 296 193 334 193 c 0,55,56
 371 193 371 193 387.5 206.5 c 128,-1,57
 404 220 404 220 404 255 c 0,48,49
EndSplineSet
Substitution2: "'fina' Terminal Forms in Arabic lookup 4" tehmarbutafinal
Substitution2: "'aalt' Access All Alternates in Latin lookup 1" tehmarbutafinal
EndChar
StartChar: teh
Encoding: 1578 1578 226
Width: 1718
GlyphClass: 2
Flags: W
AnchorPoint: "ArabicBelow" 984 -144 basechar 0
AnchorPoint: "ArabicAbove" 972 744 basechar 0
Fore
1133 568 m 0,0,1
 1133 536 1133 536 1109.5 513 c 128,-1,2
 1086 490 1086 490 1055 490 c 256,3,4
 1023 490 1023 490 999.5 513 c 128,-1,5
 976 536 976 536 976 568 c 256,6,7
 976 600 976 600 998.5 623.5 c 128,-1,8
 1021 647 1021 647 1055 647 c 0,9,10
 1087 647 1087 647 1110 624 c 128,-1,11
 1133 601 1133 601 1133 568 c 0,0,1
947 500 m 256,12,13
 947 468 947 468 924.5 445 c 128,-1,14
 902 422 902 422 868 422 c 0,15,16
 837 422 837 422 813.5 445 c 128,-1,17
 790 468 790 468 790 500 c 0,18,19
 790 533 790 533 813 555.5 c 128,-1,20
 836 578 836 578 868 578 c 0,21,22
 902 578 902 578 924.5 555.5 c 128,-1,23
 947 533 947 533 947 500 c 256,12,13
88 19 m 1,24,25
 127 38 127 38 182 85 c 0,26,27
 186 90 186 90 272 167 c 0,28,29
 304 197 304 197 338 252 c 0,30,31
 351 272 351 272 376 316 c 1,32,-1
 389 316 l 1,33,34
 428 248 428 248 480 223 c 0,35,36
 544 193 544 193 646 193 c 2,37,-1
 1455 193 l 1,38,-1
 1455 215 l 2,39,40
 1455 347 1455 347 1420 404 c 0,41,42
 1404 431 1404 431 1358 457 c 1,43,-1
 1358 470 l 1,44,45
 1411 501 1411 501 1425 510 c 0,46,47
 1475 541 1475 541 1491.5 565 c 128,-1,48
 1508 589 1508 589 1546 631 c 0,49,50
 1611 703 l 1,51,-1
 1630 703 l 1,52,-1
 1630 0 l 1,53,-1
 88 0 l 1,54,-1
 88 19 l 1,24,25
EndSplineSet
Substitution2: "'fina' Terminal Forms in Arabic lookup 4" tehfinal
Substitution2: "'medi' Medial Forms in Arabic lookup 3" tehmedial
Substitution2: "'init' Initial Forms in Arabic lookup 2" tehinitial
AlternateSubs2: "'aalt' Access All Alternates in Latin lookup 0" tehinitial tehmedial tehfinal
EndChar
StartChar: theh
Encoding: 1579 1579 227
Width: 1718
GlyphClass: 2
Flags: W
AnchorPoint: "ArabicBelow" 948 -132 basechar 0
AnchorPoint: "ArabicAbove" 924 972 basechar 0
Fore
1020 726 m 256,0,1
 1020 694 1020 694 996.5 671 c 128,-1,2
 973 648 973 648 941 648 c 0,3,4
 911 648 911 648 887 670.5 c 128,-1,5
 863 693 863 693 863 726 c 0,6,7
 863 758 863 758 886 781.5 c 128,-1,8
 909 805 909 805 941 805 c 0,9,10
 975 805 975 805 997.5 781.5 c 128,-1,11
 1020 758 1020 758 1020 726 c 256,0,1
1133 568 m 0,12,13
 1133 536 1133 536 1109.5 513 c 128,-1,14
 1086 490 1086 490 1055 490 c 256,15,16
 1023 490 1023 490 999.5 513 c 128,-1,17
 976 536 976 536 976 568 c 256,18,19
 976 600 976 600 998.5 623.5 c 128,-1,20
 1021 647 1021 647 1055 647 c 0,21,22
 1087 647 1087 647 1110 624 c 128,-1,23
 1133 601 1133 601 1133 568 c 0,12,13
947 500 m 256,24,25
 947 468 947 468 924.5 445 c 128,-1,26
 902 422 902 422 868 422 c 0,27,28
 837 422 837 422 813.5 445 c 128,-1,29
 790 468 790 468 790 500 c 0,30,31
 790 533 790 533 813 555.5 c 128,-1,32
 836 578 836 578 868 578 c 0,33,34
 902 578 902 578 924.5 555.5 c 128,-1,35
 947 533 947 533 947 500 c 256,24,25
88 19 m 1,36,37
 127 38 127 38 182 85 c 0,38,39
 186 90 186 90 272 167 c 0,40,41
 304 197 304 197 338 252 c 0,42,43
 351 272 351 272 376 316 c 1,44,-1
 389 316 l 1,45,46
 428 248 428 248 480 223 c 0,47,48
 544 193 544 193 646 193 c 2,49,-1
 1455 193 l 1,50,-1
 1455 215 l 2,51,52
 1455 347 1455 347 1420 404 c 0,53,54
 1404 431 1404 431 1358 457 c 1,55,-1
 1358 470 l 1,56,57
 1411 501 1411 501 1425 510 c 0,58,59
 1475 541 1475 541 1491.5 565 c 128,-1,60
 1508 589 1508 589 1546 631 c 0,61,62
 1611 703 l 1,63,-1
 1630 703 l 1,64,-1
 1630 0 l 1,65,-1
 88 0 l 1,66,-1
 88 19 l 1,36,37
EndSplineSet
Substitution2: "'fina' Terminal Forms in Arabic lookup 4" thehfinal
Substitution2: "'medi' Medial Forms in Arabic lookup 3" thehmedial
Substitution2: "'init' Initial Forms in Arabic lookup 2" thehinitial
AlternateSubs2: "'aalt' Access All Alternates in Latin lookup 0" thehinitial thehmedial thehfinal
EndChar
StartChar: jeem
Encoding: 1580 1580 228
Width: 1204
GlyphClass: 2
Flags: W
AnchorPoint: "ArabicBelow" 600 -864 basechar 0
AnchorPoint: "ArabicAbove" 840 708 basechar 0
Fore
584 -231 m 256,0,1
 620 -231 620 -231 645.5 -256.5 c 128,-1,2
 671 -282 671 -282 671 -318 c 256,3,4
 671 -354 671 -354 645.5 -379.5 c 128,-1,5
 620 -405 620 -405 584 -405 c 256,6,7
 548 -405 548 -405 522.5 -379.5 c 128,-1,8
 497 -354 497 -354 497 -318 c 256,9,10
 497 -282 497 -282 522.5 -256.5 c 128,-1,11
 548 -231 548 -231 584 -231 c 256,0,1
722 0 m 2,12,13
 540 0 540 0 410 -83 c 0,14,15
 264 -177 264 -177 264 -334 c 0,16,17
 264 -490 264 -490 399 -570 c 0,18,19
 522 -642 522 -642 731 -642 c 2,20,-1
 984 -642 l 1,21,-1
 984 -659 l 1,22,23
 896 -700 896 -700 780 -735 c 0,24,25
 645 -775 645 -775 564 -775 c 0,26,27
 380 -775 380 -775 243 -665 c 0,28,29
 88 -540 88 -540 88 -331 c 0,30,31
 88 -177 88 -177 187 -51 c 0,32,33
 266 49 266 49 390 113 c 0,34,35
 492 166 492 166 553 166 c 1,36,37
 516 185 516 185 467.5 230.5 c 128,-1,38
 419 276 419 276 389 316 c 0,39,40
 318 410 318 410 269 520.5 c 128,-1,41
 220 631 220 631 220 701 c 1,42,-1
 360 837 l 1,43,44
 360 745 360 745 433 602 c 0,45,46
 514 442 514 442 624 357 c 0,47,48
 749 259 749 259 863 224 c 0,49,50
 962 193 962 193 1116 193 c 1,51,-1
 923 0 l 1,52,-1
 722 0 l 2,12,13
EndSplineSet
Substitution2: "'fina' Terminal Forms in Arabic lookup 4" jeemfinal
Substitution2: "'medi' Medial Forms in Arabic lookup 3" jeemmedial
Substitution2: "'init' Initial Forms in Arabic lookup 2" jeeminitial
AlternateSubs2: "'aalt' Access All Alternates in Latin lookup 0" jeeminitial jeemmedial jeemfinal
EndChar
StartChar: hah
Encoding: 1581 1581 229
Width: 1204
GlyphClass: 2
Flags: W
AnchorPoint: "ArabicBelow" 624 -864 basechar 0
AnchorPoint: "ArabicAbove" 840 636 basechar 0
Fore
722 0 m 2,0,1
 540 0 540 0 410 -83 c 0,2,3
 264 -177 264 -177 264 -334 c 0,4,5
 264 -490 264 -490 399 -570 c 0,6,7
 522 -642 522 -642 731 -642 c 2,8,-1
 984 -642 l 1,9,-1
 984 -659 l 1,10,11
 896 -700 896 -700 780 -735 c 0,12,13
 645 -775 645 -775 564 -775 c 0,14,15
 380 -775 380 -775 243 -665 c 0,16,17
 88 -540 88 -540 88 -331 c 0,18,19
 88 -177 88 -177 187 -51 c 0,20,21
 266 49 266 49 390 113 c 0,22,23
 492 166 492 166 553 166 c 1,24,25
 516 185 516 185 467.5 230.5 c 128,-1,26
 419 276 419 276 389 316 c 0,27,28
 318 410 318 410 269 520.5 c 128,-1,29
 220 631 220 631 220 701 c 1,30,-1
 360 837 l 1,31,32
 360 745 360 745 433 602 c 0,33,34
 514 442 514 442 624 357 c 0,35,36
 749 259 749 259 863 224 c 0,37,38
 962 193 962 193 1116 193 c 1,39,-1
 923 0 l 1,40,-1
 722 0 l 2,0,1
EndSplineSet
Substitution2: "'fina' Terminal Forms in Arabic lookup 4" hahfinal
Substitution2: "'medi' Medial Forms in Arabic lookup 3" hahmedial
Substitution2: "'init' Initial Forms in Arabic lookup 2" hahinitial
AlternateSubs2: "'aalt' Access All Alternates in Latin lookup 0" hahinitial hahmedial hahfinal
EndChar
StartChar: khah
Encoding: 1582 1582 230
Width: 1204
GlyphClass: 2
Flags: W
AnchorPoint: "ArabicBelow" 612 -852 basechar 0
AnchorPoint: "ArabicAbove" 612 1080 basechar 0
Fore
722 0 m 2,0,1
 540 0 540 0 410 -83 c 0,2,3
 264 -177 264 -177 264 -334 c 0,4,5
 264 -490 264 -490 399 -570 c 0,6,7
 522 -642 522 -642 731 -642 c 2,8,-1
 984 -642 l 1,9,-1
 984 -659 l 1,10,11
 896 -700 896 -700 780 -735 c 0,12,13
 645 -775 645 -775 564 -775 c 0,14,15
 380 -775 380 -775 243 -665 c 0,16,17
 88 -540 88 -540 88 -331 c 0,18,19
 88 -177 88 -177 187 -51 c 0,20,21
 266 49 266 49 390 113 c 0,22,23
 492 166 492 166 553 166 c 1,24,25
 516 185 516 185 467.5 230.5 c 128,-1,26
 419 276 419 276 389 316 c 0,27,28
 318 410 318 410 269 520.5 c 128,-1,29
 220 631 220 631 220 701 c 1,30,-1
 360 837 l 1,31,32
 360 745 360 745 433 602 c 0,33,34
 514 442 514 442 624 357 c 0,35,36
 749 259 749 259 863 224 c 0,37,38
 962 193 962 193 1116 193 c 1,39,-1
 923 0 l 1,40,-1
 722 0 l 2,0,1
642 909 m 256,41,42
 678 909 678 909 703.5 883.5 c 128,-1,43
 729 858 729 858 729 822 c 256,44,45
 729 786 729 786 703.5 760.5 c 128,-1,46
 678 735 678 735 642 735 c 256,47,48
 606 735 606 735 580.5 760.5 c 128,-1,49
 555 786 555 786 555 822 c 256,50,51
 555 858 555 858 580.5 883.5 c 128,-1,52
 606 909 606 909 642 909 c 256,41,42
EndSplineSet
Substitution2: "'fina' Terminal Forms in Arabic lookup 4" khahfinal
Substitution2: "'medi' Medial Forms in Arabic lookup 3" khahmedial
Substitution2: "'init' Initial Forms in Arabic lookup 2" khahinitial
AlternateSubs2: "'aalt' Access All Alternates in Latin lookup 0" khahinitial khahmedial khahfinal
EndChar
StartChar: dal
Encoding: 1583 1583 231
Width: 2285
GlyphClass: 2
Flags: W
AnchorPoint: "ArabicBelow" 1128 -228 basechar 0
AnchorPoint: "ArabicAbove" 1356 684 basechar 0
Fore
1951 193 m 2,0,1
 1978 193 1978 193 1995 200 c 0,2,3
 2021 212 2021 212 2021 237 c 0,4,5
 2021 264 2021 264 2003 272.5 c 128,-1,6
 1985 281 1985 281 1951 281 c 2,7,-1
 745 280 l 2,8,9
 640 280 640 280 560 336 c 0,10,11
 503 375 503 375 462 439 c 0,12,13
 434 496 l 1,14,-1
 571 633 l 1,15,16
 594 592 l 0,17,18
 627 545 627 545 671 516 c 0,19,20
 734 475 734 475 814 475 c 2,21,-1
 1986 475 l 2,22,23
 2074 475 2074 475 2135.5 405.5 c 128,-1,24
 2197 336 2197 336 2197 246 c 2,25,-1
 2197 0 l 1,26,-1
 88 0 l 1,27,-1
 88 19 l 1,28,29
 127 38 127 38 182 85 c 0,30,31
 186 90 186 90 272 167 c 0,32,33
 304 197 304 197 338 252 c 0,34,35
 351 272 351 272 376 316 c 1,36,-1
 389 316 l 1,37,38
 428 248 428 248 480 223 c 0,39,40
 544 193 544 193 646 193 c 2,41,-1
 1951 193 l 2,0,1
EndSplineSet
Substitution2: "'fina' Terminal Forms in Arabic lookup 4" dalfinal
Substitution2: "'aalt' Access All Alternates in Latin lookup 1" dalfinal
EndChar
StartChar: thal
Encoding: 1584 1584 232
Width: 2285
GlyphClass: 2
Flags: W
AnchorPoint: "ArabicBelow" 1116 -192 basechar 0
AnchorPoint: "ArabicAbove" 1296 756 basechar 0
Fore
456 788 m 256,0,1
 456 751 456 751 430.5 725.5 c 128,-1,2
 405 700 405 700 369 700 c 256,3,4
 333 700 333 700 307.5 725.5 c 128,-1,5
 282 751 282 751 282 788 c 256,6,7
 282 824 282 824 307.5 849.5 c 128,-1,8
 333 875 333 875 369 875 c 256,9,10
 405 875 405 875 430.5 849.5 c 128,-1,11
 456 824 456 824 456 788 c 256,0,1
1951 193 m 2,12,13
 1978 193 1978 193 1995 200 c 0,14,15
 2021 212 2021 212 2021 237 c 0,16,17
 2021 264 2021 264 2003 272.5 c 128,-1,18
 1985 281 1985 281 1951 281 c 2,19,-1
 745 280 l 2,20,21
 640 280 640 280 560 336 c 0,22,23
 503 375 503 375 462 439 c 0,24,25
 434 496 l 1,26,-1
 571 633 l 1,27,28
 594 592 l 0,29,30
 627 545 627 545 671 516 c 0,31,32
 734 475 734 475 814 475 c 2,33,-1
 1986 475 l 2,34,35
 2074 475 2074 475 2135.5 405.5 c 128,-1,36
 2197 336 2197 336 2197 246 c 2,37,-1
 2197 0 l 1,38,-1
 88 0 l 1,39,-1
 88 19 l 1,40,41
 127 38 127 38 182 85 c 0,42,43
 186 90 186 90 272 167 c 0,44,45
 304 197 304 197 338 252 c 0,46,47
 351 272 351 272 376 316 c 1,48,-1
 389 316 l 1,49,50
 428 248 428 248 480 223 c 0,51,52
 544 193 544 193 646 193 c 2,53,-1
 1951 193 l 2,12,13
EndSplineSet
Substitution2: "'fina' Terminal Forms in Arabic lookup 4" thalfinal
Substitution2: "'aalt' Access All Alternates in Latin lookup 1" thalfinal
EndChar
StartChar: reh
Encoding: 1585 1585 233
Width: 645
GlyphClass: 2
Flags: W
AnchorPoint: "ArabicBelow" 340 -525 basechar 0
AnchorPoint: "ArabicAbove" 384 672 basechar 0
Fore
558 0 m 2,0,1
 558 -77 558 -77 519 -167 c 0,2,3
 474 -274 474 -274 391 -341 c 0,4,5
 291 -423 291 -423 158 -423 c 2,6,-1
 88 -423 l 1,7,-1
 88 -405 l 1,8,9
 220 -363 220 -363 296 -258 c 0,10,11
 382 -138 382 -138 382 43 c 2,12,-1
 382 163 l 2,13,14
 382 296 382 296 348 360 c 0,15,16
 328 398 328 398 286 422 c 1,17,-1
 286 435 l 1,18,19
 338 466 338 466 352 475 c 0,20,21
 403 506 403 506 419.5 530 c 128,-1,22
 436 554 436 554 474 596 c 0,23,24
 539 668 l 1,25,-1
 558 668 l 1,26,-1
 558 0 l 2,0,1
EndSplineSet
Substitution2: "'fina' Terminal Forms in Arabic lookup 4" rehfinal
Substitution2: "'aalt' Access All Alternates in Latin lookup 1" rehfinal
EndChar
StartChar: zain
Encoding: 1586 1586 234
Width: 645
GlyphClass: 2
Flags: W
AnchorPoint: "ArabicBelow" 340 -525 basechar 0
AnchorPoint: "ArabicAbove" 408 1104 basechar 0
Fore
417 948 m 256,0,1
 454 948 454 948 479 922.5 c 128,-1,2
 504 897 504 897 504 861 c 256,3,4
 504 825 504 825 479 799.5 c 128,-1,5
 454 774 454 774 417 774 c 256,6,7
 381 774 381 774 355.5 799.5 c 128,-1,8
 330 825 330 825 330 861 c 256,9,10
 330 897 330 897 355.5 922.5 c 128,-1,11
 381 948 381 948 417 948 c 256,0,1
558 0 m 2,12,13
 558 -77 558 -77 519 -167 c 0,14,15
 474 -274 474 -274 391 -341 c 0,16,17
 291 -423 291 -423 158 -423 c 2,18,-1
 88 -423 l 1,19,-1
 88 -405 l 1,20,21
 220 -363 220 -363 296 -258 c 0,22,23
 382 -138 382 -138 382 43 c 2,24,-1
 382 163 l 2,25,26
 382 296 382 296 348 360 c 0,27,28
 328 398 328 398 286 422 c 1,29,-1
 286 435 l 1,30,31
 338 466 338 466 352 475 c 0,32,33
 403 506 403 506 419.5 530 c 128,-1,34
 436 554 436 554 474 596 c 0,35,36
 539 668 l 1,37,-1
 558 668 l 1,38,-1
 558 0 l 2,12,13
EndSplineSet
Substitution2: "'fina' Terminal Forms in Arabic lookup 4" zainfinal
Substitution2: "'aalt' Access All Alternates in Latin lookup 1" zainfinal
EndChar
StartChar: seen
Encoding: 1587 1587 235
Width: 2140
GlyphClass: 2
Flags: W
AnchorPoint: "ArabicBelow" 1668 -192 basechar 0
AnchorPoint: "ArabicAbove" 1656 888 basechar 0
Fore
1068 -88 m 2,0,1
 1128 -88 1128 -88 1168 -53.5 c 128,-1,2
 1208 -19 1208 -19 1208 35 c 2,3,-1
 1208 176 l 2,4,5
 1208 247 1208 247 1186.5 293.5 c 128,-1,6
 1165 340 1165 340 1112 369 c 1,7,-1
 1112 382 l 1,8,9
 1165 413 1165 413 1179 422 c 0,10,11
 1229 454 1229 454 1245.5 477.5 c 128,-1,12
 1262 501 1262 501 1300 543 c 0,13,14
 1365 615 l 1,15,-1
 1384 615 l 1,16,-1
 1384 193 l 1,17,-1
 1560 193 l 1,18,19
 1560 308 1560 308 1525 362 c 0,20,21
 1508 388 1508 388 1463 413 c 1,22,-1
 1463 426 l 1,23,24
 1516 457 1516 457 1530 466 c 0,25,26
 1580 497 1580 497 1597 521 c 128,-1,27
 1614 545 1614 545 1651 587 c 0,28,29
 1717 659 l 1,30,-1
 1736 659 l 1,31,-1
 1736 193 l 1,32,-1
 1876 193 l 1,33,-1
 1876 215 l 2,34,35
 1876 347 1876 347 1842 404 c 0,36,37
 1826 431 1826 431 1780 457 c 1,38,-1
 1780 470 l 1,39,40
 1833 501 1833 501 1847 510 c 0,41,42
 1897 541 1897 541 1913.5 565 c 128,-1,43
 1930 589 1930 589 1968 631 c 0,44,45
 2033 703 l 1,46,-1
 2052 703 l 1,47,-1
 2052 0 l 1,48,-1
 1384 0 l 1,49,-1
 1384 -12 l 2,50,51
 1384 -135 1384 -135 1308.5 -208 c 128,-1,52
 1233 -281 1233 -281 1103 -281 c 2,53,-1
 88 -281 l 1,54,-1
 88 -262 l 1,55,56
 127 -243 127 -243 182 -196 c 0,57,58
 186 -192 186 -192 272 -114 c 0,59,60
 304 -84 304 -84 338 -29 c 0,61,62
 351 -10 351 -10 376 35 c 1,63,-1
 389 35 l 1,64,65
 429 -34 429 -34 477 -58 c 0,66,67
 540 -88 540 -88 642 -88 c 2,68,-1
 1068 -88 l 2,0,1
EndSplineSet
Substitution2: "'fina' Terminal Forms in Arabic lookup 4" seenfinal
Substitution2: "'medi' Medial Forms in Arabic lookup 3" seenmedial
Substitution2: "'init' Initial Forms in Arabic lookup 2" seeninitial
AlternateSubs2: "'aalt' Access All Alternates in Latin lookup 0" seeninitial seenmedial seenfinal
EndChar
StartChar: sheen
Encoding: 1588 1588 236
Width: 2140
GlyphClass: 2
Flags: W
AnchorPoint: "ArabicBelow" 1632 -204 basechar 0
AnchorPoint: "ArabicAbove" 1524 1272 basechar 0
Fore
1677 940 m 0,0,1
 1709 940 1709 940 1732 917 c 128,-1,2
 1755 894 1755 894 1755 861 c 256,3,4
 1755 829 1755 829 1732 806 c 128,-1,5
 1709 783 1709 783 1677 783 c 256,6,7
 1644 783 1644 783 1621.5 806 c 128,-1,8
 1599 829 1599 829 1599 861 c 256,9,10
 1599 893 1599 893 1621.5 916.5 c 128,-1,11
 1644 940 1644 940 1677 940 c 0,0,1
1490 871 m 256,12,13
 1522 871 1522 871 1545 848 c 128,-1,14
 1568 825 1568 825 1568 793 c 256,15,16
 1568 761 1568 761 1544.5 738 c 128,-1,17
 1521 715 1521 715 1490 715 c 256,18,19
 1459 715 1459 715 1435.5 737.5 c 128,-1,20
 1412 760 1412 760 1412 793 c 256,21,22
 1412 825 1412 825 1434.5 848 c 128,-1,23
 1457 871 1457 871 1490 871 c 256,12,13
1564 1098 m 0,24,25
 1596 1098 1596 1098 1619 1075 c 128,-1,26
 1642 1052 1642 1052 1642 1020 c 256,27,28
 1642 987 1642 987 1619 964 c 128,-1,29
 1596 941 1596 941 1564 941 c 256,30,31
 1531 941 1531 941 1508 964 c 128,-1,32
 1485 987 1485 987 1485 1020 c 0,33,34
 1485 1051 1485 1051 1507.5 1074.5 c 128,-1,35
 1530 1098 1530 1098 1564 1098 c 0,24,25
1068 -88 m 2,36,37
 1128 -88 1128 -88 1168 -53.5 c 128,-1,38
 1208 -19 1208 -19 1208 35 c 2,39,-1
 1208 176 l 2,40,41
 1208 247 1208 247 1186.5 293.5 c 128,-1,42
 1165 340 1165 340 1112 369 c 1,43,-1
 1112 382 l 1,44,45
 1165 413 1165 413 1179 422 c 0,46,47
 1229 454 1229 454 1245.5 477.5 c 128,-1,48
 1262 501 1262 501 1300 543 c 0,49,50
 1365 615 l 1,51,-1
 1384 615 l 1,52,-1
 1384 193 l 1,53,-1
 1560 193 l 1,54,55
 1560 308 1560 308 1525 362 c 0,56,57
 1508 388 1508 388 1463 413 c 1,58,-1
 1463 426 l 1,59,60
 1516 457 1516 457 1530 466 c 0,61,62
 1580 497 1580 497 1597 521 c 128,-1,63
 1614 545 1614 545 1651 587 c 0,64,65
 1717 659 l 1,66,-1
 1736 659 l 1,67,-1
 1736 193 l 1,68,-1
 1876 193 l 1,69,-1
 1876 215 l 2,70,71
 1876 347 1876 347 1842 404 c 0,72,73
 1826 431 1826 431 1780 457 c 1,74,-1
 1780 470 l 1,75,76
 1833 501 1833 501 1847 510 c 0,77,78
 1897 541 1897 541 1913.5 565 c 128,-1,79
 1930 589 1930 589 1968 631 c 0,80,81
 2033 703 l 1,82,-1
 2052 703 l 1,83,-1
 2052 0 l 1,84,-1
 1384 0 l 1,85,-1
 1384 -12 l 2,86,87
 1384 -135 1384 -135 1308.5 -208 c 128,-1,88
 1233 -281 1233 -281 1103 -281 c 2,89,-1
 88 -281 l 1,90,-1
 88 -262 l 1,91,92
 127 -243 127 -243 182 -196 c 0,93,94
 186 -192 186 -192 272 -114 c 0,95,96
 304 -84 304 -84 338 -29 c 0,97,98
 351 -10 351 -10 376 35 c 1,99,-1
 389 35 l 1,100,101
 429 -34 429 -34 477 -58 c 0,102,103
 540 -88 540 -88 642 -88 c 2,104,-1
 1068 -88 l 2,36,37
EndSplineSet
Substitution2: "'fina' Terminal Forms in Arabic lookup 4" sheenfinal
Substitution2: "'medi' Medial Forms in Arabic lookup 3" sheenmedial
Substitution2: "'init' Initial Forms in Arabic lookup 2" sheeninitial
AlternateSubs2: "'aalt' Access All Alternates in Latin lookup 0" sheeninitial sheenmedial sheenfinal
EndChar
StartChar: sad
Encoding: 1589 1589 237
Width: 2983
GlyphClass: 2
Flags: W
AnchorPoint: "ArabicBelow" 1836 -180 basechar 0
AnchorPoint: "ArabicAbove" 1848 744 basechar 0
Fore
2720 237 m 0,0,1
 2720 264 2720 264 2701.5 272.5 c 128,-1,2
 2683 281 2683 281 2650 281 c 2,3,-1
 1103 281 l 1,4,-1
 1103 193 l 1,5,-1
 2650 193 l 2,6,7
 2677 193 2677 193 2694 200 c 0,8,9
 2720 212 2720 212 2720 237 c 0,0,1
787 -88 m 2,10,11
 846 -88 846 -88 886.5 -53.5 c 128,-1,12
 927 -19 927 -19 927 35 c 2,13,-1
 927 163 l 2,14,15
 927 298 927 298 893 378 c 0,16,17
 868 436 868 436 831 457 c 1,18,-1
 831 470 l 1,19,20
 883 501 883 501 897 510 c 0,21,22
 947 541 947 541 964 565 c 128,-1,23
 981 589 981 589 1019 631 c 0,24,25
 1084 703 l 1,26,-1
 1103 703 l 1,27,-1
 1103 475 l 1,28,-1
 2685 475 l 2,29,30
 2773 475 2773 475 2834.5 405.5 c 128,-1,31
 2896 336 2896 336 2896 246 c 2,32,-1
 2896 0 l 1,33,-1
 1103 0 l 1,34,-1
 1103 -12 l 2,35,36
 1103 -135 1103 -135 1027.5 -208 c 128,-1,37
 952 -281 952 -281 822 -281 c 2,38,-1
 88 -281 l 1,39,-1
 88 -262 l 1,40,41
 124 -244 124 -244 173 -196 c 0,42,43
 214 -155 214 -155 254 -114 c 0,44,45
 291 -81 291 -81 320 -46.5 c 128,-1,46
 349 -12 349 -12 376 35 c 1,47,-1
 389 35 l 1,48,49
 428 -33 428 -33 480 -58 c 0,50,51
 544 -88 544 -88 646 -88 c 2,52,-1
 787 -88 l 2,10,11
EndSplineSet
Substitution2: "'fina' Terminal Forms in Arabic lookup 4" sadfinal
Substitution2: "'medi' Medial Forms in Arabic lookup 3" sadmedial
Substitution2: "'init' Initial Forms in Arabic lookup 2" sadinitial
AlternateSubs2: "'aalt' Access All Alternates in Latin lookup 0" sadinitial sadmedial sadfinal
EndChar
StartChar: dad
Encoding: 1590 1590 238
Width: 2983
GlyphClass: 2
Flags: W
AnchorPoint: "ArabicBelow" 1896 -120 basechar 0
AnchorPoint: "ArabicAbove" 1896 960 basechar 0
Fore
1999 734 m 256,0,1
 1999 698 1999 698 1973.5 672.5 c 128,-1,2
 1948 647 1948 647 1912 647 c 256,3,4
 1876 647 1876 647 1850.5 672.5 c 128,-1,5
 1825 698 1825 698 1825 734 c 256,6,7
 1825 770 1825 770 1850.5 795.5 c 128,-1,8
 1876 821 1876 821 1912 821 c 256,9,10
 1948 821 1948 821 1973.5 795.5 c 128,-1,11
 1999 770 1999 770 1999 734 c 256,0,1
2720 237 m 0,12,13
 2720 264 2720 264 2701.5 272.5 c 128,-1,14
 2683 281 2683 281 2650 281 c 2,15,-1
 1103 281 l 1,16,-1
 1103 193 l 1,17,-1
 2650 193 l 2,18,19
 2677 193 2677 193 2694 200 c 0,20,21
 2720 212 2720 212 2720 237 c 0,12,13
787 -88 m 2,22,23
 846 -88 846 -88 886.5 -53.5 c 128,-1,24
 927 -19 927 -19 927 35 c 2,25,-1
 927 163 l 2,26,27
 927 298 927 298 893 378 c 0,28,29
 868 436 868 436 831 457 c 1,30,-1
 831 470 l 1,31,32
 883 501 883 501 897 510 c 0,33,34
 947 541 947 541 964 565 c 128,-1,35
 981 589 981 589 1019 631 c 0,36,37
 1084 703 l 1,38,-1
 1103 703 l 1,39,-1
 1103 475 l 1,40,-1
 2685 475 l 2,41,42
 2773 475 2773 475 2834.5 405.5 c 128,-1,43
 2896 336 2896 336 2896 246 c 2,44,-1
 2896 0 l 1,45,-1
 1103 0 l 1,46,-1
 1103 -12 l 2,47,48
 1103 -135 1103 -135 1027.5 -208 c 128,-1,49
 952 -281 952 -281 822 -281 c 2,50,-1
 88 -281 l 1,51,-1
 88 -262 l 1,52,53
 127 -243 127 -243 182 -196 c 0,54,55
 186 -192 186 -192 272 -114 c 0,56,57
 304 -84 304 -84 338 -29 c 0,58,59
 351 -10 351 -10 376 35 c 1,60,-1
 389 35 l 1,61,62
 428 -33 428 -33 480 -58 c 0,63,64
 544 -88 544 -88 646 -88 c 2,65,-1
 787 -88 l 2,22,23
EndSplineSet
Substitution2: "'fina' Terminal Forms in Arabic lookup 4" dadfinal
Substitution2: "'medi' Medial Forms in Arabic lookup 3" dadmedial
Substitution2: "'init' Initial Forms in Arabic lookup 2" dadinitial
AlternateSubs2: "'aalt' Access All Alternates in Latin lookup 0" dadinitial dadmedial dadfinal
EndChar
StartChar: tah
Encoding: 1591 1591 239
Width: 2769
GlyphClass: 2
Flags: W
AnchorPoint: "ArabicBelow" 1620 -120 basechar 0
AnchorPoint: "ArabicAbove" 1812 1068 basechar 0
Fore
2506 237 m 0,0,1
 2506 264 2506 264 2487.5 272.5 c 128,-1,2
 2469 281 2469 281 2435 281 c 2,3,-1
 889 281 l 1,4,-1
 889 193 l 1,5,-1
 2435 193 l 2,6,7
 2463 193 2463 193 2479 200 c 0,8,9
 2506 212 2506 212 2506 237 c 0,0,1
713 193 m 1,10,-1
 713 857 l 2,11,12
 713 991 713 991 679 1055 c 0,13,14
 658 1092 658 1092 616 1116 c 1,15,-1
 616 1129 l 1,16,17
 669 1160 669 1160 683 1169 c 0,18,19
 733 1201 733 1201 749.5 1224.5 c 128,-1,20
 766 1248 766 1248 804 1290 c 0,21,22
 869 1362 l 1,23,-1
 889 1362 l 1,24,-1
 889 475 l 1,25,-1
 2471 475 l 2,26,27
 2559 475 2559 475 2620.5 407 c 128,-1,28
 2682 339 2682 339 2682 246 c 2,29,-1
 2682 0 l 1,30,-1
 88 0 l 1,31,-1
 88 19 l 1,32,33
 127 38 127 38 182 85 c 0,34,35
 186 90 186 90 272 167 c 0,36,37
 304 197 304 197 338 252 c 0,38,39
 351 272 351 272 376 316 c 1,40,-1
 389 316 l 1,41,42
 428 248 428 248 480 223 c 0,43,44
 544 193 544 193 646 193 c 2,45,-1
 713 193 l 1,10,-1
EndSplineSet
Substitution2: "'fina' Terminal Forms in Arabic lookup 4" tahfinal
Substitution2: "'medi' Medial Forms in Arabic lookup 3" tahmedial
Substitution2: "'init' Initial Forms in Arabic lookup 2" tahinitial
AlternateSubs2: "'aalt' Access All Alternates in Latin lookup 0" tahinitial tahmedial tahfinal
EndChar
StartChar: zah
Encoding: 1592 1592 240
Width: 2769
GlyphClass: 2
Flags: W
AnchorPoint: "ArabicBelow" 1704 -132 basechar 0
AnchorPoint: "ArabicAbove" 1716 1044 basechar 0
Fore
1784 713 m 256,0,1
 1784 677 1784 677 1758.5 651.5 c 128,-1,2
 1733 626 1733 626 1697 626 c 256,3,4
 1661 626 1661 626 1635.5 651.5 c 128,-1,5
 1610 677 1610 677 1610 713 c 256,6,7
 1610 749 1610 749 1635.5 774.5 c 128,-1,8
 1661 800 1661 800 1697 800 c 256,9,10
 1733 800 1733 800 1758.5 774.5 c 128,-1,11
 1784 749 1784 749 1784 713 c 256,0,1
2506 237 m 0,12,13
 2506 264 2506 264 2487.5 272.5 c 128,-1,14
 2469 281 2469 281 2435 281 c 2,15,-1
 889 281 l 1,16,-1
 889 193 l 1,17,-1
 2435 193 l 2,18,19
 2463 193 2463 193 2479 200 c 0,20,21
 2506 212 2506 212 2506 237 c 0,12,13
713 193 m 1,22,-1
 713 857 l 2,23,24
 713 991 713 991 679 1055 c 0,25,26
 658 1092 658 1092 616 1116 c 1,27,-1
 616 1129 l 1,28,29
 669 1160 669 1160 683 1169 c 0,30,31
 733 1201 733 1201 749.5 1224.5 c 128,-1,32
 766 1248 766 1248 804 1290 c 0,33,34
 869 1362 l 1,35,-1
 889 1362 l 1,36,-1
 889 475 l 1,37,-1
 2471 475 l 2,38,39
 2559 475 2559 475 2620.5 407 c 128,-1,40
 2682 339 2682 339 2682 246 c 2,41,-1
 2682 0 l 1,42,-1
 88 0 l 1,43,-1
 88 19 l 1,44,45
 127 38 127 38 182 85 c 0,46,47
 186 90 186 90 272 167 c 0,48,49
 304 197 304 197 338 252 c 0,50,51
 351 272 351 272 376 316 c 1,52,-1
 389 316 l 1,53,54
 428 248 428 248 480 223 c 0,55,56
 544 193 544 193 646 193 c 2,57,-1
 713 193 l 1,22,-1
EndSplineSet
Substitution2: "'fina' Terminal Forms in Arabic lookup 4" zahfinal
Substitution2: "'medi' Medial Forms in Arabic lookup 3" zahmedial
Substitution2: "'init' Initial Forms in Arabic lookup 2" zahinitial
AlternateSubs2: "'aalt' Access All Alternates in Latin lookup 0" zahinitial zahmedial zahfinal
EndChar
StartChar: ain
Encoding: 1593 1593 241
Width: 1125
GlyphClass: 2
Flags: W
AnchorPoint: "ArabicBelow" 600 -840 basechar 0
AnchorPoint: "ArabicAbove" 516 900 basechar 0
Fore
722 0 m 2,0,1
 540 0 540 0 410 -83 c 0,2,3
 264 -177 264 -177 264 -334 c 0,4,5
 264 -490 264 -490 399 -570 c 0,6,7
 522 -642 522 -642 731 -642 c 2,8,-1
 984 -642 l 1,9,-1
 984 -659 l 1,10,11
 896 -700 896 -700 780 -735 c 0,12,13
 645 -775 645 -775 564 -775 c 0,14,15
 380 -775 380 -775 243 -665 c 0,16,17
 88 -540 88 -540 88 -331 c 0,18,19
 88 -211 88 -211 148 -108 c 0,20,21
 199 -20 199 -20 288 48 c 1,22,23
 233 103 233 103 198 166 c 0,24,25
 149 253 149 253 149 343 c 0,26,27
 149 512 149 512 287 611 c 0,28,29
 412 701 412 701 604 701 c 2,30,-1
 809 701 l 1,31,-1
 809 642 l 1,32,33
 636 609 l 0,34,35
 510 580 510 580 443 533 c 0,36,37
 352 469 352 469 352 366 c 0,38,39
 352 283 352 283 444 236 c 0,40,41
 530 193 530 193 668 193 c 2,42,-1
 1037 193 l 1,43,-1
 844 0 l 1,44,-1
 722 0 l 2,0,1
EndSplineSet
Substitution2: "'fina' Terminal Forms in Arabic lookup 4" ainfinal
Substitution2: "'medi' Medial Forms in Arabic lookup 3" ainmedial
Substitution2: "'init' Initial Forms in Arabic lookup 2" aininitial
AlternateSubs2: "'aalt' Access All Alternates in Latin lookup 0" aininitial ainmedial ainfinal
EndChar
StartChar: ghain
Encoding: 1594 1594 242
Width: 1125
GlyphClass: 2
Flags: W
AnchorPoint: "ArabicBelow" 636 -852 basechar 0
AnchorPoint: "ArabicAbove" 528 1212 basechar 0
Fore
545 1071 m 256,0,1
 581 1071 581 1071 606.5 1045.5 c 128,-1,2
 632 1020 632 1020 632 984 c 256,3,4
 632 948 632 948 606.5 922.5 c 128,-1,5
 581 897 581 897 545 897 c 256,6,7
 509 897 509 897 483.5 922.5 c 128,-1,8
 458 948 458 948 458 984 c 256,9,10
 458 1020 458 1020 483.5 1045.5 c 128,-1,11
 509 1071 509 1071 545 1071 c 256,0,1
722 0 m 2,12,13
 540 0 540 0 410 -83 c 0,14,15
 264 -177 264 -177 264 -334 c 0,16,17
 264 -490 264 -490 399 -570 c 0,18,19
 522 -642 522 -642 731 -642 c 2,20,-1
 984 -642 l 1,21,-1
 984 -659 l 1,22,23
 896 -700 896 -700 780 -735 c 0,24,25
 645 -775 645 -775 564 -775 c 0,26,27
 380 -775 380 -775 243 -665 c 0,28,29
 88 -540 88 -540 88 -331 c 0,30,31
 88 -211 88 -211 148 -108 c 0,32,33
 199 -20 199 -20 288 48 c 1,34,35
 233 103 233 103 198 166 c 0,36,37
 149 253 149 253 149 343 c 0,38,39
 149 512 149 512 287 611 c 0,40,41
 412 701 412 701 604 701 c 2,42,-1
 809 701 l 1,43,-1
 809 642 l 1,44,45
 636 609 l 0,46,47
 510 580 510 580 443 533 c 0,48,49
 352 469 352 469 352 366 c 0,50,51
 352 283 352 283 444 236 c 0,52,53
 530 193 530 193 668 193 c 2,54,-1
 1037 193 l 1,55,-1
 844 0 l 1,56,-1
 722 0 l 2,12,13
EndSplineSet
Substitution2: "'fina' Terminal Forms in Arabic lookup 4" ghainfinal
Substitution2: "'medi' Medial Forms in Arabic lookup 3" ghainmedial
Substitution2: "'init' Initial Forms in Arabic lookup 2" ghaininitial
AlternateSubs2: "'aalt' Access All Alternates in Latin lookup 0" ghaininitial ghainmedial ghainfinal
EndChar
StartChar: tatweel
Encoding: 1600 1600 243
Width: 1189
GlyphClass: 2
Flags: W
Fore
1189 0 m 1,0,-1
 -1 0 l 1,1,-1
 -2 193 l 1,2,-1
 1188 193 l 1,3,-1
 1189 0 l 1,0,-1
EndSplineSet
EndChar
StartChar: feh
Encoding: 1601 1601 244
Width: 1737
GlyphClass: 2
Flags: W
AnchorPoint: "ArabicBelow" 936 -168 basechar 0
AnchorPoint: "ArabicAbove" 1284 1224 basechar 0
Fore
1392 976 m 256,0,1
 1392 944 1392 944 1369 920.5 c 128,-1,2
 1346 897 1346 897 1314 897 c 0,3,4
 1283 897 1283 897 1259.5 920 c 128,-1,5
 1236 943 1236 943 1236 976 c 0,6,7
 1236 1007 1236 1007 1259 1030.5 c 128,-1,8
 1282 1054 1282 1054 1314 1054 c 256,9,10
 1346 1054 1346 1054 1369 1031 c 128,-1,11
 1392 1008 1392 1008 1392 976 c 256,0,1
1474 527 m 256,12,13
 1474 598 1474 598 1404 598 c 256,14,15
 1333 598 1333 598 1333 527 c 256,16,17
 1333 457 1333 457 1404 457 c 256,18,19
 1474 457 1474 457 1474 527 c 256,12,13
88 0 m 1,20,-1
 88 19 l 1,21,22
 127 38 127 38 182 85 c 0,23,24
 186 90 186 90 272 167 c 0,25,26
 304 197 304 197 338 252 c 0,27,28
 351 272 351 272 376 316 c 1,29,-1
 389 316 l 1,30,31
 428 248 428 248 480 223 c 0,32,33
 544 193 544 193 646 193 c 2,34,-1
 1402 193 l 2,35,36
 1431 193 1431 193 1451.5 214 c 128,-1,37
 1472 235 1472 235 1472 264 c 2,38,-1
 1472 281 l 1,39,-1
 1404 281 l 2,40,41
 1283 281 1283 281 1224 352 c 0,42,43
 1173 414 1173 414 1173 519 c 0,44,45
 1173 632 1173 632 1240 702.5 c 128,-1,46
 1307 773 1307 773 1404 773 c 0,47,48
 1508 773 1508 773 1574 716 c 0,49,50
 1650 651 1650 651 1650 527 c 2,51,-1
 1649 211 l 2,52,53
 1649 125 1649 125 1586.5 62.5 c 128,-1,54
 1524 0 1524 0 1437 0 c 2,55,-1
 88 0 l 1,20,-1
EndSplineSet
Substitution2: "'fina' Terminal Forms in Arabic lookup 4" fehfinal
Substitution2: "'medi' Medial Forms in Arabic lookup 3" fehmedial
Substitution2: "'init' Initial Forms in Arabic lookup 2" fehinitial
AlternateSubs2: "'aalt' Access All Alternates in Latin lookup 0" fehinitial fehmedial fehfinal
EndChar
StartChar: qaf
Encoding: 1602 1602 245
Width: 1426
GlyphClass: 2
Flags: W
AnchorPoint: "ArabicBelow" 696 -420 basechar 0
AnchorPoint: "ArabicAbove" 984 900 basechar 0
Fore
1157 727 m 0,0,1
 1157 695 1157 695 1133.5 672 c 128,-1,2
 1110 649 1110 649 1078 649 c 256,3,4
 1047 649 1047 649 1023.5 672 c 128,-1,5
 1000 695 1000 695 1000 727 c 256,6,7
 1000 759 1000 759 1022.5 782.5 c 128,-1,8
 1045 806 1045 806 1078 806 c 256,9,10
 1111 806 1111 806 1134 783 c 128,-1,11
 1157 760 1157 760 1157 727 c 0,0,1
971 659 m 256,12,13
 971 627 971 627 948 604 c 128,-1,14
 925 581 925 581 892 581 c 0,15,16
 860 581 860 581 837 604.5 c 128,-1,17
 814 628 814 628 814 659 c 0,18,19
 814 692 814 692 837 714.5 c 128,-1,20
 860 737 860 737 892 737 c 0,21,22
 925 737 925 737 948 714.5 c 128,-1,23
 971 692 971 692 971 659 c 256,12,13
1163 264 m 256,24,25
 1163 334 1163 334 1092 334 c 256,26,27
 1022 334 1022 334 1022 264 c 256,28,29
 1022 193 1022 193 1092 193 c 256,30,31
 1163 193 1163 193 1163 264 c 256,24,25
1338 -70 m 2,32,33
 1338 -156 1338 -156 1275.5 -218.5 c 128,-1,34
 1213 -281 1213 -281 1126 -281 c 2,35,-1
 88 -281 l 1,36,-1
 88 -262 l 1,37,38
 127 -243 127 -243 182 -196 c 0,39,40
 186 -192 186 -192 272 -114 c 0,41,42
 304 -84 304 -84 338 -29 c 0,43,44
 351 -10 351 -10 376 35 c 1,45,-1
 389 35 l 1,46,47
 429 -34 429 -34 477 -58 c 0,48,49
 540 -88 540 -88 642 -88 c 2,50,-1
 1091 -88 l 2,51,52
 1120 -88 1120 -88 1140.5 -67.5 c 128,-1,53
 1161 -47 1161 -47 1161 -18 c 2,54,-1
 1161 0 l 1,55,-1
 1092 0 l 2,56,57
 974 0 974 0 913 80 c 0,58,59
 862 148 862 148 862 255 c 0,60,61
 862 368 862 368 929 439 c 128,-1,62
 996 510 996 510 1092 510 c 0,63,64
 1197 510 1197 510 1263 453 c 0,65,66
 1339 388 1339 388 1339 264 c 2,67,-1
 1338 -70 l 2,32,33
EndSplineSet
Substitution2: "'fina' Terminal Forms in Arabic lookup 4" qaffinal
Substitution2: "'medi' Medial Forms in Arabic lookup 3" qafmedial
Substitution2: "'init' Initial Forms in Arabic lookup 2" qafinitial
AlternateSubs2: "'aalt' Access All Alternates in Latin lookup 0" qafinitial qafmedial qaffinal
EndChar
StartChar: arabickaf
Encoding: 1603 1603 246
Width: 1718
GlyphClass: 2
Flags: W
AnchorPoint: "ArabicBelow" 984 -144 basechar 0
AnchorPoint: "ArabicAbove" 960 876 basechar 0
Fore
1140 759 m 1,0,-1
 1114 707 l 1,1,2
 1066 694 1066 694 1037 673.5 c 128,-1,3
 1008 653 1008 653 1008 635 c 0,4,5
 1008 620 1008 620 1060 568 c 0,6,7
 1085 543 1085 543 1085 522 c 0,8,9
 1085 483 1085 483 1016 455 c 0,10,11
 933 422 933 422 787 422 c 1,12,-1
 807 461 l 1,13,14
 918 502 918 502 918 525 c 0,15,16
 918 539 918 539 882 570 c 128,-1,17
 846 601 846 601 846 617 c 0,18,19
 846 671 846 671 939.5 715 c 128,-1,20
 1033 759 1033 759 1140 759 c 1,0,-1
88 19 m 1,21,22
 127 38 127 38 182 85 c 0,23,24
 186 90 186 90 272 167 c 0,25,26
 304 197 304 197 338 252 c 0,27,28
 351 272 351 272 376 316 c 1,29,-1
 389 316 l 1,30,31
 428 248 428 248 480 223 c 0,32,33
 544 193 544 193 646 193 c 2,34,-1
 1455 193 l 1,35,-1
 1455 875 l 2,36,37
 1455 1006 1455 1006 1420 1063 c 0,38,39
 1404 1090 1404 1090 1358 1116 c 1,40,-1
 1358 1129 l 1,41,42
 1411 1160 1411 1160 1425 1169 c 0,43,44
 1475 1201 1475 1201 1491.5 1224.5 c 128,-1,45
 1508 1248 1508 1248 1546 1290 c 0,46,47
 1611 1362 l 1,48,-1
 1630 1362 l 1,49,-1
 1630 0 l 1,50,-1
 88 0 l 1,51,-1
 88 19 l 1,21,22
EndSplineSet
Substitution2: "'fina' Terminal Forms in Arabic lookup 4" arabickaffinal
Substitution2: "'medi' Medial Forms in Arabic lookup 3" kafmedial
Substitution2: "'init' Initial Forms in Arabic lookup 2" kafinitial
AlternateSubs2: "'aalt' Access All Alternates in Latin lookup 0" kafinitial kafmedial arabickaffinal
EndChar
StartChar: lam
Encoding: 1604 1604 247
Width: 1296
GlyphClass: 2
Flags: W
AnchorPoint: "ArabicBelow" 720 -384 basechar 0
AnchorPoint: "ArabicAbove" 648 636 basechar 0
Fore
892 -88 m 2,0,1
 952 -88 952 -88 992.5 -53.5 c 128,-1,2
 1033 -19 1033 -19 1033 35 c 2,3,-1
 1033 857 l 2,4,5
 1033 991 1033 991 998 1055 c 0,6,7
 978 1092 978 1092 936 1116 c 1,8,-1
 936 1129 l 1,9,10
 989 1160 989 1160 1003 1169 c 0,11,12
 1053 1201 1053 1201 1069.5 1224.5 c 128,-1,13
 1086 1248 1086 1248 1124 1290 c 0,14,15
 1189 1362 l 1,16,-1
 1208 1362 l 1,17,-1
 1208 -12 l 2,18,19
 1208 -135 1208 -135 1132.5 -208 c 128,-1,20
 1057 -281 1057 -281 927 -281 c 2,21,-1
 88 -281 l 1,22,-1
 88 -262 l 1,23,24
 127 -243 127 -243 173 -205 c 0,25,26
 185 -195 185 -195 254 -132 c 0,27,28
 286 -103 286 -103 319 -56 c 0,29,30
 342 -24 342 -24 376 35 c 1,31,-1
 389 35 l 1,32,33
 428 -33 428 -33 480 -58 c 0,34,35
 544 -88 544 -88 646 -88 c 2,36,-1
 892 -88 l 2,0,1
EndSplineSet
Substitution2: "'fina' Terminal Forms in Arabic lookup 4" lamfinal
Substitution2: "'medi' Medial Forms in Arabic lookup 3" lammedial
Substitution2: "'init' Initial Forms in Arabic lookup 2" laminitial
AlternateSubs2: "'aalt' Access All Alternates in Latin lookup 0" laminitial lammedial lamfinal
EndChar
StartChar: meem
Encoding: 1605 1605 248
Width: 1063
GlyphClass: 2
Flags: W
AnchorPoint: "ArabicBelow" 756 -132 basechar 0
AnchorPoint: "ArabicAbove" 636 768 basechar 0
Fore
976 0 m 1,0,-1
 694 0 l 2,1,2
 599 0 599 0 532.5 67 c 128,-1,3
 466 134 466 134 466 229 c 2,4,-1
 466 334 l 1,5,-1
 431 334 l 2,6,7
 406 334 406 334 383 312 c 128,-1,8
 360 290 360 290 360 264 c 2,9,-1
 360 -562 l 1,10,-1
 341 -562 l 1,11,12
 328 -548 328 -548 277 -490 c 0,13,14
 234 -443 234 -443 220.5 -424 c 128,-1,15
 207 -405 207 -405 173 -381 c 0,16,17
 151 -367 151 -367 88 -330 c 1,18,-1
 88 -316 l 1,19,20
 129 -293 129 -293 149 -256 c 0,21,22
 185 -190 185 -190 185 -57 c 2,23,-1
 185 281 l 2,24,25
 185 378 185 378 258.5 452.5 c 128,-1,26
 332 527 332 527 431 527 c 2,27,-1
 765 527 l 2,28,29
 852 527 852 527 914 465 c 128,-1,30
 976 403 976 403 976 316 c 2,31,-1
 976 0 l 1,0,-1
791 264 m 256,32,33
 791 334 791 334 721 334 c 256,34,35
 650 334 650 334 650 264 c 256,36,37
 650 193 650 193 721 193 c 256,38,39
 791 193 791 193 791 264 c 256,32,33
EndSplineSet
Substitution2: "'fina' Terminal Forms in Arabic lookup 4" meemfinal
Substitution2: "'medi' Medial Forms in Arabic lookup 3" meemmedial
Substitution2: "'init' Initial Forms in Arabic lookup 2" meeminitial
AlternateSubs2: "'aalt' Access All Alternates in Latin lookup 0" meeminitial meemmedial meemfinal
EndChar
StartChar: noon
Encoding: 1606 1606 249
Width: 1437
GlyphClass: 2
Flags: W
AnchorPoint: "ArabicBelow" 768 -372 basechar 0
AnchorPoint: "ArabicAbove" 804 996 basechar 0
Fore
874 722 m 256,0,1
 874 686 874 686 848.5 660.5 c 128,-1,2
 823 635 823 635 787 635 c 256,3,4
 751 635 751 635 725.5 660.5 c 128,-1,5
 700 686 700 686 700 722 c 256,6,7
 700 758 700 758 725.5 783.5 c 128,-1,8
 751 809 751 809 787 809 c 256,9,10
 823 809 823 809 848.5 783.5 c 128,-1,11
 874 758 874 758 874 722 c 256,0,1
1033 -88 m 2,12,13
 1092 -88 1092 -88 1132.5 -53.5 c 128,-1,14
 1173 -19 1173 -19 1173 35 c 2,15,-1
 1173 163 l 2,16,17
 1173 296 1173 296 1139 360 c 0,18,19
 1119 398 1119 398 1077 422 c 1,20,-1
 1077 435 l 1,21,22
 1129 466 1129 466 1143 475 c 0,23,24
 1194 506 1194 506 1210.5 530 c 128,-1,25
 1227 554 1227 554 1265 596 c 0,26,27
 1330 668 l 1,28,-1
 1349 668 l 1,29,-1
 1349 -12 l 2,30,31
 1349 -135 1349 -135 1273.5 -208 c 128,-1,32
 1198 -281 1198 -281 1068 -281 c 2,33,-1
 88 -281 l 1,34,-1
 88 -262 l 1,35,36
 127 -243 127 -243 173 -205 c 0,37,38
 185 -195 185 -195 254 -132 c 0,39,40
 286 -103 286 -103 319 -56 c 0,41,42
 342 -24 342 -24 376 35 c 1,43,-1
 389 35 l 1,44,45
 428 -33 428 -33 480 -58 c 0,46,47
 544 -88 544 -88 646 -88 c 2,48,-1
 1033 -88 l 2,12,13
EndSplineSet
Substitution2: "'fina' Terminal Forms in Arabic lookup 4" noonfinal
Substitution2: "'medi' Medial Forms in Arabic lookup 3" noonmedial
Substitution2: "'init' Initial Forms in Arabic lookup 2" nooninitial
AlternateSubs2: "'aalt' Access All Alternates in Latin lookup 0" nooninitial noonmedial noonfinal
EndChar
StartChar: heh
Encoding: 1607 1607 250
Width: 667
GlyphClass: 2
Flags: W
AnchorPoint: "ArabicBelow" 336 -96 basechar 0
AnchorPoint: "ArabicAbove" 336 900 basechar 0
Fore
386 0 m 2,0,-1
 88 0 l 1,1,-1
 88 264 l 2,2,3
 88 360 88 360 155.5 435 c 128,-1,4
 223 510 223 510 316 510 c 2,5,-1
 398 510 l 1,6,7
 388 585 388 585 358 626 c 0,8,9
 340 650 340 650 308 668 c 1,10,-1
 308 681 l 1,11,12
 362 713 362 713 392 734.5 c 128,-1,13
 422 756 422 756 441 777 c 0,14,15
 455 792 455 792 483 824 c 0,16,17
 500 844 500 844 561 914 c 1,18,-1
 580 914 l 1,19,-1
 580 193 l 2,20,21
 580 104 580 104 519 49 c 0,22,23
 463 0 463 0 386 0 c 2,0,-1
404 255 m 0,24,25
 404 325 404 325 334 325 c 256,26,27
 264 325 264 325 264 255 c 0,28,29
 264 221 264 221 280 207 c 128,-1,30
 296 193 296 193 334 193 c 0,31,32
 371 193 371 193 387.5 206.5 c 128,-1,33
 404 220 404 220 404 255 c 0,24,25
EndSplineSet
Substitution2: "'fina' Terminal Forms in Arabic lookup 4" hehfinal
Substitution2: "'medi' Medial Forms in Arabic lookup 3" hehmedial
Substitution2: "'init' Initial Forms in Arabic lookup 2" hehinitial
AlternateSubs2: "'aalt' Access All Alternates in Latin lookup 0" hehinitial hehmedial hehfinal
EndChar
StartChar: waw
Encoding: 1608 1608 251
Width: 691
GlyphClass: 2
Flags: W
AnchorPoint: "ArabicBelow" 340 -525 basechar 0
AnchorPoint: "ArabicAbove" 336 696 basechar 0
Fore
604 18 m 2,0,1
 604 -168 604 -168 504 -287 c 0,2,3
 389 -422 389 -422 176 -422 c 2,4,-1
 88 -422 l 1,5,-1
 88 -404 l 1,6,7
 216 -363 216 -363 315 -258 c 0,8,9
 426 -138 426 -138 426 0 c 1,10,-1
 356 0 l 2,11,12
 219 0 219 0 158 80 c 0,13,14
 110 143 110 143 110 255 c 0,15,16
 110 381 110 381 185 457 c 0,17,18
 255 527 255 527 356 527 c 0,19,20
 454 527 454 527 527 462 c 0,21,22
 604 394 604 394 604 290 c 2,23,-1
 604 18 l 2,0,1
426 264 m 256,24,25
 426 334 426 334 356 334 c 256,26,27
 286 334 286 334 286 264 c 256,28,29
 286 193 286 193 356 193 c 256,30,31
 426 193 426 193 426 264 c 256,24,25
EndSplineSet
Substitution2: "'fina' Terminal Forms in Arabic lookup 4" wawfinal
Substitution2: "'aalt' Access All Alternates in Latin lookup 1" wawfinal
EndChar
StartChar: alefmaksura
Encoding: 1609 1609 252
Width: 2128
GlyphClass: 2
Flags: W
AnchorPoint: "ArabicBelow" 444 -132 basechar 0
AnchorPoint: "ArabicAbove" 528 612 basechar 0
Fore
1589 575 m 1,0,-1
 1512 497 l 1,1,-1
 1674 172 l 2,2,3
 1686 150 1686 150 1686 123 c 0,4,5
 1686 76 1686 76 1658 40 c 0,6,7
 1627 0 1627 0 1582 0 c 2,8,-1
 88 0 l 1,9,-1
 88 47 l 1,10,11
 133 67 133 67 177 99 c 0,12,13
 208 123 208 123 253 163 c 0,14,15
 288 195 288 195 316 227 c 0,16,17
 347 264 347 264 375 310 c 1,18,-1
 408 310 l 1,19,20
 439 257 439 257 466 237 c 0,21,22
 526 193 526 193 646 193 c 2,23,-1
 1412 193 l 2,24,25
 1429 193 1429 193 1439.5 201 c 128,-1,26
 1450 209 1450 209 1450 224 c 0,27,28
 1450 236 1450 236 1443 250 c 2,29,-1
 1346 445 l 2,30,31
 1323 488 1323 488 1323 520 c 0,32,33
 1323 554 1323 554 1349 579 c 2,34,-1
 1518 748 l 2,35,36
 1535 765 1535 765 1558 773 c 128,-1,37
 1581 781 1581 781 1608 781 c 0,38,39
 1638 781 1638 781 1677.5 761.5 c 128,-1,40
 1717 742 1717 742 1728 720 c 2,41,-1
 1833 511 l 2,42,43
 1888 399 1888 399 1950 351 c 0,44,45
 1992 318 1992 318 2036 315 c 1,46,-1
 2041 303 l 1,47,48
 2001 242 2001 242 1986 216 c 0,49,50
 1963 176 1963 176 1957.5 157 c 128,-1,51
 1952 138 1952 138 1934 43 c 0,52,53
 1927 5 1927 5 1918 -28 c 1,54,-1
 1896 -39 l 1,55,-1
 1589 575 l 1,0,-1
EndSplineSet
Substitution2: "'fina' Terminal Forms in Arabic lookup 4" alefmaksurafinal
Substitution2: "'aalt' Access All Alternates in Latin lookup 1" alefmaksurafinal
EndChar
StartChar: yeh
Encoding: 1610 1610 253
Width: 2128
GlyphClass: 2
Flags: W
AnchorPoint: "ArabicBelow" 1128 -360 basechar 0
AnchorPoint: "ArabicAbove" 408 540 basechar 0
Fore
1287 -220 m 0,0,1
 1287 -251 1287 -251 1263.5 -274.5 c 128,-1,2
 1240 -298 1240 -298 1208 -298 c 256,3,4
 1177 -298 1177 -298 1153.5 -274.5 c 128,-1,5
 1130 -251 1130 -251 1130 -220 c 0,6,7
 1130 -187 1130 -187 1152.5 -164 c 128,-1,8
 1175 -141 1175 -141 1208 -141 c 256,9,10
 1241 -141 1241 -141 1264 -163.5 c 128,-1,11
 1287 -186 1287 -186 1287 -220 c 0,0,1
1101 -287 m 256,12,13
 1101 -320 1101 -320 1078.5 -343 c 128,-1,14
 1056 -366 1056 -366 1022 -366 c 0,15,16
 991 -366 991 -366 967.5 -342.5 c 128,-1,17
 944 -319 944 -319 944 -287 c 256,18,19
 944 -255 944 -255 967 -232 c 128,-1,20
 990 -209 990 -209 1022 -209 c 0,21,22
 1056 -209 1056 -209 1078.5 -232 c 128,-1,23
 1101 -255 1101 -255 1101 -287 c 256,12,13
1589 575 m 1,24,-1
 1512 497 l 1,25,-1
 1674 172 l 2,26,27
 1686 150 1686 150 1686 123 c 0,28,29
 1686 76 1686 76 1658 40 c 0,30,31
 1627 0 1627 0 1582 0 c 2,32,-1
 88 0 l 1,33,-1
 88 47 l 1,34,35
 133 67 133 67 177 99 c 0,36,37
 208 123 208 123 253 163 c 0,38,39
 288 195 288 195 316 227 c 0,40,41
 347 264 347 264 375 310 c 1,42,-1
 408 310 l 1,43,44
 439 257 439 257 466 237 c 0,45,46
 526 193 526 193 646 193 c 2,47,-1
 1412 193 l 2,48,49
 1429 193 1429 193 1439.5 201 c 128,-1,50
 1450 209 1450 209 1450 224 c 0,51,52
 1450 236 1450 236 1443 250 c 2,53,-1
 1346 445 l 2,54,55
 1323 488 1323 488 1323 520 c 0,56,57
 1323 554 1323 554 1349 579 c 2,58,-1
 1518 748 l 2,59,60
 1535 765 1535 765 1558 773 c 128,-1,61
 1581 781 1581 781 1608 781 c 0,62,63
 1638 781 1638 781 1677.5 761.5 c 128,-1,64
 1717 742 1717 742 1728 720 c 2,65,-1
 1833 511 l 2,66,67
 1888 399 1888 399 1950 351 c 0,68,69
 1992 318 1992 318 2036 315 c 1,70,-1
 2041 303 l 1,71,72
 2001 242 2001 242 1986 216 c 0,73,74
 1963 176 1963 176 1957.5 157 c 128,-1,75
 1952 138 1952 138 1934 43 c 0,76,77
 1927 5 1927 5 1918 -28 c 1,78,-1
 1896 -39 l 1,79,-1
 1589 575 l 1,24,-1
EndSplineSet
Substitution2: "'fina' Terminal Forms in Arabic lookup 4" yehfinal
Substitution2: "'medi' Medial Forms in Arabic lookup 3" yehmedial
Substitution2: "'init' Initial Forms in Arabic lookup 2" yehinitial
AlternateSubs2: "'aalt' Access All Alternates in Latin lookup 0" yehinitial yehmedial yehfinal
EndChar
StartChar: fathatan
Encoding: 1611 1611 254
Width: -88
VWidth: 1974
GlyphClass: 4
Flags: HW
AnchorPoint: "ArabicMark2MarkAbove" 248.5 1187.25 mark 0
AnchorPoint: "ArabicAboveLigature" 248.5 1187.25 mark 0
AnchorPoint: "ArabicAbove" 248.5 1187.25 mark 0
Fore
399.25 1716.75 m 1,0,1
 399.25 1629.75 399.25 1629.75 352.75 1602.75 c 2,2,-1
 -46.25 1376.25 l 1,3,4
 -46.25 1425.75 -46.25 1425.75 -31.25 1450.5 c 128,-1,5
 -16.25 1475.25 -16.25 1475.25 40.75 1509.75 c 2,6,-1
 399.25 1716.75 l 1,0,1
399.25 1523.25 m 1,7,8
 399.25 1436.25 399.25 1436.25 352.75 1410.75 c 2,9,-1
 -46.25 1184.25 l 1,10,11
 -46.25 1233.75 -46.25 1233.75 -31.25 1258.5 c 128,-1,12
 -16.25 1283.25 -16.25 1283.25 40.75 1316.25 c 2,13,-1
 399.25 1523.25 l 1,7,8
EndSplineSet
EndChar
StartChar: dammatan
Encoding: 1612 1612 255
Width: -100
VWidth: 1958
GlyphClass: 4
Flags: HW
AnchorPoint: "ArabicMark2MarkAbove" 350 1231 mark 0
AnchorPoint: "ArabicAboveLigature" 350 1231 mark 0
AnchorPoint: "ArabicAbove" 350 1231 mark 0
Fore
462.5 1405 m 2,0,-1
 461 1327 l 1,1,-1
 402.5 1360 l 1,2,-1
 339.5 1405 l 1,3,4
 246.5 1309 246.5 1309 179.75 1268.5 c 128,-1,5
 113 1228 113 1228 23 1213 c 1,6,7
 41 1252 41 1252 50.75 1274.5 c 128,-1,8
 60.5 1297 60.5 1297 70.25 1325.5 c 128,-1,9
 80 1354 80 1354 80 1384 c 0,10,11
 80 1409.5 80 1409.5 60.5 1432.75 c 128,-1,12
 41 1456 41 1456 14 1456 c 0,13,14
 -5.5 1456 -5.5 1456 -25.75 1427.5 c 128,-1,15
 -46 1399 -46 1399 -50.5 1355.5 c 1,16,-1
 -61 1396 l 1,17,-1
 -62.5 1424.5 l 2,18,19
 -62.5 1484.5 -62.5 1484.5 -31 1527.25 c 128,-1,20
 0.5 1570 0.5 1570 47 1570 c 0,21,22
 90.5 1570 90.5 1570 113 1536.25 c 128,-1,23
 135.5 1502.5 135.5 1502.5 135.5 1438 c 2,24,-1
 134 1400.5 l 1,25,-1
 128 1316.5 l 1,26,27
 179 1336 179 1336 207.5 1357 c 128,-1,28
 236 1378 236 1378 291.5 1435 c 1,29,30
 242 1468 242 1468 221 1496.5 c 0,31,32
 204.5 1526.5 204.5 1526.5 204.5 1559.5 c 0,33,34
 204.5 1628.5 204.5 1628.5 256.25 1690.75 c 128,-1,35
 308 1753 308 1753 365 1753 c 0,36,37
 395 1753 395 1753 425 1718.5 c 128,-1,38
 455 1684 455 1684 455 1648 c 0,39,40
 455 1606 455 1606 440 1570 c 2,41,-1
 411.5 1496.5 l 1,42,43
 443 1474 443 1474 452.75 1455.25 c 128,-1,44
 462.5 1436.5 462.5 1436.5 462.5 1405 c 2,0,-1
362 1594 m 2,45,46
 362 1627 362 1627 347.75 1645.75 c 128,-1,47
 333.5 1664.5 333.5 1664.5 308 1664.5 c 0,48,49
 294.5 1664.5 294.5 1664.5 285.5 1656.25 c 128,-1,50
 276.5 1648 276.5 1648 275 1634.5 c 1,51,52
 275 1606 275 1606 308 1577.5 c 2,53,-1
 357.5 1543 l 1,54,-1
 362 1568.5 l 1,55,-1
 362 1594 l 2,45,46
EndSplineSet
EndChar
StartChar: kasratan
Encoding: 1613 1613 256
Width: -105
VWidth: 3061
GlyphClass: 4
Flags: HW
AnchorPoint: "ArabicMark2MarkBelow" 179.75 -436.5 mark 0
AnchorPoint: "ArabicBelowLigature" 179.75 -436.5 mark 0
AnchorPoint: "ArabicBelow" 179.75 -436.5 mark 0
Fore
433.25 -456 m 1,0,1
 433.25 -543 433.25 -543 386.75 -570 c 2,2,-1
 -12.25 -796.5 l 1,3,4
 -12.25 -745.5 -12.25 -745.5 2.75 -721.5 c 128,-1,5
 17.75 -697.5 17.75 -697.5 74.75 -663 c 2,6,-1
 433.25 -456 l 1,0,1
433.25 -649.5 m 1,7,8
 433.25 -736.5 433.25 -736.5 386.75 -763.5 c 2,9,-1
 -12.25 -990 l 1,10,11
 -12.25 -939 -12.25 -939 2.75 -915 c 128,-1,12
 17.75 -891 17.75 -891 74.75 -856.5 c 2,13,-1
 433.25 -649.5 l 1,7,8
EndSplineSet
EndChar
StartChar: fathah
Encoding: 1614 1614 257
Width: -105
VWidth: 1971
GlyphClass: 4
Flags: HW
AnchorPoint: "ArabicMark2MarkAbove" 293 1284 mark 0
AnchorPoint: "ArabicAboveLigature" 293 1284 mark 0
AnchorPoint: "ArabicAbove" 293 1284 mark 0
Fore
433.25 1627.5 m 1,0,1
 433.25 1540.5 433.25 1540.5 386.75 1515 c 2,2,-1
 -12.25 1288.5 l 1,3,4
 -12.25 1338 -12.25 1338 2.75 1362.75 c 128,-1,5
 17.75 1387.5 17.75 1387.5 74.75 1420.5 c 2,6,-1
 433.25 1627.5 l 1,0,1
EndSplineSet
EndChar
StartChar: dammah
Encoding: 1615 1615 258
Width: -106
VWidth: 1947
GlyphClass: 4
Flags: HW
AnchorPoint: "ArabicMark2MarkAbove" 325.5 1218.25 mark 0
AnchorPoint: "ArabicAboveLigature" 325.5 1218.25 mark 0
AnchorPoint: "ArabicAbove" 325.5 1218.25 mark 0
Fore
439.5 1476.25 m 1,0,-1
 429 1345.75 l 1,1,-1
 379.5 1375.75 l 1,2,-1
 324 1414.75 l 1,3,4
 249 1326.25 249 1326.25 195 1281.25 c 0,5,6
 124.5 1224.25 124.5 1224.25 63 1224.25 c 0,7,8
 43.5 1224.25 43.5 1224.25 18 1231.75 c 2,9,-1
 -13.5 1240.75 l 1,10,11
 72 1287.25 72 1287.25 123 1323.25 c 0,12,13
 165 1353.25 165 1353.25 267 1446.25 c 1,14,15
 222 1480.75 222 1480.75 204 1506.25 c 128,-1,16
 186 1531.75 186 1531.75 186 1564.75 c 0,17,18
 186 1624.75 186 1624.75 234 1711.75 c 0,19,20
 258 1750.75 258 1750.75 284.25 1768.75 c 128,-1,21
 310.5 1786.75 310.5 1786.75 339 1786.75 c 0,22,23
 429 1786.75 429 1786.75 429 1669.75 c 0,24,25
 429 1636.75 429 1636.75 420 1603 c 128,-1,26
 411 1569.25 411 1569.25 388.5 1516.75 c 1,27,-1
 439.5 1476.25 l 1,0,-1
346.5 1593.25 m 0,28,29
 346.5 1623.25 346.5 1623.25 325.5 1648 c 128,-1,30
 304.5 1672.75 304.5 1672.75 277.5 1672.75 c 0,31,32
 270 1672.75 270 1672.75 259.5 1665.25 c 0,33,34
 256.5 1660.75 256.5 1660.75 253.5 1647.25 c 1,35,36
 253.5 1621.75 253.5 1621.75 268.5 1603.75 c 128,-1,37
 283.5 1585.75 283.5 1585.75 339 1548.25 c 1,38,39
 346.5 1573.75 346.5 1573.75 346.5 1593.25 c 0,28,29
EndSplineSet
EndChar
StartChar: kasrah
Encoding: 1616 1616 259
Width: -105
VWidth: 3029
GlyphClass: 4
Flags: HW
AnchorPoint: "ArabicMark2MarkBelow" 179.75 -477.75 mark 0
AnchorPoint: "ArabicBelowLigature" 179.75 -477.75 mark 0
AnchorPoint: "ArabicBelow" 179.75 -477.75 mark 0
Fore
433.25 -488.25 m 1,0,1
 433.25 -575.25 433.25 -575.25 386.75 -602.25 c 2,2,-1
 -12.25 -828.75 l 1,3,4
 -12.25 -777.75 -12.25 -777.75 2.75 -753.75 c 128,-1,5
 17.75 -729.75 17.75 -729.75 74.75 -695.25 c 2,6,-1
 433.25 -488.25 l 1,0,1
EndSplineSet
EndChar
StartChar: shaddah
Encoding: 1617 1617 260
Width: -106
VWidth: 1946
GlyphClass: 4
Flags: HW
AnchorPoint: "ArabicMark2MarkBelow" 254.75 1241 basemark 0
AnchorPoint: "ArabicMark2MarkAbove" 307.25 1730.75 basemark 0
AnchorPoint: "ArabicAboveLigature" 254.75 1241 mark 0
AnchorPoint: "ArabicAbove" 254.75 1241 mark 0
Fore
446.75 1597.25 m 2,0,1
 446.75 1495.25 446.75 1495.25 410.75 1435.25 c 128,-1,2
 374.75 1375.25 374.75 1375.25 310.25 1375.25 c 0,3,4
 280.25 1375.25 280.25 1375.25 264.5 1381.25 c 128,-1,5
 248.75 1387.25 248.75 1387.25 224.75 1403.75 c 1,6,7
 217.25 1360.25 217.25 1360.25 175.25 1325 c 128,-1,8
 133.25 1289.75 133.25 1289.75 88.25 1289.75 c 0,9,10
 40.25 1289.75 40.25 1289.75 10.25 1329.5 c 128,-1,11
 -19.75 1369.25 -19.75 1369.25 -19.75 1432.25 c 0,12,13
 -19.75 1472.75 -19.75 1472.75 -4.75 1519.25 c 2,14,-1
 8.75 1565.75 l 1,15,-1
 40.25 1571.75 l 1,16,17
 40.25 1495.25 40.25 1495.25 51.5 1460 c 128,-1,18
 62.75 1424.75 62.75 1424.75 91.25 1424.75 c 0,19,20
 133.25 1424.75 133.25 1424.75 161.75 1474.25 c 128,-1,21
 190.25 1523.75 190.25 1523.75 209.75 1637.75 c 1,22,-1
 233.75 1646.75 l 1,23,24
 248.75 1573.25 248.75 1573.25 266.75 1544.75 c 128,-1,25
 284.75 1516.25 284.75 1516.25 310.25 1516.25 c 0,26,27
 398.75 1516.25 398.75 1516.25 398.75 1711.25 c 1,28,-1
 428.75 1723.25 l 1,29,-1
 443.75 1654.25 l 1,30,-1
 446.75 1597.25 l 2,0,1
EndSplineSet
EndChar
StartChar: sukun
Encoding: 1618 1618 261
Width: -98
VWidth: 1959
GlyphClass: 4
Flags: HW
AnchorPoint: "ArabicMark2MarkAbove" 280 1275 mark 0
AnchorPoint: "ArabicAboveLigature" 181 1171.5 mark 0
AnchorPoint: "ArabicAbove" 181 1171.5 mark 0
Fore
365.5 1492.5 m 0,0,1
 365.5 1408.5 365.5 1408.5 305.5 1342.5 c 128,-1,2
 245.5 1276.5 245.5 1276.5 167.5 1276.5 c 0,3,4
 98.5 1276.5 98.5 1276.5 62.5 1316.25 c 128,-1,5
 26.5 1356 26.5 1356 26.5 1435.5 c 0,6,7
 26.5 1548 26.5 1548 76 1617.75 c 128,-1,8
 125.5 1687.5 125.5 1687.5 206.5 1687.5 c 0,9,10
 266.5 1687.5 266.5 1687.5 316 1627.5 c 128,-1,11
 365.5 1567.5 365.5 1567.5 365.5 1492.5 c 0,0,1
293.5 1461 m 0,12,13
 293.5 1492.5 293.5 1492.5 236.5 1533 c 128,-1,14
 179.5 1573.5 179.5 1573.5 146.5 1573.5 c 256,15,16
 113.5 1573.5 113.5 1573.5 91.75 1548 c 128,-1,17
 70 1522.5 70 1522.5 70 1485 c 0,18,19
 70 1407 70 1407 190 1407 c 0,20,21
 241 1407 241 1407 267.25 1421.25 c 128,-1,22
 293.5 1435.5 293.5 1435.5 293.5 1461 c 0,12,13
EndSplineSet
EndChar
StartChar: arabicindicdigitzero
Encoding: 1632 1632 262
Width: 984
GlyphClass: 2
Flags: W
Fore
401 120 m 1,0,-1
 562 281 l 1,1,-1
 724 120 l 1,2,-1
 562 -42 l 1,3,-1
 401 120 l 1,0,-1
EndSplineSet
EndChar
StartChar: arabicindicdigitone
Encoding: 1633 1633 263
Width: 984
GlyphClass: 2
Flags: W
Fore
635 0 m 1,0,-1
 494 0 l 1,1,-1
 494 1187 l 1,2,-1
 635 1187 l 1,3,-1
 635 0 l 1,0,-1
EndSplineSet
EndChar
StartChar: arabicindicdigittwo
Encoding: 1634 1634 264
Width: 984
GlyphClass: 2
Flags: W
Fore
846 1028 m 1,0,-1
 446 1028 l 2,1,2
 371 1028 371 1028 329 997 c 0,3,4
 281 961 281 961 281 888 c 2,5,-1
 281 0 l 1,6,-1
 141 0 l 1,7,-1
 141 955 l 2,8,9
 141 1068 141 1068 193 1125 c 0,10,11
 250 1187 250 1187 371 1187 c 2,12,-1
 846 1187 l 1,13,-1
 846 1028 l 1,0,-1
EndSplineSet
EndChar
StartChar: arabicindicdigitthree
Encoding: 1635 1635 265
Width: 984
GlyphClass: 2
Flags: W
Fore
844 562 m 2,0,1
 844 504 844 504 802.5 463 c 128,-1,2
 761 422 761 422 703 422 c 2,3,-1
 281 422 l 1,4,-1
 281 0 l 1,5,-1
 141 0 l 1,6,-1
 141 1187 l 1,7,-1
 281 1187 l 1,8,-1
 281 580 l 1,9,-1
 422 580 l 1,10,-1
 422 1187 l 1,11,-1
 562 1187 l 1,12,-1
 562 580 l 1,13,-1
 633 580 l 2,14,15
 662 580 662 580 682.5 600.5 c 128,-1,16
 703 621 703 621 703 650 c 2,17,-1
 703 1187 l 1,18,-1
 844 1187 l 1,19,-1
 844 562 l 2,0,1
EndSplineSet
EndChar
StartChar: arabicindicdigitfour
Encoding: 1636 1636 266
Width: 984
GlyphClass: 2
Flags: W
Fore
846 0 m 1,0,-1
 371 0 l 2,1,2
 250 0 250 0 193 61 c 0,3,4
 141 118 141 118 141 231 c 2,5,-1
 141 302 l 1,6,-1
 422 584 l 2,7,8
 429 590 429 590 429 604 c 256,9,10
 429 618 429 618 422 624 c 2,11,-1
 141 905 l 1,12,-1
 141 955 l 2,13,14
 141 1068 141 1068 193 1125 c 0,15,16
 250 1187 250 1187 371 1187 c 2,17,-1
 846 1187 l 1,18,-1
 846 1028 l 1,19,-1
 446 1028 l 2,20,21
 386 1028 386 1028 354.5 1011.5 c 128,-1,22
 323 995 323 995 307 948 c 1,23,-1
 540 715 l 2,24,25
 559 696 559 696 569 664.5 c 128,-1,26
 579 633 579 633 579 596 c 0,27,28
 579 558 579 558 569 526 c 128,-1,29
 559 494 559 494 540 475 c 2,30,-1
 302 237 l 1,31,32
 313 185 313 185 349 170 c 0,33,34
 375 158 375 158 446 158 c 2,35,-1
 846 158 l 1,36,-1
 846 0 l 1,0,-1
EndSplineSet
EndChar
StartChar: arabicindicdigitfive
Encoding: 1637 1637 267
Width: 984
GlyphClass: 2
Flags: W
Fore
844 360 m 2,0,1
 844 243 844 243 837 195 c 0,2,3
 824 104 824 104 782 57 c 0,4,5
 732 0 732 0 633 0 c 2,6,-1
 352 0 l 2,7,8
 254 0 254 0 203 57 c 0,9,10
 162 104 162 104 149 194 c 0,11,12
 141 248 141 248 141 360 c 2,13,-1
 141 519 l 2,14,15
 141 705 141 705 185 832 c 0,16,17
 224 947 224 947 307 1036 c 0,18,19
 372 1107 372 1107 492 1187 c 1,20,21
 614 1106 614 1106 677 1040 c 0,22,23
 760 952 760 952 800 838 c 0,24,25
 844 711 844 711 844 519 c 2,26,-1
 844 360 l 2,0,1
334 158 m 2,27,-1
 650 158 l 2,28,29
 674 158 674 158 687 251 c 0,30,31
 698 322 698 322 701 425 c 0,32,33
 703 519 l 0,34,35
 703 697 703 697 650 814 c 0,36,37
 602 922 602 922 492 1011 c 1,38,39
 382 921 382 921 334 815 c 0,40,41
 281 698 281 698 281 519 c 0,42,43
 283 426 l 0,44,45
 287 315 287 315 296 252 c 0,46,47
 310 158 310 158 334 158 c 2,27,-1
EndSplineSet
EndChar
StartChar: arabicindicdigitsix
Encoding: 1638 1638 268
Width: 984
GlyphClass: 2
Flags: W
Fore
844 0 m 1,0,-1
 703 0 l 1,1,-1
 703 888 l 2,2,3
 703 960 703 960 656 996 c 0,4,5
 613 1028 613 1028 538 1028 c 2,6,-1
 139 1028 l 1,7,-1
 139 1187 l 1,8,-1
 613 1187 l 2,9,10
 735 1187 735 1187 791 1126 c 0,11,12
 844 1069 844 1069 844 955 c 2,13,-1
 844 0 l 1,0,-1
EndSplineSet
EndChar
StartChar: arabicindicdigitseven
Encoding: 1639 1639 269
Width: 984
GlyphClass: 2
Flags: W
Fore
844 667 m 2,0,1
 844 475 844 475 800 348 c 0,2,3
 760 234 760 234 678 147 c 0,4,5
 617 83 617 83 492 0 c 1,6,7
 373 80 373 80 308 149 c 0,8,9
 224 239 224 239 185 353 c 0,10,11
 141 481 141 481 141 667 c 2,12,-1
 141 1187 l 1,13,-1
 281 1187 l 1,14,-1
 281 685 l 2,15,16
 281 506 281 506 334 386 c 0,17,18
 383 272 383 272 492 185 c 1,19,20
 601 273 601 273 650 385 c 0,21,22
 703 505 703 505 703 685 c 2,23,-1
 703 1187 l 1,24,-1
 844 1187 l 1,25,-1
 844 667 l 2,0,1
EndSplineSet
EndChar
StartChar: arabicindicdigiteight
Encoding: 1640 1640 270
Width: 984
GlyphClass: 2
Flags: W
Fore
844 0 m 1,0,-1
 703 0 l 1,1,-1
 703 502 l 2,2,3
 703 680 703 680 650 801 c 0,4,5
 601 914 601 914 492 1002 c 1,6,7
 383 913 383 913 334 802 c 0,8,9
 281 681 281 681 281 502 c 2,10,-1
 281 0 l 1,11,-1
 141 0 l 1,12,-1
 141 519 l 2,13,14
 141 705 141 705 185 832 c 0,15,16
 224 947 224 947 307 1036 c 0,17,18
 372 1107 372 1107 492 1187 c 1,19,20
 614 1106 614 1106 677 1040 c 0,21,22
 760 952 760 952 800 838 c 0,23,24
 844 711 844 711 844 519 c 2,25,-1
 844 0 l 1,0,-1
EndSplineSet
EndChar
StartChar: arabicindicdigitnine
Encoding: 1641 1641 271
Width: 984
GlyphClass: 2
Flags: W
Fore
844 0 m 1,0,-1
 703 0 l 1,1,-1
 703 422 l 1,2,-1
 371 422 l 2,3,4
 250 422 250 422 193 483 c 0,5,6
 141 540 141 540 141 653 c 2,7,-1
 141 1187 l 1,8,-1
 613 1187 l 2,9,10
 735 1187 735 1187 791 1126 c 0,11,12
 844 1069 844 1069 844 955 c 2,13,-1
 844 0 l 1,0,-1
703 580 m 1,14,-1
 703 888 l 2,15,16
 703 960 703 960 656 996 c 0,17,18
 613 1028 613 1028 538 1028 c 2,19,-1
 281 1028 l 1,20,-1
 281 721 l 2,21,22
 281 649 281 649 329 613 c 0,23,24
 372 580 372 580 446 580 c 2,25,-1
 703 580 l 1,14,-1
EndSplineSet
EndChar
